<?xml version="1.0" encoding="UTF-8" standalone="no"?><!DOCTYPE svg PUBLIC "-//W3C//DTD SVG 1.1//EN" "http://www.w3.org/Graphics/SVG/1.1/DTD/svg11.dtd"><svg width="100%" height="100%" viewBox="0 0 500 500" version="1.1" xmlns="http://www.w3.org/2000/svg" xmlns:xlink="http://www.w3.org/1999/xlink" xml:space="preserve" xmlns:serif="http://www.serif.com/" style="fill-rule:evenodd;clip-rule:evenodd;stroke-linejoin:round;stroke-miterlimit:1.41421;"><g id="Help"><path id="O" d="M250.808,0.001l0.808,0.004l0.807,0.007l0.806,0.008l0.806,0.012l0.805,0.014l0.805,0.017l0.803,0.019l0.804,0.021l0.802,0.025l0.802,0.026l0.802,0.029l0.8,0.032l0.801,0.035l0.799,0.036l0.799,0.04l0.798,0.041l0.797,0.045l0.797,0.046l0.796,0.05l0.796,0.051l0.795,0.055l0.794,0.056l0.793,0.06l0.793,0.061l0.792,0.064l0.791,0.067l0.791,0.069l0.79,0.072l0.789,0.073l0.789,0.077l0.788,0.079l0.787,0.081l0.786,0.084l0.786,0.086l0.785,0.089l0.784,0.091l0.784,0.093l0.782,0.096l0.782,0.098l0.782,0.101l0.78,0.103l0.78,0.105l0.779,0.108l0.778,0.111l0.778,0.112l0.776,0.115l0.776,0.118l0.775,0.12l0.775,0.122l0.773,0.124l0.773,0.127l0.772,0.13l0.771,0.131l0.771,0.134l0.769,0.137l0.769,0.138l0.768,0.141l0.767,0.144l0.766,0.146l0.766,0.148l0.764,0.15l0.764,0.153l0.763,0.155l0.762,0.157l0.762,0.16l0.76,0.162l0.76,0.164l0.758,0.167l0.758,0.169l0.757,0.171l0.756,0.173l0.756,0.176l0.754,0.178l0.754,0.181l0.752,0.182l0.752,0.185l0.751,0.187l0.75,0.19l0.749,0.191l0.748,0.194l0.747,0.196l0.747,0.199l0.745,0.201l0.745,0.203l0.743,0.205l0.743,0.207l0.742,0.21l0.741,0.212l0.74,0.214l0.739,0.216l0.738,0.218l0.737,0.221l0.736,0.223l0.735,0.225l0.734,0.227l0.733,0.23l0.733,0.232l0.731,0.234l0.73,0.236l0.729,0.238l0.729,0.24l0.727,0.243l0.727,0.245l0.725,0.247l0.724,0.249l0.724,0.251l0.722,0.253l0.721,0.256l0.721,0.258l0.719,0.259l0.718,0.262l0.718,0.264l0.716,0.267l0.715,0.268l0.714,0.27l0.713,0.273l0.713,0.275l0.711,0.277l0.71,0.278l0.709,0.282l0.707,0.283l0.707,0.285l0.706,0.287l0.705,0.29l0.703,0.291l0.703,0.294l0.701,0.295l0.701,0.298l0.699,0.3l0.698,0.302l0.697,0.303l0.696,0.306l0.695,0.308l0.694,0.31l0.692,0.313l0.692,0.314l0.69,0.316l0.69,0.318l0.688,0.32l0.687,0.323l0.686,0.324l0.684,0.326l0.684,0.328l0.683,0.331l0.681,0.332l0.68,0.334l0.679,0.337l0.678,0.338l0.676,0.34l0.676,0.343l0.674,0.344l0.673,0.346l0.672,0.349l0.671,0.35l0.67,0.352l0.668,0.354l0.667,0.356l0.666,0.358l0.665,0.36l0.663,0.362l0.663,0.364l0.661,0.366l0.66,0.368l0.659,0.369l0.657,0.372l0.656,0.374l0.655,0.375l0.654,0.378l0.652,0.379l0.652,0.381l0.65,0.383l0.648,0.385l0.648,0.387l0.646,0.389l0.645,0.391l0.644,0.392l0.642,0.395l0.641,0.396l0.64,0.399l0.639,0.4l0.637,0.402l0.636,0.404l0.635,0.405l0.633,0.408l0.632,0.409l0.631,0.412l0.629,0.413l0.628,0.415l0.627,0.416l0.626,0.419l0.624,0.42l0.623,0.423l0.621,0.424l0.62,0.426l0.619,0.427l0.617,0.43l0.617,0.431l0.614,0.434l0.614,0.434l0.612,0.437l0.61,0.439l0.61,0.44l0.607,0.442l0.607,0.444l0.605,0.446l0.604,0.447l0.602,0.449l0.601,0.451l0.6,0.453l0.598,0.454l0.597,0.457l0.595,0.458l0.594,0.459l0.593,0.462l0.591,0.463l0.589,0.465l0.589,0.467l0.586,0.468l0.586,0.47l0.584,0.472l0.582,0.474l0.581,0.475l0.58,0.477l0.578,0.478l0.577,0.481l0.575,0.482l0.574,0.483l0.572,0.486l0.571,0.487l0.569,0.489l0.568,0.49l0.566,0.492l0.565,0.494l0.563,0.496l0.562,0.497l0.561,0.499l0.558,0.5l0.558,0.502l0.556,0.504l0.554,0.505l0.553,0.507l0.551,0.509l0.55,0.51l0.548,0.512l0.547,0.514l0.545,0.515l0.543,0.516l0.542,0.519l0.541,0.52l0.539,0.521l0.537,0.523l0.536,0.525l0.534,0.527l0.533,0.527l0.531,0.53l0.53,0.531l0.527,0.533l0.527,0.534l0.525,0.536l0.523,0.537l0.521,0.539l0.52,0.541l0.519,0.542l0.516,0.543l0.515,0.545l0.514,0.547l0.512,0.548l0.51,0.55l0.509,0.551l0.507,0.553l0.505,0.554l0.504,0.556l0.502,0.558l0.5,0.558l0.499,0.561l0.497,0.562l0.496,0.563l0.494,0.565l0.492,0.566l0.49,0.568l0.489,0.569l0.487,0.571l0.486,0.572l0.483,0.574l0.482,0.575l0.481,0.577l0.478,0.578l0.477,0.58l0.475,0.581l0.474,0.582l0.472,0.584l0.47,0.586l0.468,0.586l0.467,0.589l0.465,0.589l0.463,0.591l0.462,0.593l0.459,0.594l0.458,0.595l0.457,0.597l0.454,0.598l0.453,0.6l0.451,0.601l0.449,0.602l0.447,0.604l0.446,0.605l0.444,0.607l0.442,0.607l0.44,0.61l0.439,0.61l0.437,0.612l0.434,0.614l0.434,0.614l0.431,0.617l0.43,0.617l0.427,0.619l0.426,0.62l0.424,0.621l0.423,0.623l0.42,0.624l0.419,0.626l0.416,0.627l0.415,0.628l0.413,0.629l0.412,0.631l0.409,0.632l0.408,0.633l0.405,0.635l0.404,0.636l0.402,0.637l0.4,0.639l0.399,0.64l0.396,0.641l0.395,0.642l0.392,0.644l0.391,0.645l0.389,0.646l0.387,0.648l0.385,0.648l0.383,0.65l0.381,0.652l0.379,0.652l0.378,0.654l0.375,0.655l0.374,0.656l0.372,0.657l0.369,0.659l0.368,0.66l0.366,0.661l0.364,0.663l0.362,0.663l0.36,0.665l0.358,0.666l0.356,0.667l0.354,0.668l0.352,0.67l0.35,0.671l0.349,0.672l0.346,0.673l0.344,0.674l0.343,0.676l0.34,0.676l0.338,0.678l0.337,0.679l0.334,0.68l0.332,0.681l0.331,0.683l0.328,0.684l0.326,0.684l0.324,0.686l0.323,0.687l0.32,0.688l0.318,0.69l0.316,0.69l0.314,0.692l0.313,0.692l0.31,0.694l0.308,0.695l0.306,0.696l0.303,0.697l0.302,0.698l0.3,0.699l0.298,0.701l0.295,0.701l0.294,0.703l0.291,0.703l0.29,0.705l0.287,0.706l0.285,0.707l0.283,0.707l0.282,0.709l0.278,0.71l0.277,0.711l0.275,0.713l0.273,0.713l0.27,0.714l0.268,0.715l0.267,0.716l0.264,0.718l0.262,0.718l0.259,0.719l0.258,0.721l0.256,0.721l0.253,0.722l0.251,0.724l0.249,0.724l0.247,0.725l0.245,0.727l0.243,0.727l0.24,0.729l0.238,0.729l0.236,0.73l0.234,0.731l0.232,0.733l0.23,0.733l0.227,0.734l0.225,0.735l0.223,0.736l0.221,0.737l0.218,0.738l0.216,0.739l0.214,0.74l0.212,0.741l0.21,0.742l0.207,0.743l0.205,0.743l0.203,0.745l0.201,0.745l0.199,0.747l0.196,0.747l0.194,0.748l0.191,0.749l0.19,0.75l0.187,0.751l0.185,0.752l0.182,0.752l0.181,0.754l0.178,0.754l0.176,0.756l0.173,0.756l0.171,0.757l0.169,0.758l0.167,0.758l0.164,0.76l0.162,0.76l0.16,0.762l0.157,0.762l0.155,0.763l0.153,0.764l0.15,0.764l0.148,0.766l0.146,0.766l0.144,0.767l0.141,0.768l0.138,0.769l0.137,0.769l0.134,0.771l0.131,0.771l0.13,0.772l0.127,0.773l0.124,0.773l0.122,0.775l0.12,0.775l0.118,0.776l0.115,0.776l0.112,0.778l0.111,0.778l0.108,0.779l0.105,0.78l0.103,0.78l0.101,0.782l0.098,0.782l0.096,0.782l0.093,0.784l0.091,0.784l0.089,0.785l0.086,0.786l0.084,0.786l0.081,0.787l0.079,0.788l0.077,0.789l0.073,0.789l0.072,0.79l0.069,0.791l0.067,0.791l0.064,0.792l0.061,0.793l0.06,0.793l0.056,0.794l0.055,0.795l0.051,0.796l0.05,0.796l0.046,0.797l0.045,0.797l0.041,0.798l0.04,0.799l0.036,0.799l0.035,0.801l0.032,0.8l0.029,0.802l0.026,0.802l0.025,0.802l0.021,0.804l0.019,0.803l0.017,0.805l0.014,0.805l0.012,0.806l0.008,0.806l0.007,0.807l0.004,0.808l0.001,0.808l-0.001,0.808l-0.004,0.808l-0.007,0.807l-0.008,0.806l-0.012,0.806l-0.014,0.805l-0.017,0.805l-0.019,0.803l-0.021,0.804l-0.025,0.802l-0.026,0.802l-0.029,0.802l-0.032,0.8l-0.035,0.801l-0.036,0.799l-0.04,0.799l-0.041,0.798l-0.045,0.797l-0.046,0.797l-0.05,0.796l-0.051,0.796l-0.055,0.795l-0.056,0.794l-0.06,0.793l-0.061,0.793l-0.064,0.792l-0.067,0.791l-0.069,0.791l-0.072,0.79l-0.073,0.789l-0.077,0.789l-0.079,0.788l-0.081,0.787l-0.084,0.786l-0.086,0.786l-0.089,0.785l-0.091,0.784l-0.093,0.784l-0.096,0.782l-0.098,0.782l-0.101,0.782l-0.103,0.78l-0.105,0.78l-0.108,0.779l-0.111,0.778l-0.112,0.778l-0.115,0.776l-0.118,0.776l-0.12,0.775l-0.122,0.775l-0.124,0.773l-0.127,0.773l-0.13,0.772l-0.131,0.771l-0.134,0.771l-0.137,0.769l-0.138,0.769l-0.141,0.768l-0.144,0.767l-0.146,0.766l-0.148,0.766l-0.15,0.764l-0.153,0.764l-0.155,0.763l-0.157,0.762l-0.16,0.762l-0.162,0.76l-0.164,0.76l-0.167,0.758l-0.169,0.758l-0.171,0.757l-0.173,0.756l-0.176,0.756l-0.178,0.754l-0.181,0.754l-0.182,0.752l-0.185,0.752l-0.187,0.751l-0.19,0.75l-0.191,0.749l-0.194,0.748l-0.196,0.747l-0.199,0.747l-0.201,0.745l-0.203,0.745l-0.205,0.743l-0.207,0.743l-0.21,0.742l-0.212,0.741l-0.214,0.74l-0.216,0.739l-0.218,0.738l-0.221,0.737l-0.223,0.736l-0.225,0.735l-0.227,0.734l-0.23,0.733l-0.232,0.733l-0.234,0.731l-0.236,0.73l-0.238,0.729l-0.24,0.729l-0.243,0.727l-0.245,0.727l-0.247,0.725l-0.249,0.724l-0.251,0.724l-0.253,0.722l-0.256,0.721l-0.258,0.721l-0.259,0.719l-0.262,0.718l-0.264,0.718l-0.267,0.716l-0.268,0.715l-0.27,0.714l-0.273,0.713l-0.275,0.713l-0.277,0.711l-0.278,0.71l-0.282,0.709l-0.283,0.707l-0.285,0.707l-0.287,0.706l-0.29,0.705l-0.291,0.703l-0.294,0.703l-0.295,0.701l-0.298,0.701l-0.3,0.699l-0.302,0.698l-0.303,0.697l-0.306,0.696l-0.308,0.695l-0.31,0.694l-0.313,0.692l-0.314,0.692l-0.316,0.69l-0.318,0.69l-0.32,0.688l-0.323,0.687l-0.324,0.686l-0.326,0.684l-0.328,0.684l-0.331,0.683l-0.332,0.681l-0.334,0.68l-0.337,0.679l-0.338,0.678l-0.34,0.676l-0.343,0.676l-0.344,0.674l-0.346,0.673l-0.349,0.672l-0.35,0.671l-0.352,0.67l-0.354,0.668l-0.356,0.667l-0.358,0.666l-0.36,0.665l-0.362,0.663l-0.364,0.663l-0.366,0.661l-0.368,0.66l-0.369,0.659l-0.372,0.657l-0.374,0.656l-0.375,0.655l-0.378,0.654l-0.379,0.652l-0.381,0.652l-0.383,0.65l-0.385,0.648l-0.387,0.648l-0.389,0.646l-0.391,0.645l-0.392,0.644l-0.395,0.642l-0.396,0.641l-0.399,0.64l-0.4,0.639l-0.402,0.637l-0.404,0.636l-0.405,0.635l-0.408,0.633l-0.409,0.632l-0.412,0.631l-0.413,0.629l-0.415,0.628l-0.416,0.627l-0.419,0.626l-0.42,0.624l-0.423,0.623l-0.424,0.621l-0.426,0.62l-0.427,0.619l-0.43,0.617l-0.431,0.617l-0.434,0.614l-0.434,0.614l-0.437,0.612l-0.439,0.61l-0.44,0.61l-0.442,0.607l-0.444,0.607l-0.446,0.605l-0.447,0.604l-0.449,0.602l-0.451,0.601l-0.453,0.6l-0.454,0.598l-0.457,0.597l-0.458,0.595l-0.459,0.594l-0.462,0.593l-0.463,0.591l-0.465,0.589l-0.467,0.589l-0.468,0.586l-0.47,0.586l-0.472,0.584l-0.474,0.582l-0.475,0.581l-0.477,0.58l-0.478,0.578l-0.481,0.577l-0.482,0.575l-0.483,0.574l-0.486,0.572l-0.487,0.571l-0.489,0.569l-0.49,0.568l-0.492,0.566l-0.494,0.565l-0.496,0.563l-0.497,0.562l-0.499,0.561l-0.5,0.558l-0.502,0.558l-0.504,0.556l-0.505,0.554l-0.507,0.553l-0.509,0.551l-0.51,0.55l-0.512,0.548l-0.514,0.547l-0.515,0.545l-0.516,0.543l-0.519,0.542l-0.52,0.541l-0.521,0.539l-0.523,0.537l-0.525,0.536l-0.527,0.534l-0.527,0.533l-0.53,0.531l-0.531,0.53l-0.533,0.527l-0.534,0.527l-0.536,0.525l-0.537,0.523l-0.539,0.521l-0.541,0.52l-0.542,0.519l-0.543,0.516l-0.545,0.515l-0.547,0.514l-0.548,0.512l-0.55,0.51l-0.551,0.509l-0.553,0.507l-0.554,0.505l-0.556,0.504l-0.558,0.502l-0.558,0.5l-0.561,0.499l-0.562,0.497l-0.563,0.496l-0.565,0.494l-0.566,0.492l-0.568,0.49l-0.569,0.489l-0.571,0.487l-0.572,0.486l-0.574,0.483l-0.575,0.482l-0.577,0.481l-0.578,0.478l-0.58,0.477l-0.581,0.475l-0.582,0.474l-0.584,0.472l-0.586,0.47l-0.586,0.468l-0.589,0.467l-0.589,0.465l-0.591,0.463l-0.593,0.462l-0.594,0.459l-0.595,0.458l-0.597,0.457l-0.598,0.454l-0.6,0.453l-0.601,0.451l-0.602,0.449l-0.604,0.447l-0.605,0.446l-0.607,0.444l-0.607,0.442l-0.61,0.44l-0.61,0.439l-0.612,0.437l-0.614,0.434l-0.614,0.434l-0.617,0.431l-0.617,0.43l-0.619,0.427l-0.62,0.426l-0.621,0.424l-0.623,0.423l-0.624,0.42l-0.626,0.419l-0.627,0.416l-0.628,0.415l-0.629,0.413l-0.631,0.412l-0.632,0.409l-0.633,0.408l-0.635,0.405l-0.636,0.404l-0.637,0.402l-0.639,0.4l-0.64,0.399l-0.641,0.396l-0.642,0.395l-0.644,0.392l-0.645,0.391l-0.646,0.389l-0.648,0.387l-0.648,0.385l-0.65,0.383l-0.652,0.381l-0.652,0.379l-0.654,0.378l-0.655,0.375l-0.656,0.374l-0.657,0.372l-0.659,0.369l-0.66,0.368l-0.661,0.366l-0.663,0.364l-0.663,0.362l-0.665,0.36l-0.666,0.358l-0.667,0.356l-0.668,0.354l-0.67,0.352l-0.671,0.35l-0.672,0.349l-0.673,0.346l-0.674,0.344l-0.676,0.343l-0.676,0.34l-0.678,0.338l-0.679,0.337l-0.68,0.334l-0.681,0.332l-0.683,0.331l-0.684,0.328l-0.684,0.326l-0.686,0.324l-0.687,0.323l-0.688,0.32l-0.69,0.318l-0.69,0.316l-0.692,0.314l-0.692,0.313l-0.694,0.31l-0.695,0.308l-0.696,0.306l-0.697,0.303l-0.698,0.302l-0.699,0.3l-0.701,0.298l-0.701,0.295l-0.703,0.294l-0.703,0.291l-0.705,0.29l-0.706,0.287l-0.707,0.285l-0.707,0.283l-0.709,0.282l-0.71,0.278l-0.711,0.277l-0.713,0.275l-0.713,0.273l-0.714,0.27l-0.715,0.268l-0.716,0.267l-0.718,0.264l-0.718,0.262l-0.719,0.259l-0.721,0.258l-0.721,0.256l-0.722,0.253l-0.724,0.251l-0.724,0.249l-0.725,0.247l-0.727,0.245l-0.727,0.243l-0.729,0.24l-0.729,0.238l-0.73,0.236l-0.731,0.234l-0.733,0.232l-0.733,0.23l-0.734,0.227l-0.735,0.225l-0.736,0.223l-0.737,0.221l-0.738,0.218l-0.739,0.216l-0.74,0.214l-0.741,0.212l-0.742,0.21l-0.743,0.207l-0.743,0.205l-0.745,0.203l-0.745,0.201l-0.747,0.199l-0.747,0.196l-0.748,0.194l-0.749,0.191l-0.75,0.19l-0.751,0.187l-0.752,0.185l-0.752,0.182l-0.754,0.181l-0.754,0.178l-0.756,0.176l-0.756,0.173l-0.757,0.171l-0.758,0.169l-0.758,0.167l-0.76,0.164l-0.76,0.162l-0.762,0.16l-0.762,0.157l-0.763,0.155l-0.764,0.153l-0.764,0.15l-0.766,0.148l-0.766,0.146l-0.767,0.144l-0.768,0.141l-0.769,0.138l-0.769,0.137l-0.771,0.134l-0.771,0.131l-0.772,0.13l-0.773,0.127l-0.773,0.124l-0.775,0.122l-0.775,0.12l-0.776,0.118l-0.776,0.115l-0.778,0.112l-0.778,0.111l-0.779,0.108l-0.78,0.105l-0.78,0.103l-0.782,0.101l-0.782,0.098l-0.782,0.096l-0.784,0.093l-0.784,0.091l-0.785,0.089l-0.786,0.086l-0.786,0.084l-0.787,0.081l-0.788,0.079l-0.789,0.077l-0.789,0.073l-0.79,0.072l-0.791,0.069l-0.791,0.067l-0.792,0.064l-0.793,0.061l-0.793,0.06l-0.794,0.056l-0.795,0.055l-0.796,0.051l-0.796,0.05l-0.797,0.046l-0.797,0.045l-0.798,0.041l-0.799,0.04l-0.799,0.036l-0.801,0.035l-0.8,0.032l-0.802,0.029l-0.802,0.026l-0.802,0.025l-0.804,0.021l-0.803,0.019l-0.805,0.017l-0.805,0.014l-0.806,0.012l-0.806,0.008l-0.807,0.007l-0.808,0.004l-0.808,0.001l-0.808,-0.001l-0.808,-0.004l-0.807,-0.007l-0.806,-0.008l-0.806,-0.012l-0.805,-0.014l-0.805,-0.017l-0.803,-0.019l-0.804,-0.021l-0.802,-0.025l-0.802,-0.026l-0.802,-0.029l-0.8,-0.032l-0.801,-0.035l-0.799,-0.036l-0.799,-0.04l-0.798,-0.041l-0.797,-0.045l-0.797,-0.046l-0.796,-0.05l-0.796,-0.051l-0.795,-0.055l-0.794,-0.056l-0.793,-0.06l-0.793,-0.061l-0.792,-0.064l-0.791,-0.067l-0.791,-0.069l-0.79,-0.072l-0.789,-0.073l-0.789,-0.077l-0.788,-0.079l-0.787,-0.081l-0.786,-0.084l-0.786,-0.086l-0.785,-0.089l-0.784,-0.091l-0.784,-0.093l-0.782,-0.096l-0.782,-0.098l-0.782,-0.101l-0.78,-0.103l-0.78,-0.105l-0.779,-0.108l-0.778,-0.111l-0.778,-0.112l-0.776,-0.115l-0.776,-0.118l-0.775,-0.12l-0.775,-0.122l-0.773,-0.124l-0.773,-0.127l-0.772,-0.13l-0.771,-0.131l-0.771,-0.134l-0.769,-0.137l-0.769,-0.138l-0.768,-0.141l-0.767,-0.144l-0.766,-0.146l-0.766,-0.148l-0.764,-0.15l-0.764,-0.153l-0.763,-0.155l-0.762,-0.157l-0.762,-0.16l-0.76,-0.162l-0.76,-0.164l-0.758,-0.167l-0.758,-0.169l-0.757,-0.171l-0.756,-0.173l-0.756,-0.176l-0.754,-0.178l-0.754,-0.181l-0.752,-0.182l-0.752,-0.185l-0.751,-0.187l-0.75,-0.19l-0.749,-0.191l-0.748,-0.194l-0.747,-0.196l-0.747,-0.199l-0.745,-0.201l-0.745,-0.203l-0.743,-0.205l-0.743,-0.207l-0.742,-0.21l-0.741,-0.212l-0.74,-0.214l-0.739,-0.216l-0.738,-0.218l-0.737,-0.221l-0.736,-0.223l-0.735,-0.225l-0.734,-0.227l-0.733,-0.23l-0.733,-0.232l-0.731,-0.234l-0.73,-0.236l-0.729,-0.238l-0.729,-0.24l-0.727,-0.243l-0.727,-0.245l-0.725,-0.247l-0.724,-0.249l-0.724,-0.251l-0.722,-0.253l-0.721,-0.256l-0.721,-0.258l-0.719,-0.259l-0.718,-0.262l-0.718,-0.264l-0.716,-0.267l-0.715,-0.268l-0.714,-0.27l-0.713,-0.273l-0.713,-0.275l-0.711,-0.277l-0.71,-0.278l-0.709,-0.282l-0.707,-0.283l-0.707,-0.285l-0.706,-0.287l-0.705,-0.29l-0.703,-0.291l-0.703,-0.294l-0.701,-0.295l-0.701,-0.298l-0.699,-0.3l-0.698,-0.302l-0.697,-0.303l-0.696,-0.306l-0.695,-0.308l-0.694,-0.31l-0.692,-0.313l-0.692,-0.314l-0.69,-0.316l-0.69,-0.318l-0.688,-0.32l-0.687,-0.323l-0.686,-0.324l-0.684,-0.326l-0.684,-0.328l-0.683,-0.331l-0.681,-0.332l-0.68,-0.334l-0.679,-0.337l-0.678,-0.338l-0.676,-0.34l-0.676,-0.343l-0.674,-0.344l-0.673,-0.346l-0.672,-0.349l-0.671,-0.35l-0.67,-0.352l-0.668,-0.354l-0.667,-0.356l-0.666,-0.358l-0.665,-0.36l-0.663,-0.362l-0.663,-0.364l-0.661,-0.366l-0.66,-0.368l-0.659,-0.369l-0.657,-0.372l-0.656,-0.374l-0.655,-0.375l-0.654,-0.378l-0.652,-0.379l-0.652,-0.381l-0.65,-0.383l-0.648,-0.385l-0.648,-0.387l-0.646,-0.389l-0.645,-0.391l-0.644,-0.392l-0.642,-0.395l-0.641,-0.396l-0.64,-0.399l-0.639,-0.4l-0.637,-0.402l-0.636,-0.404l-0.635,-0.405l-0.633,-0.408l-0.632,-0.409l-0.631,-0.412l-0.629,-0.413l-0.628,-0.415l-0.627,-0.416l-0.626,-0.419l-0.624,-0.42l-0.623,-0.423l-0.621,-0.424l-0.62,-0.426l-0.619,-0.427l-0.617,-0.43l-0.617,-0.431l-0.614,-0.434l-0.614,-0.434l-0.612,-0.437l-0.61,-0.439l-0.61,-0.44l-0.607,-0.442l-0.607,-0.444l-0.605,-0.446l-0.604,-0.447l-0.602,-0.449l-0.601,-0.451l-0.6,-0.453l-0.598,-0.454l-0.597,-0.457l-0.595,-0.458l-0.594,-0.459l-0.593,-0.462l-0.591,-0.463l-0.589,-0.465l-0.589,-0.467l-0.586,-0.468l-0.586,-0.47l-0.584,-0.472l-0.582,-0.474l-0.581,-0.475l-0.58,-0.477l-0.578,-0.478l-0.577,-0.481l-0.575,-0.482l-0.574,-0.483l-0.572,-0.486l-0.571,-0.487l-0.569,-0.489l-0.568,-0.49l-0.566,-0.492l-0.565,-0.494l-0.563,-0.496l-0.562,-0.497l-0.561,-0.499l-0.558,-0.5l-0.558,-0.502l-0.556,-0.504l-0.554,-0.505l-0.553,-0.507l-0.551,-0.509l-0.55,-0.51l-0.548,-0.512l-0.547,-0.514l-0.545,-0.515l-0.543,-0.516l-0.542,-0.519l-0.541,-0.52l-0.539,-0.521l-0.537,-0.523l-0.536,-0.525l-0.534,-0.527l-0.533,-0.527l-0.531,-0.53l-0.53,-0.531l-0.527,-0.533l-0.527,-0.534l-0.525,-0.536l-0.523,-0.537l-0.521,-0.539l-0.52,-0.541l-0.519,-0.542l-0.516,-0.543l-0.515,-0.545l-0.514,-0.547l-0.512,-0.548l-0.51,-0.55l-0.509,-0.551l-0.507,-0.553l-0.505,-0.554l-0.504,-0.556l-0.502,-0.558l-0.5,-0.558l-0.499,-0.561l-0.497,-0.562l-0.496,-0.563l-0.494,-0.565l-0.492,-0.566l-0.49,-0.568l-0.489,-0.569l-0.487,-0.571l-0.486,-0.572l-0.483,-0.574l-0.482,-0.575l-0.481,-0.577l-0.478,-0.578l-0.477,-0.58l-0.475,-0.581l-0.474,-0.582l-0.472,-0.584l-0.47,-0.586l-0.468,-0.586l-0.467,-0.589l-0.465,-0.589l-0.463,-0.591l-0.462,-0.593l-0.459,-0.594l-0.458,-0.595l-0.457,-0.597l-0.454,-0.598l-0.453,-0.6l-0.451,-0.601l-0.449,-0.602l-0.447,-0.604l-0.446,-0.605l-0.444,-0.607l-0.442,-0.607l-0.44,-0.61l-0.439,-0.61l-0.437,-0.612l-0.434,-0.614l-0.434,-0.614l-0.431,-0.617l-0.43,-0.617l-0.427,-0.619l-0.426,-0.62l-0.424,-0.621l-0.423,-0.623l-0.42,-0.624l-0.419,-0.626l-0.416,-0.627l-0.415,-0.628l-0.413,-0.629l-0.412,-0.631l-0.409,-0.632l-0.408,-0.633l-0.405,-0.635l-0.404,-0.636l-0.402,-0.637l-0.4,-0.639l-0.399,-0.64l-0.396,-0.641l-0.395,-0.642l-0.392,-0.644l-0.391,-0.645l-0.389,-0.646l-0.387,-0.648l-0.385,-0.648l-0.383,-0.65l-0.381,-0.652l-0.379,-0.652l-0.378,-0.654l-0.375,-0.655l-0.374,-0.656l-0.372,-0.657l-0.369,-0.659l-0.368,-0.66l-0.366,-0.661l-0.364,-0.663l-0.362,-0.663l-0.36,-0.665l-0.358,-0.666l-0.356,-0.667l-0.354,-0.668l-0.352,-0.67l-0.35,-0.671l-0.349,-0.672l-0.346,-0.673l-0.344,-0.674l-0.343,-0.676l-0.34,-0.676l-0.338,-0.678l-0.337,-0.679l-0.334,-0.68l-0.332,-0.681l-0.331,-0.683l-0.328,-0.684l-0.326,-0.684l-0.324,-0.686l-0.323,-0.687l-0.32,-0.688l-0.318,-0.69l-0.316,-0.69l-0.314,-0.692l-0.313,-0.692l-0.31,-0.694l-0.308,-0.695l-0.306,-0.696l-0.303,-0.697l-0.302,-0.698l-0.3,-0.699l-0.298,-0.701l-0.295,-0.701l-0.294,-0.703l-0.291,-0.703l-0.29,-0.705l-0.287,-0.706l-0.285,-0.707l-0.283,-0.707l-0.282,-0.709l-0.278,-0.71l-0.277,-0.711l-0.275,-0.713l-0.273,-0.713l-0.27,-0.714l-0.268,-0.715l-0.267,-0.716l-0.264,-0.718l-0.262,-0.718l-0.259,-0.719l-0.258,-0.721l-0.256,-0.721l-0.253,-0.722l-0.251,-0.724l-0.249,-0.724l-0.247,-0.725l-0.245,-0.727l-0.243,-0.727l-0.24,-0.729l-0.238,-0.729l-0.236,-0.73l-0.234,-0.731l-0.232,-0.733l-0.23,-0.733l-0.227,-0.734l-0.225,-0.735l-0.223,-0.736l-0.221,-0.737l-0.218,-0.738l-0.216,-0.739l-0.214,-0.74l-0.212,-0.741l-0.21,-0.742l-0.207,-0.743l-0.205,-0.743l-0.203,-0.745l-0.201,-0.745l-0.199,-0.747l-0.196,-0.747l-0.194,-0.748l-0.191,-0.749l-0.19,-0.75l-0.187,-0.751l-0.185,-0.752l-0.182,-0.752l-0.181,-0.754l-0.178,-0.754l-0.176,-0.756l-0.173,-0.756l-0.171,-0.757l-0.169,-0.758l-0.167,-0.758l-0.164,-0.76l-0.162,-0.76l-0.16,-0.762l-0.157,-0.762l-0.155,-0.763l-0.153,-0.764l-0.15,-0.764l-0.148,-0.766l-0.146,-0.766l-0.144,-0.767l-0.141,-0.768l-0.138,-0.769l-0.137,-0.769l-0.134,-0.771l-0.131,-0.771l-0.13,-0.772l-0.127,-0.773l-0.124,-0.773l-0.122,-0.775l-0.12,-0.775l-0.118,-0.776l-0.115,-0.776l-0.112,-0.778l-0.111,-0.778l-0.108,-0.779l-0.105,-0.78l-0.103,-0.78l-0.101,-0.782l-0.098,-0.782l-0.096,-0.782l-0.093,-0.784l-0.091,-0.784l-0.089,-0.785l-0.086,-0.786l-0.084,-0.786l-0.081,-0.787l-0.079,-0.788l-0.077,-0.789l-0.073,-0.789l-0.072,-0.79l-0.069,-0.791l-0.067,-0.791l-0.064,-0.792l-0.061,-0.793l-0.06,-0.793l-0.056,-0.794l-0.055,-0.795l-0.051,-0.796l-0.05,-0.796l-0.046,-0.797l-0.045,-0.797l-0.041,-0.798l-0.04,-0.799l-0.036,-0.799l-0.035,-0.801l-0.032,-0.8l-0.029,-0.802l-0.026,-0.802l-0.025,-0.802l-0.021,-0.804l-0.019,-0.803l-0.017,-0.805l-0.014,-0.805l-0.012,-0.806l-0.008,-0.806l-0.007,-0.807l-0.004,-0.808l-0.001,-0.808l0.001,-0.808l0.004,-0.808l0.007,-0.807l0.008,-0.806l0.012,-0.806l0.014,-0.805l0.017,-0.805l0.019,-0.803l0.021,-0.804l0.025,-0.802l0.026,-0.802l0.029,-0.802l0.032,-0.8l0.035,-0.801l0.036,-0.799l0.04,-0.799l0.041,-0.798l0.045,-0.797l0.046,-0.797l0.05,-0.796l0.051,-0.796l0.055,-0.795l0.056,-0.794l0.06,-0.793l0.061,-0.793l0.064,-0.792l0.067,-0.791l0.069,-0.791l0.072,-0.79l0.073,-0.789l0.077,-0.789l0.079,-0.788l0.081,-0.787l0.084,-0.786l0.086,-0.786l0.089,-0.785l0.091,-0.784l0.093,-0.784l0.096,-0.782l0.098,-0.782l0.101,-0.782l0.103,-0.78l0.105,-0.78l0.108,-0.779l0.111,-0.778l0.112,-0.778l0.115,-0.776l0.118,-0.776l0.12,-0.775l0.122,-0.775l0.124,-0.773l0.127,-0.773l0.13,-0.772l0.131,-0.771l0.134,-0.771l0.137,-0.769l0.138,-0.769l0.141,-0.768l0.144,-0.767l0.146,-0.766l0.148,-0.766l0.15,-0.764l0.153,-0.764l0.155,-0.763l0.157,-0.762l0.16,-0.762l0.162,-0.76l0.164,-0.76l0.167,-0.758l0.169,-0.758l0.171,-0.757l0.173,-0.756l0.176,-0.756l0.178,-0.754l0.181,-0.754l0.182,-0.752l0.185,-0.752l0.187,-0.751l0.19,-0.75l0.191,-0.749l0.194,-0.748l0.196,-0.747l0.199,-0.747l0.201,-0.745l0.203,-0.745l0.205,-0.743l0.207,-0.743l0.21,-0.742l0.212,-0.741l0.214,-0.74l0.216,-0.739l0.218,-0.738l0.221,-0.737l0.223,-0.736l0.225,-0.735l0.227,-0.734l0.23,-0.733l0.232,-0.733l0.234,-0.731l0.236,-0.73l0.238,-0.729l0.24,-0.729l0.243,-0.727l0.245,-0.727l0.247,-0.725l0.249,-0.724l0.251,-0.724l0.253,-0.722l0.256,-0.721l0.258,-0.721l0.259,-0.719l0.262,-0.718l0.264,-0.718l0.267,-0.716l0.268,-0.715l0.27,-0.714l0.273,-0.713l0.275,-0.713l0.277,-0.711l0.278,-0.71l0.282,-0.709l0.283,-0.707l0.285,-0.707l0.287,-0.706l0.29,-0.705l0.291,-0.703l0.294,-0.703l0.295,-0.701l0.298,-0.701l0.3,-0.699l0.302,-0.698l0.303,-0.697l0.306,-0.696l0.308,-0.695l0.31,-0.694l0.313,-0.692l0.314,-0.692l0.316,-0.69l0.318,-0.69l0.32,-0.688l0.323,-0.687l0.324,-0.686l0.326,-0.684l0.328,-0.684l0.331,-0.683l0.332,-0.681l0.334,-0.68l0.337,-0.679l0.338,-0.678l0.34,-0.676l0.343,-0.676l0.344,-0.674l0.346,-0.673l0.349,-0.672l0.35,-0.671l0.352,-0.67l0.354,-0.668l0.356,-0.667l0.358,-0.666l0.36,-0.665l0.362,-0.663l0.364,-0.663l0.366,-0.661l0.368,-0.66l0.369,-0.659l0.372,-0.657l0.374,-0.656l0.375,-0.655l0.378,-0.654l0.379,-0.652l0.381,-0.652l0.383,-0.65l0.385,-0.648l0.387,-0.648l0.389,-0.646l0.391,-0.645l0.392,-0.644l0.395,-0.642l0.396,-0.641l0.399,-0.64l0.4,-0.639l0.402,-0.637l0.404,-0.636l0.405,-0.635l0.408,-0.633l0.409,-0.632l0.412,-0.631l0.413,-0.629l0.415,-0.628l0.416,-0.627l0.419,-0.626l0.42,-0.624l0.423,-0.623l0.424,-0.621l0.426,-0.62l0.427,-0.619l0.43,-0.617l0.431,-0.617l0.434,-0.614l0.434,-0.614l0.437,-0.612l0.439,-0.61l0.44,-0.61l0.442,-0.607l0.444,-0.607l0.446,-0.605l0.447,-0.604l0.449,-0.602l0.451,-0.601l0.453,-0.6l0.454,-0.598l0.457,-0.597l0.458,-0.595l0.459,-0.594l0.462,-0.593l0.463,-0.591l0.465,-0.589l0.467,-0.589l0.468,-0.586l0.47,-0.586l0.472,-0.584l0.474,-0.582l0.475,-0.581l0.477,-0.58l0.478,-0.578l0.481,-0.577l0.482,-0.575l0.483,-0.574l0.486,-0.572l0.487,-0.571l0.489,-0.569l0.49,-0.568l0.492,-0.566l0.494,-0.565l0.496,-0.563l0.497,-0.562l0.499,-0.561l0.5,-0.558l0.502,-0.558l0.504,-0.556l0.505,-0.554l0.507,-0.553l0.509,-0.551l0.51,-0.55l0.512,-0.548l0.514,-0.547l0.515,-0.545l0.516,-0.543l0.519,-0.542l0.52,-0.541l0.521,-0.539l0.523,-0.537l0.525,-0.536l0.527,-0.534l0.527,-0.533l0.53,-0.531l0.531,-0.53l0.533,-0.527l0.534,-0.527l0.536,-0.525l0.537,-0.523l0.539,-0.521l0.541,-0.52l0.542,-0.519l0.543,-0.516l0.545,-0.515l0.547,-0.514l0.548,-0.512l0.55,-0.51l0.551,-0.509l0.553,-0.507l0.554,-0.505l0.556,-0.504l0.558,-0.502l0.558,-0.5l0.561,-0.499l0.562,-0.497l0.563,-0.496l0.565,-0.494l0.566,-0.492l0.568,-0.49l0.569,-0.489l0.571,-0.487l0.572,-0.486l0.574,-0.483l0.575,-0.482l0.577,-0.481l0.578,-0.478l0.58,-0.477l0.581,-0.475l0.582,-0.474l0.584,-0.472l0.586,-0.47l0.586,-0.468l0.589,-0.467l0.589,-0.465l0.591,-0.463l0.593,-0.462l0.594,-0.459l0.595,-0.458l0.597,-0.457l0.598,-0.454l0.6,-0.453l0.601,-0.451l0.602,-0.449l0.604,-0.447l0.605,-0.446l0.607,-0.444l0.607,-0.442l0.61,-0.44l0.61,-0.439l0.612,-0.437l0.614,-0.434l0.614,-0.434l0.617,-0.431l0.617,-0.43l0.619,-0.427l0.62,-0.426l0.621,-0.424l0.623,-0.423l0.624,-0.42l0.626,-0.419l0.627,-0.416l0.628,-0.415l0.629,-0.413l0.631,-0.412l0.632,-0.409l0.633,-0.408l0.635,-0.405l0.636,-0.404l0.637,-0.402l0.639,-0.4l0.64,-0.399l0.641,-0.396l0.642,-0.395l0.644,-0.392l0.645,-0.391l0.646,-0.389l0.648,-0.387l0.648,-0.385l0.65,-0.383l0.652,-0.381l0.652,-0.379l0.654,-0.378l0.655,-0.375l0.656,-0.374l0.657,-0.372l0.659,-0.369l0.66,-0.368l0.661,-0.366l0.663,-0.364l0.663,-0.362l0.665,-0.36l0.666,-0.358l0.667,-0.356l0.668,-0.354l0.67,-0.352l0.671,-0.35l0.672,-0.349l0.673,-0.346l0.674,-0.344l0.676,-0.343l0.676,-0.34l0.678,-0.338l0.679,-0.337l0.68,-0.334l0.681,-0.332l0.683,-0.331l0.684,-0.328l0.684,-0.326l0.686,-0.324l0.687,-0.323l0.688,-0.32l0.69,-0.318l0.69,-0.316l0.692,-0.314l0.692,-0.313l0.694,-0.31l0.695,-0.308l0.696,-0.306l0.697,-0.303l0.698,-0.302l0.699,-0.3l0.701,-0.298l0.701,-0.295l0.703,-0.294l0.703,-0.291l0.705,-0.29l0.706,-0.287l0.707,-0.285l0.707,-0.283l0.709,-0.282l0.71,-0.278l0.711,-0.277l0.713,-0.275l0.713,-0.273l0.714,-0.27l0.715,-0.268l0.716,-0.267l0.718,-0.264l0.718,-0.262l0.719,-0.259l0.721,-0.258l0.721,-0.256l0.722,-0.253l0.724,-0.251l0.724,-0.249l0.725,-0.247l0.727,-0.245l0.727,-0.243l0.729,-0.24l0.729,-0.238l0.73,-0.236l0.731,-0.234l0.733,-0.232l0.733,-0.23l0.734,-0.227l0.735,-0.225l0.736,-0.223l0.737,-0.221l0.738,-0.218l0.739,-0.216l0.74,-0.214l0.741,-0.212l0.742,-0.21l0.743,-0.207l0.743,-0.205l0.745,-0.203l0.745,-0.201l0.747,-0.199l0.747,-0.196l0.748,-0.194l0.749,-0.191l0.75,-0.19l0.751,-0.187l0.752,-0.185l0.752,-0.182l0.754,-0.181l0.754,-0.178l0.756,-0.176l0.756,-0.173l0.757,-0.171l0.758,-0.169l0.758,-0.167l0.76,-0.164l0.76,-0.162l0.762,-0.16l0.762,-0.157l0.763,-0.155l0.764,-0.153l0.764,-0.15l0.766,-0.148l0.766,-0.146l0.767,-0.144l0.768,-0.141l0.769,-0.138l0.769,-0.137l0.771,-0.134l0.771,-0.131l0.772,-0.13l0.773,-0.127l0.773,-0.124l0.775,-0.122l0.775,-0.12l0.776,-0.118l0.776,-0.115l0.778,-0.112l0.778,-0.111l0.779,-0.108l0.78,-0.105l0.78,-0.103l0.782,-0.101l0.782,-0.098l0.782,-0.096l0.784,-0.093l0.784,-0.091l0.785,-0.089l0.786,-0.086l0.786,-0.084l0.787,-0.081l0.788,-0.079l0.789,-0.077l0.789,-0.073l0.79,-0.072l0.791,-0.069l0.791,-0.067l0.792,-0.064l0.793,-0.061l0.793,-0.06l0.794,-0.056l0.795,-0.055l0.796,-0.051l0.796,-0.05l0.797,-0.046l0.797,-0.045l0.798,-0.041l0.799,-0.04l0.799,-0.036l0.801,-0.035l0.8,-0.032l0.802,-0.029l0.802,-0.026l0.802,-0.025l0.804,-0.021l0.803,-0.019l0.805,-0.017l0.805,-0.014l0.806,-0.012l0.806,-0.008l0.807,-0.007l0.808,-0.004l0.808,-0.001l0.808,0.001Zm-1.459,50l-0.649,0.003l-0.646,0.005l-0.649,0.008l-0.648,0.009l-0.645,0.011l-0.647,0.013l-0.646,0.016l-0.644,0.017l-0.644,0.019l-0.643,0.022l-0.644,0.023l-0.644,0.026l-0.64,0.027l-0.639,0.03l-0.643,0.031l-0.64,0.034l-0.639,0.035l-0.64,0.038l-0.637,0.039l-0.637,0.042l-0.637,0.043l-0.637,0.046l-0.636,0.047l-0.635,0.05l-0.634,0.051l-0.635,0.053l-0.632,0.055l-0.633,0.058l-0.633,0.059l-0.63,0.061l-0.63,0.063l-0.63,0.065l-0.63,0.067l-0.628,0.069l-0.628,0.071l-0.628,0.073l-0.628,0.075l-0.624,0.076l-0.626,0.079l-0.627,0.081l-0.622,0.082l-0.625,0.085l-0.623,0.086l-0.621,0.088l-0.621,0.09l-0.62,0.092l-0.623,0.094l-0.62,0.096l-0.618,0.097l-0.618,0.1l-0.617,0.101l-0.616,0.103l-0.617,0.106l-0.617,0.107l-0.615,0.109l-0.613,0.111l-0.614,0.112l-0.612,0.115l-0.613,0.116l-0.613,0.119l-0.61,0.12l-0.609,0.122l-0.61,0.124l-0.608,0.125l-0.608,0.128l-0.608,0.129l-0.609,0.132l-0.603,0.133l-0.606,0.135l-0.605,0.136l-0.602,0.139l-0.605,0.14l-0.601,0.142l-0.601,0.144l-0.602,0.146l-0.602,0.148l-0.598,0.149l-0.598,0.151l-0.599,0.153l-0.596,0.155l-0.597,0.157l-0.598,0.159l-0.595,0.16l-0.592,0.161l-0.593,0.164l-0.594,0.166l-0.594,0.168l-0.59,0.168l-0.59,0.171l-0.592,0.173l-0.588,0.174l-0.587,0.176l-0.589,0.179l-0.587,0.179l-0.586,0.182l-0.585,0.183l-0.584,0.184l-0.585,0.188l-0.584,0.188l-0.58,0.19l-0.581,0.192l-0.583,0.194l-0.58,0.196l-0.577,0.196l-0.58,0.199l-0.578,0.201l-0.574,0.201l-0.578,0.205l-0.575,0.206l-0.571,0.206l-0.576,0.21l-0.576,0.212l-0.572,0.213l-0.568,0.213l-0.569,0.216l-0.572,0.218l-0.568,0.219l-0.569,0.222l-0.566,0.222l-0.565,0.224l-0.567,0.227l-0.565,0.228l-0.562,0.229l-0.562,0.231l-0.565,0.234l-0.561,0.234l-0.56,0.236l-0.557,0.237l-0.557,0.238l-0.561,0.243l-0.556,0.243l-0.557,0.244l-0.556,0.247l-0.551,0.246l-0.557,0.251l-0.553,0.251l-0.548,0.251l-0.551,0.255l-0.552,0.256l-0.547,0.257l-0.549,0.26l-0.549,0.261l-0.544,0.261l-0.546,0.265l-0.546,0.266l-0.543,0.267l-0.542,0.268l-0.542,0.271l-0.543,0.273l-0.536,0.271l-0.54,0.277l-0.541,0.277l-0.532,0.276l-0.539,0.282l-0.539,0.283l-0.529,0.281l-0.533,0.284l-0.536,0.288l-0.531,0.288l-0.532,0.29l-0.529,0.291l-0.528,0.292l-0.527,0.293l-0.527,0.296l-0.528,0.299l-0.522,0.297l-0.522,0.3l-0.527,0.304l-0.52,0.302l-0.523,0.306l-0.52,0.307l-0.517,0.306l-0.519,0.311l-0.517,0.311l-0.516,0.312l-0.514,0.313l-0.517,0.318l-0.51,0.316l-0.513,0.319l-0.513,0.321l-0.507,0.32l-0.512,0.325l-0.506,0.324l-0.506,0.325l-0.505,0.328l-0.507,0.33l-0.504,0.331l-0.502,0.332l-0.504,0.334l-0.498,0.334l-0.499,0.336l-0.502,0.34l-0.497,0.339l-0.495,0.341l-0.498,0.344l-0.491,0.341l-0.492,0.345l-0.497,0.35l-0.488,0.346l-0.49,0.35l-0.491,0.352l-0.485,0.351l-0.491,0.357l-0.483,0.353l-0.483,0.356l-0.485,0.36l-0.484,0.36l-0.483,0.363l-0.477,0.36l-0.478,0.363l-0.481,0.368l-0.479,0.368l-0.473,0.367l-0.473,0.368l-0.474,0.371l-0.474,0.374l-0.47,0.373l-0.47,0.375l-0.471,0.378l-0.464,0.375l-0.466,0.379l-0.469,0.383l-0.465,0.383l-0.466,0.386l-0.462,0.385l-0.456,0.382l-0.46,0.388l-0.46,0.39l-0.457,0.39l-0.453,0.389l-0.455,0.393l-0.459,0.399l-0.45,0.393l-0.453,0.399l-0.451,0.398l-0.446,0.398l-0.45,0.402l-0.448,0.404l-0.443,0.401l-0.445,0.407l-0.445,0.407l-0.436,0.403l-0.443,0.411l-0.442,0.413l-0.437,0.41l-0.435,0.411l-0.434,0.413l-0.437,0.418l-0.437,0.42l-0.43,0.417l-0.431,0.418l-0.429,0.421l-0.426,0.42l-0.428,0.423l-0.425,0.424l-0.424,0.425l-0.423,0.428l-0.427,0.433l-0.416,0.424l-0.418,0.431l-0.42,0.433l-0.417,0.434l-0.416,0.435l-0.412,0.433l-0.417,0.441l-0.408,0.435l-0.408,0.436l-0.414,0.447l-0.405,0.439l-0.404,0.44l-0.412,0.452l-0.401,0.442l-0.4,0.444l-0.403,0.451l-0.397,0.446l-0.401,0.453l-0.396,0.45l-0.394,0.451l-0.398,0.458l-0.391,0.453l-0.391,0.454l-0.393,0.462l-0.389,0.458l-0.382,0.453l-0.39,0.465l-0.385,0.463l-0.383,0.462l-0.386,0.469l-0.377,0.461l-0.379,0.466l-0.378,0.469l-0.377,0.469l-0.375,0.47l-0.375,0.473l-0.374,0.474l-0.368,0.469l-0.37,0.476l-0.369,0.476l-0.368,0.479l-0.364,0.476l-0.365,0.48l-0.364,0.482l-0.359,0.479l-0.358,0.479l-0.36,0.486l-0.359,0.488l-0.354,0.483l-0.353,0.485l-0.354,0.491l-0.35,0.487l-0.349,0.489l-0.35,0.494l-0.347,0.492l-0.344,0.492l-0.343,0.493l-0.346,0.5l-0.341,0.497l-0.338,0.496l-0.338,0.498l-0.334,0.495l-0.338,0.506l-0.334,0.501l-0.329,0.498l-0.334,0.51l-0.33,0.506l-0.325,0.501l-0.326,0.507l-0.326,0.51l-0.325,0.511l-0.321,0.51l-0.318,0.508l-0.321,0.515l-0.315,0.509l-0.317,0.516l-0.315,0.518l-0.311,0.512l-0.313,0.521l-0.308,0.515l-0.306,0.516l-0.309,0.524l-0.304,0.519l-0.302,0.52l-0.304,0.527l-0.3,0.522l-0.301,0.529l-0.297,0.525l-0.292,0.52l-0.296,0.532l-0.292,0.528l-0.291,0.529l-0.293,0.537l-0.284,0.525l-0.286,0.532l-0.286,0.535l-0.283,0.534l-0.282,0.537l-0.281,0.537l-0.278,0.538l-0.274,0.532l-0.276,0.541l-0.275,0.542l-0.273,0.543l-0.271,0.544l-0.267,0.538l-0.265,0.54l-0.268,0.548l-0.265,0.548l-0.264,0.549l-0.259,0.544l-0.258,0.545l-0.259,0.553l-0.255,0.547l-0.253,0.549l-0.254,0.555l-0.25,0.551l-0.249,0.553l-0.25,0.558l-0.245,0.554l-0.244,0.555l-0.243,0.556l-0.241,0.557l-0.239,0.558l-0.238,0.559l-0.238,0.567l-0.235,0.561l-0.23,0.555l-0.231,0.564l-0.231,0.565l-0.228,0.565l-0.226,0.566l-0.222,0.561l-0.224,0.569l-0.222,0.57l-0.22,0.571l-0.218,0.571l-0.215,0.566l-0.212,0.567l-0.214,0.575l-0.212,0.576l-0.208,0.57l-0.209,0.578l-0.207,0.579l-0.2,0.565l-0.204,0.582l-0.202,0.582l-0.196,0.569l-0.199,0.584l-0.195,0.578l-0.193,0.58l-0.194,0.586l-0.189,0.582l-0.189,0.582l-0.186,0.583l-0.185,0.584l-0.183,0.585l-0.182,0.586l-0.179,0.587l-0.178,0.588l-0.177,0.589l-0.174,0.59l-0.173,0.591l-0.172,0.592l-0.167,0.586l-0.168,0.594l-0.166,0.595l-0.163,0.589l-0.162,0.596l-0.161,0.598l-0.159,0.599l-0.156,0.592l-0.154,0.594l-0.154,0.602l-0.15,0.595l-0.15,0.604l-0.149,0.604l-0.144,0.591l-0.145,0.607l-0.143,0.607l-0.138,0.594l-0.14,0.609l-0.137,0.603l-0.134,0.603l-0.134,0.613l-0.13,0.598l-0.129,0.607l-0.129,0.615l-0.126,0.608l-0.123,0.609l-0.123,0.611l-0.118,0.604l-0.119,0.612l-0.118,0.621l-0.113,0.607l-0.113,0.614l-0.111,0.616l-0.108,0.61l-0.109,0.625l-0.105,0.611l-0.102,0.612l-0.102,0.62l-0.1,0.622l-0.098,0.622l-0.095,0.616l-0.094,0.616l-0.092,0.625l-0.09,0.619l-0.087,0.619l-0.087,0.628l-0.085,0.628l-0.083,0.622l-0.08,0.623l-0.078,0.623l-0.077,0.625l-0.075,0.633l-0.073,0.626l-0.071,0.628l-0.069,0.628l-0.067,0.629l-0.065,0.63l-0.063,0.63l-0.061,0.632l-0.059,0.625l-0.057,0.633l-0.056,0.642l-0.053,0.635l-0.051,0.628l-0.05,0.637l-0.047,0.638l-0.045,0.631l-0.044,0.639l-0.042,0.64l-0.039,0.642l-0.038,0.634l-0.035,0.635l-0.034,0.644l-0.031,0.644l-0.03,0.638l-0.027,0.639l-0.026,0.647l-0.023,0.64l-0.021,0.641l-0.02,0.65l-0.017,0.643l-0.016,0.643l-0.013,0.652l-0.011,0.646l-0.009,0.638l-0.008,0.655l-0.005,0.648l-0.003,0.648l-0.001,0.65l0.001,0.65l0.003,0.648l0.005,0.648l0.008,0.655l0.009,0.638l0.011,0.646l0.013,0.652l0.016,0.643l0.017,0.643l0.02,0.65l0.021,0.641l0.023,0.64l0.026,0.647l0.027,0.639l0.03,0.638l0.031,0.644l0.034,0.644l0.035,0.635l0.038,0.634l0.039,0.642l0.042,0.64l0.044,0.639l0.045,0.631l0.047,0.638l0.05,0.637l0.051,0.628l0.053,0.635l0.056,0.642l0.057,0.633l0.059,0.625l0.061,0.632l0.063,0.63l0.065,0.63l0.067,0.629l0.069,0.628l0.071,0.627l0.073,0.627l0.075,0.633l0.077,0.624l0.078,0.624l0.08,0.623l0.083,0.622l0.085,0.628l0.087,0.628l0.087,0.619l0.09,0.619l0.092,0.625l0.094,0.616l0.095,0.616l0.098,0.622l0.1,0.622l0.102,0.62l0.102,0.612l0.105,0.611l0.109,0.625l0.108,0.61l0.111,0.616l0.113,0.614l0.113,0.607l0.118,0.621l0.119,0.612l0.118,0.604l0.123,0.611l0.123,0.609l0.126,0.608l0.129,0.615l0.129,0.607l0.13,0.598l0.134,0.613l0.134,0.603l0.137,0.603l0.14,0.609l0.138,0.594l0.143,0.607l0.145,0.607l0.144,0.591l0.149,0.604l0.15,0.604l0.15,0.595l0.154,0.603l0.154,0.593l0.156,0.592l0.159,0.599l0.161,0.598l0.162,0.596l0.163,0.589l0.166,0.595l0.168,0.594l0.167,0.586l0.172,0.592l0.173,0.591l0.174,0.59l0.177,0.589l0.178,0.588l0.179,0.587l0.182,0.586l0.183,0.585l0.185,0.584l0.186,0.583l0.189,0.582l0.189,0.582l0.194,0.586l0.193,0.58l0.195,0.578l0.199,0.584l0.196,0.569l0.202,0.582l0.204,0.581l0.2,0.566l0.207,0.579l0.209,0.578l0.208,0.57l0.212,0.576l0.214,0.575l0.212,0.567l0.215,0.566l0.218,0.571l0.22,0.571l0.222,0.57l0.224,0.569l0.222,0.561l0.226,0.566l0.228,0.565l0.231,0.565l0.231,0.564l0.23,0.555l0.235,0.561l0.238,0.567l0.238,0.559l0.239,0.558l0.241,0.557l0.243,0.556l0.244,0.555l0.245,0.554l0.25,0.559l0.248,0.552l0.251,0.551l0.254,0.555l0.253,0.549l0.255,0.548l0.259,0.551l0.258,0.546l0.26,0.545l0.264,0.549l0.265,0.548l0.267,0.547l0.265,0.54l0.266,0.537l0.272,0.545l0.273,0.543l0.274,0.541l0.276,0.541l0.275,0.533l0.279,0.539l0.28,0.537l0.282,0.535l0.284,0.536l0.284,0.533l0.286,0.532l0.285,0.526l0.293,0.537l0.291,0.529l0.292,0.528l0.297,0.533l0.291,0.519l0.296,0.524l0.302,0.529l0.3,0.523l0.304,0.528l0.303,0.521l0.303,0.517l0.308,0.523l0.306,0.516l0.309,0.516l0.313,0.52l0.311,0.514l0.316,0.518l0.316,0.514l0.316,0.511l0.32,0.515l0.316,0.505l0.323,0.512l0.325,0.511l0.326,0.509l0.327,0.509l0.324,0.5l0.329,0.505l0.335,0.511l0.33,0.499l0.333,0.501l0.339,0.506l0.332,0.493l0.338,0.498l0.339,0.497l0.341,0.496l0.347,0.502l0.343,0.494l0.343,0.49l0.345,0.49l0.352,0.495l0.349,0.489l0.35,0.488l0.356,0.493l0.35,0.482l0.354,0.482l0.36,0.489l0.361,0.488l0.357,0.479l0.359,0.478l0.364,0.482l0.366,0.481l0.363,0.475l0.366,0.477l0.37,0.477l0.373,0.479l0.366,0.468l0.373,0.472l0.375,0.473l0.377,0.472l0.376,0.468l0.377,0.468l0.381,0.468l0.376,0.46l0.386,0.469l0.383,0.462l0.385,0.462l0.389,0.465l0.385,0.456l0.388,0.458l0.391,0.458l0.391,0.455l0.394,0.456l0.396,0.456l0.393,0.45l0.397,0.451l0.4,0.452l0.399,0.448l0.402,0.45l0.4,0.444l0.403,0.444l0.409,0.449l0.404,0.44l0.407,0.441l0.414,0.447l0.406,0.434l0.409,0.436l0.418,0.442l0.41,0.431l0.417,0.436l0.418,0.435l0.418,0.431l0.418,0.431l0.418,0.426l0.426,0.432l0.422,0.426l0.426,0.428l0.425,0.424l0.425,0.42l0.427,0.421l0.431,0.423l0.431,0.418l0.429,0.416l0.435,0.418l0.44,0.421l0.435,0.414l0.432,0.408l0.438,0.411l0.443,0.414l0.44,0.408l0.437,0.403l0.447,0.41l0.443,0.405l0.443,0.401l0.451,0.406l0.449,0.402l0.444,0.396l0.452,0.399l0.455,0.401l0.448,0.391l0.457,0.398l0.457,0.394l0.454,0.39l0.456,0.389l0.458,0.389l0.462,0.389l0.456,0.382l0.462,0.385l0.466,0.386l0.464,0.382l0.472,0.385l0.466,0.379l0.461,0.373l0.472,0.379l0.47,0.375l0.471,0.374l0.473,0.373l0.471,0.369l0.474,0.369l0.476,0.368l0.481,0.37l0.479,0.367l0.474,0.36l0.48,0.362l0.483,0.363l0.484,0.36l0.488,0.362l0.479,0.353l0.484,0.354l0.492,0.358l0.483,0.349l0.491,0.352l0.491,0.351l0.487,0.345l0.498,0.351l0.495,0.347l0.489,0.34l0.495,0.342l0.496,0.341l0.497,0.339l0.505,0.342l0.499,0.336l0.493,0.331l0.508,0.337l0.503,0.332l0.5,0.329l0.509,0.331l0.505,0.328l0.504,0.324l0.508,0.325l0.513,0.326l0.507,0.32l0.512,0.32l0.51,0.317l0.513,0.318l0.519,0.318l0.512,0.313l0.514,0.311l0.519,0.312l0.522,0.312l0.514,0.306l0.519,0.305l0.525,0.308l0.517,0.301l0.526,0.303l0.528,0.303l0.521,0.296l0.524,0.297l0.529,0.297l0.527,0.293l0.528,0.292l0.529,0.291l0.53,0.289l0.535,0.289l0.535,0.288l0.53,0.283l0.531,0.282l0.539,0.283l0.539,0.282l0.531,0.275l0.542,0.278l0.542,0.277l0.534,0.271l0.545,0.274l0.542,0.271l0.54,0.267l0.541,0.266l0.546,0.266l0.55,0.266l0.544,0.262l0.545,0.26l0.549,0.259l0.551,0.259l0.548,0.255l0.549,0.253l0.554,0.254l0.554,0.252l0.555,0.25l0.55,0.245l0.554,0.246l0.559,0.245l0.556,0.243l0.56,0.242l0.558,0.239l0.559,0.238l0.556,0.234l0.561,0.235l0.568,0.235l0.563,0.231l0.56,0.228l0.562,0.227l0.572,0.228l0.566,0.225l0.561,0.22l0.571,0.223l0.57,0.22l0.566,0.216l0.572,0.216l0.572,0.215l0.569,0.212l0.574,0.211l0.578,0.211l0.573,0.207l0.573,0.205l0.577,0.204l0.575,0.202l0.58,0.201l0.58,0.2l0.575,0.195l0.578,0.195l0.585,0.195l0.581,0.192l0.578,0.189l0.586,0.189l0.585,0.188l0.582,0.184l0.589,0.184l0.588,0.182l0.583,0.179l0.587,0.177l0.589,0.177l0.589,0.174l0.589,0.173l0.592,0.171l0.592,0.169l0.592,0.167l0.59,0.165l0.597,0.165l0.596,0.162l0.59,0.159l0.596,0.158l0.6,0.158l0.598,0.155l0.597,0.153l0.598,0.151l0.6,0.149l0.602,0.148l0.598,0.146l0.603,0.144l0.603,0.142l0.601,0.14l0.602,0.138l0.607,0.137l0.608,0.136l0.603,0.132l0.607,0.132l0.607,0.129l0.607,0.127l0.608,0.126l0.614,0.124l0.611,0.123l0.606,0.119l0.613,0.119l0.609,0.115l0.614,0.115l0.62,0.114l0.611,0.11l0.613,0.109l0.615,0.107l0.615,0.105l0.618,0.103l0.621,0.102l0.618,0.1l0.618,0.097l0.62,0.096l0.617,0.094l0.62,0.092l0.627,0.09l0.623,0.089l0.619,0.086l0.621,0.084l0.626,0.082l0.627,0.081l0.627,0.079l0.625,0.076l0.626,0.075l0.63,0.073l0.622,0.07l0.628,0.069l0.634,0.068l0.63,0.065l0.63,0.063l0.632,0.061l0.633,0.059l0.633,0.058l0.63,0.055l0.635,0.053l0.636,0.052l0.633,0.049l0.634,0.047l0.639,0.046l0.639,0.043l0.633,0.042l0.637,0.039l0.642,0.038l0.639,0.035l0.64,0.034l0.641,0.031l0.641,0.03l0.642,0.027l0.643,0.026l0.641,0.023l0.641,0.021l0.65,0.02l0.642,0.017l0.644,0.016l0.649,0.013l0.649,0.011l0.646,0.01l0.643,0.007l0.652,0.005l0.648,0.003l0.65,0.001l0.65,-0.001l0.648,-0.003l0.652,-0.005l0.643,-0.007l0.646,-0.01l0.649,-0.011l0.649,-0.013l0.643,-0.016l0.643,-0.017l0.65,-0.02l0.641,-0.021l0.64,-0.023l0.643,-0.026l0.643,-0.027l0.641,-0.03l0.641,-0.031l0.64,-0.034l0.639,-0.035l0.642,-0.038l0.638,-0.039l0.632,-0.042l0.639,-0.043l0.639,-0.046l0.634,-0.047l0.633,-0.049l0.636,-0.052l0.636,-0.053l0.629,-0.055l0.633,-0.058l0.633,-0.059l0.632,-0.061l0.63,-0.063l0.63,-0.065l0.633,-0.068l0.629,-0.069l0.623,-0.07l0.629,-0.073l0.626,-0.075l0.625,-0.076l0.627,-0.079l0.627,-0.081l0.626,-0.082l0.621,-0.084l0.619,-0.086l0.624,-0.089l0.626,-0.09l0.62,-0.092l0.617,-0.094l0.62,-0.096l0.618,-0.097l0.617,-0.099l0.622,-0.103l0.619,-0.103l0.614,-0.105l0.615,-0.107l0.613,-0.109l0.611,-0.11l0.619,-0.114l0.615,-0.115l0.61,-0.116l0.612,-0.118l0.606,-0.119l0.61,-0.122l0.614,-0.125l0.609,-0.126l0.607,-0.127l0.608,-0.13l0.605,-0.13l0.604,-0.133l0.61,-0.136l0.605,-0.137l0.6,-0.138l0.601,-0.139l0.606,-0.143l0.604,-0.145l0.596,-0.145l0.602,-0.148l0.599,-0.149l0.599,-0.151l0.599,-0.153l0.596,-0.155l0.6,-0.158l0.595,-0.157l0.591,-0.16l0.598,-0.163l0.595,-0.164l0.591,-0.165l0.591,-0.167l0.592,-0.169l0.592,-0.171l0.589,-0.173l0.589,-0.174l0.589,-0.177l0.587,-0.177l0.583,-0.179l0.586,-0.181l0.591,-0.185l0.584,-0.185l0.581,-0.186l0.588,-0.19l0.581,-0.19l0.578,-0.191l0.585,-0.195l0.578,-0.195l0.575,-0.195l0.58,-0.2l0.58,-0.201l0.575,-0.202l0.578,-0.204l0.572,-0.205l0.573,-0.207l0.578,-0.211l0.574,-0.211l0.569,-0.212l0.572,-0.215l0.572,-0.216l0.566,-0.216l0.57,-0.22l0.568,-0.221l0.564,-0.222l0.569,-0.226l0.569,-0.227l0.562,-0.227l0.56,-0.228l0.563,-0.231l0.568,-0.235l0.561,-0.235l0.553,-0.233l0.562,-0.239l0.561,-0.24l0.557,-0.241l0.556,-0.243l0.556,-0.244l0.556,-0.247l0.554,-0.247l0.552,-0.248l0.554,-0.252l0.554,-0.254l0.549,-0.253l0.548,-0.255l0.551,-0.259l0.549,-0.259l0.545,-0.26l0.544,-0.262l0.55,-0.266l0.546,-0.266l0.541,-0.266l0.54,-0.267l0.542,-0.271l0.542,-0.272l0.537,-0.273l0.542,-0.277l0.542,-0.278l0.534,-0.277l0.536,-0.28l0.536,-0.282l0.534,-0.283l0.533,-0.284l0.532,-0.287l0.535,-0.289l0.53,-0.289l0.529,-0.291l0.528,-0.292l0.527,-0.293l0.529,-0.297l0.521,-0.295l0.524,-0.298l0.532,-0.305l0.522,-0.301l0.517,-0.301l0.525,-0.308l0.519,-0.305l0.514,-0.306l0.522,-0.312l0.519,-0.312l0.514,-0.311l0.512,-0.313l0.515,-0.316l0.517,-0.32l0.513,-0.319l0.509,-0.318l0.507,-0.32l0.513,-0.326l0.508,-0.325l0.504,-0.324l0.505,-0.328l0.509,-0.331l0.5,-0.329l0.503,-0.332l0.508,-0.337l0.493,-0.331l0.499,-0.336l0.505,-0.342l0.497,-0.339l0.492,-0.338l0.498,-0.345l0.494,-0.343l0.491,-0.344l0.494,-0.348l0.491,-0.348l0.491,-0.351l0.491,-0.352l0.487,-0.352l0.485,-0.352l0.487,-0.357l0.483,-0.356l0.484,-0.359l0.484,-0.36l0.483,-0.363l0.48,-0.362l0.474,-0.36l0.479,-0.367l0.477,-0.366l0.475,-0.369l0.483,-0.375l0.471,-0.369l0.465,-0.367l0.475,-0.377l0.474,-0.378l0.464,-0.373l0.465,-0.376l0.47,-0.382l0.468,-0.382l0.464,-0.382l0.462,-0.383l0.462,-0.384l0.464,-0.39l0.462,-0.389l0.454,-0.385l0.452,-0.386l0.458,-0.393l0.461,-0.398l0.453,-0.394l0.448,-0.391l0.455,-0.401l0.452,-0.399l0.444,-0.396l0.45,-0.402l0.45,-0.406l0.443,-0.401l0.439,-0.401l0.447,-0.41l0.445,-0.411l0.44,-0.408l0.439,-0.41l0.438,-0.411l0.432,-0.408l0.435,-0.414l0.44,-0.421l0.435,-0.418l0.429,-0.416l0.426,-0.414l0.435,-0.427l0.428,-0.421l0.424,-0.42l0.43,-0.428l0.422,-0.424l0.422,-0.426l0.421,-0.428l0.422,-0.43l0.423,-0.435l0.414,-0.427l0.414,-0.431l0.421,-0.44l0.414,-0.435l0.41,-0.434l0.413,-0.44l0.41,-0.439l0.41,-0.442l0.407,-0.441l0.404,-0.44l0.405,-0.444l0.407,-0.449l0.404,-0.449l0.398,-0.445l0.399,-0.448l0.396,-0.448l0.401,-0.455l0.397,-0.454l0.392,-0.452l0.394,-0.456l0.391,-0.455l0.387,-0.453l0.392,-0.463l0.389,-0.461l0.386,-0.46l0.384,-0.462l0.383,-0.462l0.386,-0.469l0.376,-0.46l0.381,-0.468l0.377,-0.468l0.377,-0.468l0.376,-0.472l0.375,-0.473l0.373,-0.472l0.366,-0.468l0.373,-0.479l0.37,-0.477l0.366,-0.477l0.363,-0.475l0.362,-0.475l0.368,-0.488l0.359,-0.478l0.357,-0.479l0.365,-0.493l0.356,-0.484l0.354,-0.482l0.35,-0.482l0.352,-0.487l0.354,-0.494l0.353,-0.494l0.348,-0.49l0.345,-0.49l0.343,-0.49l0.343,-0.494l0.347,-0.502l0.341,-0.496l0.335,-0.491l0.342,-0.504l0.336,-0.499l0.335,-0.5l0.333,-0.501l0.33,-0.499l0.335,-0.511l0.329,-0.505l0.324,-0.5l0.327,-0.509l0.326,-0.509l0.325,-0.511l0.323,-0.512l0.316,-0.505l0.317,-0.509l0.319,-0.517l0.316,-0.514l0.316,-0.518l0.315,-0.52l0.306,-0.508l0.312,-0.522l0.309,-0.522l0.301,-0.511l0.307,-0.523l0.306,-0.527l0.301,-0.522l0.3,-0.523l0.298,-0.523l0.299,-0.53l0.296,-0.525l0.293,-0.527l0.293,-0.528l0.29,-0.529l0.293,-0.537l0.285,-0.526l0.286,-0.532l0.284,-0.533l0.284,-0.536l0.282,-0.535l0.28,-0.537l0.279,-0.539l0.275,-0.533l0.276,-0.541l0.274,-0.541l0.273,-0.543l0.272,-0.545l0.266,-0.537l0.265,-0.54l0.267,-0.547l0.265,-0.548l0.264,-0.549l0.26,-0.545l0.258,-0.546l0.259,-0.551l0.255,-0.548l0.253,-0.549l0.254,-0.555l0.251,-0.551l0.248,-0.552l0.25,-0.559l0.246,-0.554l0.243,-0.555l0.243,-0.556l0.241,-0.557l0.239,-0.558l0.238,-0.559l0.238,-0.567l0.232,-0.555l0.233,-0.561l0.234,-0.571l0.228,-0.558l0.228,-0.565l0.226,-0.566l0.222,-0.561l0.224,-0.569l0.222,-0.57l0.22,-0.571l0.218,-0.571l0.215,-0.566l0.212,-0.567l0.214,-0.575l0.212,-0.576l0.208,-0.57l0.209,-0.578l0.204,-0.572l0.203,-0.573l0.204,-0.581l0.202,-0.582l0.198,-0.576l0.197,-0.577l0.195,-0.578l0.193,-0.58l0.194,-0.586l0.189,-0.582l0.189,-0.582l0.186,-0.583l0.185,-0.584l0.183,-0.585l0.182,-0.586l0.179,-0.587l0.178,-0.588l0.177,-0.589l0.174,-0.59l0.173,-0.591l0.172,-0.592l0.167,-0.586l0.168,-0.594l0.166,-0.595l0.163,-0.589l0.162,-0.596l0.161,-0.598l0.158,-0.592l0.157,-0.599l0.156,-0.601l0.152,-0.595l0.15,-0.595l0.15,-0.604l0.149,-0.604l0.144,-0.591l0.145,-0.607l0.143,-0.607l0.138,-0.594l0.138,-0.601l0.138,-0.611l0.137,-0.611l0.132,-0.605l0.13,-0.598l0.129,-0.607l0.129,-0.615l0.126,-0.608l0.124,-0.609l0.122,-0.611l0.119,-0.604l0.118,-0.612l0.118,-0.621l0.113,-0.607l0.113,-0.614l0.111,-0.616l0.108,-0.61l0.108,-0.617l0.105,-0.619l0.104,-0.62l0.101,-0.612l0.1,-0.622l0.098,-0.622l0.095,-0.616l0.094,-0.616l0.091,-0.618l0.091,-0.626l0.089,-0.626l0.086,-0.621l0.085,-0.628l0.082,-0.622l0.079,-0.615l0.079,-0.632l0.078,-0.632l0.074,-0.625l0.073,-0.627l0.07,-0.619l0.069,-0.628l0.068,-0.637l0.065,-0.63l0.063,-0.63l0.061,-0.632l0.059,-0.632l0.058,-0.634l0.055,-0.634l0.053,-0.635l0.051,-0.628l0.05,-0.637l0.048,-0.638l0.045,-0.631l0.043,-0.639l0.042,-0.64l0.039,-0.634l0.038,-0.642l0.035,-0.643l0.034,-0.636l0.031,-0.637l0.03,-0.645l0.027,-0.646l0.026,-0.64l0.023,-0.64l0.021,-0.641l0.02,-0.65l0.017,-0.643l0.016,-0.643l0.013,-0.645l0.011,-0.653l0.01,-0.646l0.007,-0.639l0.005,-0.656l0.003,-0.648l0.001,-0.65l-0.001,-0.65l-0.003,-0.648l-0.005,-0.656l-0.007,-0.639l-0.01,-0.646l-0.011,-0.653l-0.013,-0.645l-0.016,-0.643l-0.017,-0.643l-0.02,-0.65l-0.021,-0.641l-0.023,-0.64l-0.026,-0.64l-0.027,-0.646l-0.03,-0.645l-0.031,-0.637l-0.034,-0.636l-0.035,-0.643l-0.038,-0.642l-0.039,-0.634l-0.042,-0.64l-0.043,-0.639l-0.045,-0.631l-0.048,-0.638l-0.05,-0.637l-0.051,-0.628l-0.053,-0.635l-0.055,-0.634l-0.058,-0.634l-0.059,-0.632l-0.061,-0.632l-0.063,-0.63l-0.065,-0.63l-0.068,-0.637l-0.069,-0.628l-0.07,-0.62l-0.073,-0.626l-0.074,-0.625l-0.078,-0.633l-0.079,-0.631l-0.079,-0.615l-0.082,-0.622l-0.085,-0.628l-0.086,-0.621l-0.089,-0.626l-0.091,-0.626l-0.091,-0.618l-0.094,-0.616l-0.095,-0.616l-0.098,-0.622l-0.1,-0.622l-0.101,-0.612l-0.104,-0.62l-0.105,-0.619l-0.108,-0.617l-0.108,-0.61l-0.111,-0.616l-0.113,-0.614l-0.113,-0.607l-0.118,-0.621l-0.118,-0.612l-0.119,-0.604l-0.122,-0.611l-0.124,-0.609l-0.126,-0.608l-0.129,-0.615l-0.129,-0.607l-0.13,-0.598l-0.132,-0.605l-0.137,-0.611l-0.138,-0.611l-0.138,-0.601l-0.138,-0.594l-0.143,-0.607l-0.145,-0.607l-0.144,-0.591l-0.149,-0.604l-0.15,-0.604l-0.15,-0.595l-0.152,-0.595l-0.156,-0.601l-0.158,-0.599l-0.157,-0.592l-0.161,-0.598l-0.162,-0.596l-0.163,-0.589l-0.166,-0.595l-0.168,-0.594l-0.167,-0.586l-0.172,-0.592l-0.173,-0.591l-0.174,-0.59l-0.177,-0.589l-0.178,-0.588l-0.179,-0.587l-0.182,-0.586l-0.183,-0.585l-0.185,-0.584l-0.186,-0.583l-0.189,-0.582l-0.189,-0.582l-0.194,-0.586l-0.193,-0.58l-0.195,-0.578l-0.197,-0.577l-0.198,-0.576l-0.202,-0.582l-0.204,-0.582l-0.203,-0.572l-0.204,-0.572l-0.209,-0.578l-0.208,-0.57l-0.212,-0.576l-0.214,-0.575l-0.212,-0.567l-0.215,-0.566l-0.218,-0.571l-0.22,-0.571l-0.222,-0.57l-0.224,-0.569l-0.222,-0.561l-0.226,-0.566l-0.228,-0.565l-0.228,-0.558l-0.234,-0.571l-0.233,-0.561l-0.232,-0.555l-0.238,-0.567l-0.238,-0.559l-0.239,-0.558l-0.241,-0.557l-0.243,-0.556l-0.243,-0.555l-0.246,-0.554l-0.25,-0.558l-0.249,-0.553l-0.25,-0.551l-0.254,-0.555l-0.253,-0.549l-0.255,-0.547l-0.259,-0.553l-0.258,-0.545l-0.259,-0.544l-0.264,-0.549l-0.265,-0.548l-0.268,-0.548l-0.265,-0.54l-0.267,-0.538l-0.271,-0.544l-0.273,-0.543l-0.275,-0.542l-0.276,-0.541l-0.274,-0.532l-0.278,-0.538l-0.281,-0.537l-0.282,-0.537l-0.283,-0.534l-0.286,-0.535l-0.286,-0.532l-0.284,-0.525l-0.293,-0.537l-0.29,-0.529l-0.293,-0.528l-0.293,-0.526l-0.295,-0.526l-0.301,-0.531l-0.297,-0.523l-0.3,-0.522l-0.3,-0.521l-0.306,-0.526l-0.308,-0.525l-0.301,-0.512l-0.31,-0.522l-0.311,-0.521l-0.307,-0.509l-0.314,-0.518l-0.315,-0.518l-0.317,-0.516l-0.319,-0.515l-0.317,-0.509l-0.318,-0.508l-0.321,-0.51l-0.325,-0.511l-0.326,-0.51l-0.326,-0.507l-0.325,-0.501l-0.33,-0.506l-0.334,-0.51l-0.329,-0.498l-0.334,-0.501l-0.334,-0.5l-0.338,-0.501l-0.341,-0.504l-0.335,-0.49l-0.341,-0.497l-0.346,-0.5l-0.343,-0.493l-0.344,-0.492l-0.347,-0.492l-0.347,-0.489l-0.352,-0.494l-0.353,-0.492l-0.351,-0.486l-0.353,-0.485l-0.354,-0.483l-0.355,-0.483l-0.364,-0.491l-0.358,-0.479l-0.359,-0.479l-0.368,-0.488l-0.361,-0.474l-0.364,-0.476l-0.368,-0.479l-0.369,-0.476l-0.37,-0.476l-0.368,-0.469l-0.374,-0.474l-0.375,-0.473l-0.375,-0.47l-0.377,-0.469l-0.378,-0.469l-0.379,-0.466l-0.377,-0.461l-0.386,-0.469l-0.383,-0.462l-0.385,-0.463l-0.386,-0.46l-0.386,-0.458l-0.393,-0.463l-0.389,-0.457l-0.391,-0.454l-0.391,-0.453l-0.394,-0.454l-0.398,-0.455l-0.4,-0.454l-0.397,-0.449l-0.397,-0.446l-0.399,-0.446l-0.404,-0.449l-0.406,-0.447l-0.407,-0.447l-0.404,-0.44l-0.405,-0.439l-0.41,-0.442l-0.412,-0.441l-0.412,-0.439l-0.409,-0.433l-0.416,-0.437l-0.42,-0.439l-0.413,-0.43l-0.416,-0.429l-0.423,-0.435l-0.42,-0.428l-0.422,-0.429l-0.423,-0.428l-0.42,-0.421l-0.43,-0.428l-0.427,-0.423l-0.427,-0.42l-0.432,-0.425l-0.427,-0.414l-0.43,-0.417l-0.437,-0.42l-0.437,-0.418l-0.434,-0.413l-0.435,-0.411l-0.437,-0.41l-0.438,-0.409l-0.443,-0.411l-0.444,-0.41l-0.445,-0.408l-0.441,-0.403l-0.443,-0.401l-0.448,-0.404l-0.45,-0.402l-0.446,-0.398l-0.451,-0.398l-0.453,-0.399l-0.45,-0.393l-0.455,-0.395l-0.459,-0.397l-0.457,-0.392l-0.453,-0.387l-0.455,-0.386l-0.461,-0.388l-0.464,-0.39l-0.462,-0.384l-0.462,-0.383l-0.465,-0.383l-0.465,-0.38l-0.471,-0.382l-0.467,-0.378l-0.463,-0.372l-0.474,-0.378l-0.474,-0.376l-0.466,-0.368l-0.474,-0.371l-0.481,-0.374l-0.473,-0.367l-0.475,-0.365l-0.481,-0.368l-0.478,-0.363l-0.477,-0.36l-0.483,-0.363l-0.484,-0.36l-0.481,-0.357l-0.488,-0.359l-0.485,-0.356l-0.484,-0.351l-0.489,-0.354l-0.491,-0.352l-0.49,-0.35l-0.492,-0.349l-0.493,-0.347l-0.488,-0.342l-0.495,-0.344l-0.501,-0.347l-0.492,-0.338l-0.497,-0.339l-0.502,-0.34l-0.499,-0.336l-0.498,-0.334l-0.504,-0.334l-0.502,-0.332l-0.504,-0.331l-0.507,-0.33l-0.505,-0.328l-0.506,-0.325l-0.506,-0.324l-0.512,-0.325l-0.507,-0.32l-0.51,-0.319l-0.516,-0.321l-0.514,-0.318l-0.513,-0.316l-0.514,-0.313l-0.516,-0.312l-0.517,-0.311l-0.519,-0.311l-0.517,-0.306l-0.52,-0.307l-0.523,-0.306l-0.52,-0.302l-0.523,-0.302l-0.526,-0.302l-0.526,-0.299l-0.524,-0.297l-0.527,-0.296l-0.527,-0.293l-0.528,-0.292l-0.529,-0.291l-0.532,-0.29l-0.531,-0.288l-0.532,-0.286l-0.537,-0.286l-0.532,-0.282l-0.536,-0.282l-0.536,-0.28l-0.536,-0.278l-0.54,-0.277l-0.541,-0.277l-0.538,-0.273l-0.54,-0.271l-0.542,-0.271l-0.542,-0.268l-0.543,-0.267l-0.546,-0.266l-0.546,-0.265l-0.544,-0.261l-0.549,-0.261l-0.549,-0.26l-0.547,-0.257l-0.552,-0.256l-0.55,-0.255l-0.549,-0.251l-0.553,-0.251l-0.554,-0.249l-0.555,-0.248l-0.558,-0.248l-0.554,-0.243l-0.556,-0.243l-0.558,-0.241l-0.56,-0.24l-0.56,-0.238l-0.557,-0.235l-0.561,-0.234l-0.565,-0.234l-0.562,-0.231l-0.562,-0.229l-0.565,-0.228l-0.564,-0.226l-0.568,-0.225l-0.569,-0.223l-0.566,-0.221l-0.568,-0.219l-0.572,-0.218l-0.569,-0.216l-0.568,-0.213l-0.572,-0.213l-0.576,-0.212l-0.576,-0.21l-0.571,-0.206l-0.574,-0.206l-0.579,-0.205l-0.574,-0.201l-0.578,-0.201l-0.58,-0.199l-0.577,-0.196l-0.58,-0.196l-0.583,-0.194l-0.578,-0.191l-0.583,-0.191l-0.586,-0.189l-0.581,-0.186l-0.586,-0.185l-0.587,-0.184l-0.584,-0.181l-0.587,-0.179l-0.589,-0.179l-0.587,-0.176l-0.588,-0.174l-0.592,-0.173l-0.59,-0.171l-0.59,-0.168l-0.593,-0.168l-0.595,-0.166l-0.591,-0.163l-0.594,-0.162l-0.597,-0.161l-0.596,-0.158l-0.597,-0.157l-0.594,-0.154l-0.601,-0.154l-0.599,-0.151l-0.597,-0.149l-0.602,-0.148l-0.6,-0.146l-0.602,-0.144l-0.604,-0.142l-0.605,-0.141l-0.6,-0.138l-0.603,-0.136l-0.608,-0.135l-0.604,-0.133l-0.607,-0.131l-0.61,-0.13l-0.607,-0.128l-0.608,-0.125l-0.611,-0.124l-0.608,-0.122l-0.61,-0.12l-0.612,-0.118l-0.614,-0.117l-0.613,-0.115l-0.613,-0.112l-0.613,-0.111l-0.615,-0.109l-0.616,-0.107l-0.617,-0.105l-0.617,-0.104l-0.618,-0.101l-0.617,-0.1l-0.618,-0.097l-0.62,-0.096l-0.622,-0.094l-0.621,-0.092l-0.621,-0.09l-0.621,-0.088l-0.623,-0.086l-0.625,-0.085l-0.622,-0.082l-0.627,-0.081l-0.626,-0.079l-0.624,-0.076l-0.628,-0.075l-0.627,-0.073l-0.629,-0.071l-0.629,-0.069l-0.629,-0.067l-0.63,-0.065l-0.63,-0.063l-0.63,-0.061l-0.633,-0.059l-0.633,-0.058l-0.631,-0.055l-0.636,-0.053l-0.635,-0.051l-0.634,-0.05l-0.636,-0.047l-0.637,-0.046l-0.637,-0.043l-0.636,-0.042l-0.638,-0.039l-0.64,-0.038l-0.639,-0.035l-0.64,-0.034l-0.643,-0.031l-0.639,-0.03l-0.641,-0.027l-0.643,-0.026l-0.644,-0.023l-0.643,-0.022l-0.644,-0.019l-0.645,-0.017l-0.645,-0.016l-0.647,-0.013l-0.645,-0.011l-0.648,-0.009l-0.649,-0.008l-0.646,-0.005l-0.649,-0.003l-0.651,-0.001l-0.651,0.001Z" style="fill:#fcfcfc;"/><path d="M222.264,323.816l0,53.748l54.795,0l0,-53.748l-54.795,0Zm-56.191,-115.174l51.305,0c0,-6.282 0.698,-12.157 2.094,-17.625c1.396,-5.468 3.548,-10.238 6.457,-14.309c2.908,-4.072 6.631,-7.33 11.168,-9.773c4.537,-2.443 9.947,-3.664 16.229,-3.664c9.307,0 16.578,2.559 21.813,7.678c5.236,5.119 7.853,13.03 7.853,23.733c0.233,6.282 -0.872,11.517 -3.315,15.705c-2.444,4.188 -5.643,8.027 -9.598,11.518c-3.956,3.49 -8.26,6.98 -12.914,10.47c-4.653,3.49 -9.074,7.62 -13.262,12.39c-4.188,4.77 -7.853,10.528 -10.994,17.276c-3.141,6.747 -5.061,15.124 -5.759,25.129l0,15.705l47.117,0l0,-13.262c0.931,-6.98 3.199,-12.797 6.806,-17.451c3.606,-4.653 7.736,-8.783 12.39,-12.39c4.653,-3.606 9.597,-7.213 14.833,-10.819c5.235,-3.606 10.005,-7.969 14.309,-13.088c4.304,-5.119 7.911,-11.285 10.819,-18.498c2.909,-7.212 4.363,-16.403 4.363,-27.571c0,-6.748 -1.454,-14.019 -4.363,-21.814c-2.908,-7.794 -7.736,-15.065 -14.484,-21.813c-6.747,-6.748 -15.647,-12.39 -26.699,-16.927c-11.052,-4.537 -24.838,-6.806 -41.358,-6.806c-12.797,0 -24.373,2.153 -34.727,6.457c-10.354,4.304 -19.195,10.296 -26.524,17.974c-7.33,7.678 -13.03,16.753 -17.102,27.223c-4.072,10.47 -6.224,21.988 -6.457,34.552Z" style="fill:#fcfcfc;fill-rule:nonzero;"/></g></svg>