<?xml version="1.0" encoding="UTF-8" standalone="no"?><!DOCTYPE svg PUBLIC "-//W3C//DTD SVG 1.1//EN" "http://www.w3.org/Graphics/SVG/1.1/DTD/svg11.dtd"><svg width="100%" height="100%" viewBox="0 0 531 530" version="1.1" xmlns="http://www.w3.org/2000/svg" xmlns:xlink="http://www.w3.org/1999/xlink" xml:space="preserve" xmlns:serif="http://www.serif.com/" style="fill-rule:evenodd;clip-rule:evenodd;stroke-miterlimit:1.5;"><g id="Logo-Thin" serif:id="Logo Thin"><g id="X-Squared" serif:id="X Squared"><path d="M497.714,398.371l-99.733,99.803" style="fill:none;stroke:#fcfcfc;stroke-width:9.98px;"/><path d="M397.952,398.4l99.791,99.745" style="fill:none;stroke:#fcfcfc;stroke-width:9.98px;"/></g><path d="M173.595,15l0,500" style="fill:none;stroke:#fcfcfc;stroke-width:30px;stroke-linejoin:round;"/><path d="M356.84,15l0,500" style="fill:none;stroke:#fcfcfc;stroke-width:30px;stroke-linejoin:round;"/><path d="M515.435,173.973l-499.999,-1.19" style="fill:none;stroke:#fcfcfc;stroke-width:30px;stroke-linejoin:round;"/><path d="M514.999,357.217l-499.999,-1.19" style="fill:none;stroke:#fcfcfc;stroke-width:30px;stroke-linejoin:round;"/><path id="O" d="M83.922,32.495l0.323,0.003l0.322,0.005l0.321,0.007l0.321,0.009l0.321,0.011l0.32,0.013l0.319,0.016l0.319,0.017l0.319,0.019l0.318,0.021l0.317,0.023l0.317,0.026l0.316,0.027l0.316,0.029l0.315,0.031l0.315,0.033l0.314,0.035l0.313,0.037l0.313,0.038l0.312,0.041l0.312,0.043l0.311,0.044l0.31,0.047l0.31,0.048l0.309,0.051l0.308,0.052l0.308,0.054l0.308,0.056l0.306,0.058l0.306,0.059l0.305,0.062l0.305,0.063l0.304,0.065l0.303,0.067l0.302,0.069l0.302,0.071l0.301,0.073l0.301,0.074l0.299,0.076l0.299,0.078l0.299,0.08l0.297,0.082l0.297,0.083l0.296,0.085l0.295,0.087l0.295,0.089l0.293,0.09l0.293,0.092l0.293,0.094l0.291,0.096l0.291,0.097l0.289,0.1l0.289,0.1l0.289,0.103l0.287,0.104l0.287,0.106l0.285,0.108l0.285,0.11l0.284,0.111l0.284,0.112l0.282,0.115l0.282,0.116l0.28,0.118l0.28,0.119l0.279,0.121l0.278,0.123l0.277,0.124l0.277,0.126l0.275,0.128l0.274,0.129l0.274,0.131l0.273,0.133l0.271,0.134l0.271,0.135l0.27,0.138l0.269,0.139l0.268,0.14l0.267,0.142l0.266,0.144l0.265,0.145l0.264,0.146l0.263,0.149l0.262,0.149l0.261,0.152l0.261,0.152l0.259,0.155l0.258,0.156l0.257,0.157l0.256,0.159l0.255,0.16l0.254,0.162l0.253,0.163l0.252,0.165l0.251,0.166l0.25,0.168l0.248,0.169l0.248,0.171l0.247,0.172l0.245,0.174l0.245,0.175l0.243,0.176l0.242,0.178l0.241,0.179l0.24,0.181l0.239,0.182l0.238,0.183l0.237,0.185l0.235,0.186l0.234,0.188l0.234,0.189l0.232,0.19l0.231,0.192l0.229,0.193l0.229,0.195l0.227,0.195l0.226,0.197l0.225,0.199l0.224,0.2l0.222,0.201l0.222,0.202l0.22,0.204l0.219,0.205l0.217,0.206l0.217,0.208l0.215,0.209l0.214,0.21l0.213,0.211l0.211,0.213l0.21,0.214l0.209,0.215l0.208,0.216l0.206,0.218l0.205,0.219l0.204,0.22l0.202,0.221l0.201,0.223l0.2,0.224l0.198,0.224l0.197,0.227l0.196,0.227l0.195,0.228l0.193,0.23l0.191,0.231l0.191,0.232l0.189,0.233l0.187,0.235l0.187,0.235l0.184,0.237l0.184,0.237l0.182,0.239l0.181,0.24l0.179,0.241l0.178,0.243l0.176,0.243l0.175,0.244l0.174,0.246l0.172,0.247l0.17,0.247l0.17,0.249l0.167,0.25l0.167,0.251l0.164,0.252l0.164,0.253l0.162,0.254l0.16,0.255l0.159,0.256l0.157,0.257l0.156,0.258l0.154,0.259l0.153,0.26l0.151,0.261l0.15,0.263l0.148,0.263l0.147,0.264l0.145,0.265l0.144,0.266l0.142,0.267l0.14,0.268l0.139,0.269l0.137,0.27l0.136,0.27l0.134,0.272l0.132,0.273l0.131,0.273l0.13,0.275l0.127,0.275l0.126,0.276l0.125,0.278l0.122,0.278l0.121,0.279l0.12,0.279l0.118,0.281l0.116,0.282l0.114,0.282l0.113,0.283l0.111,0.284l0.11,0.285l0.107,0.286l0.106,0.287l0.105,0.287l0.102,0.288l0.101,0.289l0.099,0.29l0.098,0.291l0.095,0.291l0.094,0.292l0.093,0.293l0.09,0.294l0.089,0.295l0.087,0.295l0.085,0.296l0.083,0.297l0.082,0.297l0.079,0.298l0.078,0.299l0.077,0.3l0.074,0.3l0.073,0.301l0.07,0.302l0.069,0.303l0.067,0.303l0.066,0.304l0.063,0.304l0.061,0.306l0.06,0.306l0.058,0.306l0.056,0.307l0.054,0.308l0.052,0.309l0.05,0.309l0.049,0.31l0.046,0.31l0.045,0.311l0.042,0.312l0.041,0.312l0.039,0.313l0.037,0.313l0.035,0.314l0.033,0.315l0.031,0.315l0.029,0.316l0.027,0.316l0.025,0.317l0.023,0.317l0.022,0.318l0.019,0.318l0.017,0.319l0.015,0.32l0.013,0.32l0.012,0.32l0.009,0.322l0.007,0.321l0.005,0.322l0.003,0.323l0.001,0.323l-0.001,0.323l-0.003,0.322l-0.005,0.322l-0.007,0.322l-0.009,0.321l-0.012,0.32l-0.013,0.32l-0.015,0.32l-0.017,0.319l-0.019,0.318l-0.022,0.318l-0.023,0.318l-0.025,0.317l-0.027,0.316l-0.029,0.316l-0.031,0.315l-0.033,0.314l-0.035,0.314l-0.037,0.314l-0.039,0.312l-0.041,0.313l-0.042,0.311l-0.045,0.311l-0.046,0.311l-0.049,0.309l-0.05,0.31l-0.052,0.308l-0.054,0.308l-0.056,0.307l-0.058,0.307l-0.06,0.306l-0.061,0.305l-0.063,0.304l-0.066,0.304l-0.067,0.304l-0.069,0.302l-0.07,0.302l-0.073,0.301l-0.074,0.3l-0.077,0.3l-0.078,0.299l-0.079,0.298l-0.082,0.298l-0.083,0.297l-0.085,0.296l-0.087,0.295l-0.089,0.294l-0.09,0.294l-0.093,0.293l-0.094,0.292l-0.095,0.292l-0.098,0.29l-0.099,0.29l-0.101,0.289l-0.102,0.288l-0.105,0.288l-0.106,0.286l-0.107,0.286l-0.11,0.285l-0.111,0.284l-0.113,0.283l-0.114,0.283l-0.116,0.281l-0.118,0.281l-0.12,0.28l-0.121,0.279l-0.122,0.278l-0.125,0.277l-0.126,0.276l-0.127,0.276l-0.13,0.274l-0.131,0.274l-0.132,0.272l-0.134,0.272l-0.136,0.271l-0.137,0.27l-0.139,0.268l-0.14,0.268l-0.142,0.267l-0.144,0.266l-0.145,0.266l-0.147,0.264l-0.148,0.263l-0.15,0.262l-0.151,0.261l-0.153,0.26l-0.154,0.259l-0.156,0.258l-0.157,0.258l-0.159,0.256l-0.16,0.255l-0.162,0.254l-0.164,0.253l-0.164,0.252l-0.167,0.25l-0.167,0.25l-0.17,0.249l-0.17,0.248l-0.172,0.246l-0.174,0.246l-0.175,0.244l-0.176,0.244l-0.178,0.242l-0.179,0.241l-0.181,0.24l-0.182,0.239l-0.184,0.238l-0.184,0.236l-0.187,0.236l-0.187,0.234l-0.189,0.233l-0.191,0.232l-0.191,0.231l-0.193,0.23l-0.195,0.228l-0.196,0.228l-0.197,0.226l-0.198,0.225l-0.2,0.224l-0.201,0.222l-0.202,0.221l-0.204,0.221l-0.205,0.218l-0.206,0.218l-0.208,0.217l-0.209,0.215l-0.21,0.214l-0.211,0.212l-0.213,0.212l-0.214,0.21l-0.215,0.209l-0.217,0.207l-0.217,0.207l-0.219,0.205l-0.22,0.203l-0.222,0.203l-0.222,0.201l-0.224,0.199l-0.225,0.199l-0.226,0.197l-0.227,0.196l-0.229,0.194l-0.229,0.193l-0.231,0.192l-0.232,0.19l-0.234,0.189l-0.234,0.188l-0.235,0.186l-0.237,0.185l-0.238,0.183l-0.239,0.183l-0.24,0.18l-0.241,0.179l-0.242,0.178l-0.243,0.177l-0.245,0.175l-0.245,0.173l-0.247,0.172l-0.248,0.171l-0.248,0.169l-0.25,0.168l-0.251,0.166l-0.252,0.165l-0.253,0.163l-0.254,0.162l-0.255,0.161l-0.256,0.158l-0.257,0.158l-0.258,0.156l-0.259,0.154l-0.261,0.153l-0.261,0.151l-0.262,0.15l-0.263,0.148l-0.264,0.147l-0.265,0.145l-0.266,0.143l-0.267,0.142l-0.268,0.141l-0.269,0.139l-0.27,0.137l-0.271,0.136l-0.271,0.134l-0.273,0.132l-0.274,0.131l-0.274,0.129l-0.275,0.128l-0.277,0.126l-0.277,0.124l-0.278,0.123l-0.279,0.121l-0.28,0.12l-0.28,0.117l-0.282,0.116l-0.282,0.115l-0.284,0.113l-0.284,0.111l-0.285,0.109l-0.285,0.108l-0.287,0.106l-0.287,0.104l-0.289,0.103l-0.289,0.101l-0.289,0.099l-0.291,0.097l-0.291,0.096l-0.293,0.094l-0.293,0.092l-0.293,0.091l-0.295,0.088l-0.295,0.087l-0.296,0.085l-0.297,0.084l-0.297,0.081l-0.299,0.08l-0.299,0.078l-0.299,0.076l-0.301,0.075l-0.301,0.072l-0.302,0.071l-0.302,0.069l-0.303,0.067l-0.304,0.065l-0.305,0.064l-0.305,0.061l-0.306,0.06l-0.306,0.058l-0.308,0.055l-0.308,0.055l-0.308,0.052l-0.309,0.05l-0.31,0.048l-0.31,0.047l-0.311,0.044l-0.312,0.043l-0.312,0.041l-0.313,0.039l-0.313,0.037l-0.314,0.034l-0.315,0.033l-0.315,0.032l-0.316,0.029l-0.316,0.027l-0.317,0.025l-0.317,0.023l-0.318,0.021l-0.319,0.019l-0.319,0.018l-0.319,0.015l-0.32,0.013l-0.321,0.011l-0.321,0.009l-0.321,0.008l-0.322,0.005l-0.323,0.003l-0.323,0.001l-0.323,-0.001l-0.323,-0.003l-0.322,-0.005l-0.321,-0.008l-0.321,-0.009l-0.321,-0.011l-0.32,-0.013l-0.319,-0.015l-0.319,-0.018l-0.319,-0.019l-0.318,-0.021l-0.317,-0.023l-0.317,-0.025l-0.316,-0.027l-0.316,-0.029l-0.315,-0.032l-0.315,-0.033l-0.314,-0.034l-0.313,-0.037l-0.313,-0.039l-0.312,-0.041l-0.312,-0.043l-0.311,-0.044l-0.31,-0.047l-0.31,-0.048l-0.309,-0.05l-0.308,-0.052l-0.308,-0.055l-0.308,-0.055l-0.306,-0.058l-0.306,-0.06l-0.305,-0.061l-0.305,-0.064l-0.304,-0.065l-0.303,-0.067l-0.302,-0.069l-0.302,-0.071l-0.301,-0.072l-0.301,-0.075l-0.299,-0.076l-0.299,-0.078l-0.299,-0.08l-0.297,-0.081l-0.297,-0.084l-0.296,-0.085l-0.295,-0.087l-0.295,-0.088l-0.293,-0.091l-0.293,-0.092l-0.293,-0.094l-0.291,-0.096l-0.291,-0.097l-0.289,-0.099l-0.289,-0.101l-0.289,-0.103l-0.287,-0.104l-0.287,-0.106l-0.285,-0.108l-0.285,-0.109l-0.284,-0.111l-0.284,-0.113l-0.282,-0.115l-0.282,-0.116l-0.28,-0.117l-0.28,-0.12l-0.279,-0.121l-0.278,-0.123l-0.277,-0.124l-0.277,-0.126l-0.275,-0.128l-0.274,-0.129l-0.274,-0.131l-0.273,-0.132l-0.271,-0.134l-0.271,-0.136l-0.27,-0.137l-0.269,-0.139l-0.268,-0.141l-0.267,-0.142l-0.266,-0.143l-0.265,-0.145l-0.264,-0.147l-0.263,-0.148l-0.262,-0.15l-0.261,-0.151l-0.26,-0.153l-0.26,-0.154l-0.258,-0.156l-0.257,-0.158l-0.256,-0.158l-0.255,-0.161l-0.254,-0.162l-0.253,-0.163l-0.252,-0.165l-0.251,-0.166l-0.25,-0.168l-0.248,-0.169l-0.248,-0.171l-0.247,-0.172l-0.245,-0.173l-0.245,-0.175l-0.243,-0.177l-0.242,-0.178l-0.241,-0.179l-0.24,-0.18l-0.239,-0.183l-0.238,-0.183l-0.237,-0.185l-0.235,-0.186l-0.234,-0.188l-0.234,-0.189l-0.232,-0.19l-0.23,-0.192l-0.23,-0.193l-0.229,-0.194l-0.227,-0.196l-0.226,-0.197l-0.225,-0.199l-0.224,-0.199l-0.222,-0.201l-0.222,-0.203l-0.22,-0.203l-0.219,-0.205l-0.217,-0.207l-0.217,-0.207l-0.215,-0.209l-0.214,-0.21l-0.213,-0.212l-0.211,-0.212l-0.21,-0.214l-0.209,-0.215l-0.208,-0.217l-0.206,-0.218l-0.205,-0.218l-0.204,-0.221l-0.202,-0.221l-0.201,-0.222l-0.2,-0.224l-0.198,-0.225l-0.197,-0.226l-0.196,-0.228l-0.194,-0.228l-0.194,-0.23l-0.191,-0.231l-0.191,-0.232l-0.189,-0.233l-0.187,-0.234l-0.186,-0.236l-0.185,-0.236l-0.184,-0.238l-0.182,-0.239l-0.181,-0.24l-0.179,-0.241l-0.178,-0.242l-0.176,-0.244l-0.175,-0.244l-0.174,-0.246l-0.172,-0.246l-0.17,-0.248l-0.17,-0.249l-0.167,-0.25l-0.167,-0.25l-0.164,-0.252l-0.164,-0.253l-0.162,-0.254l-0.16,-0.255l-0.159,-0.256l-0.157,-0.258l-0.156,-0.258l-0.154,-0.259l-0.153,-0.26l-0.151,-0.261l-0.15,-0.262l-0.148,-0.263l-0.147,-0.264l-0.145,-0.266l-0.144,-0.266l-0.142,-0.267l-0.14,-0.268l-0.139,-0.268l-0.137,-0.27l-0.136,-0.271l-0.134,-0.272l-0.132,-0.272l-0.131,-0.274l-0.13,-0.274l-0.127,-0.276l-0.126,-0.276l-0.125,-0.277l-0.122,-0.278l-0.121,-0.279l-0.12,-0.28l-0.118,-0.281l-0.116,-0.281l-0.114,-0.283l-0.113,-0.283l-0.111,-0.284l-0.109,-0.285l-0.108,-0.286l-0.106,-0.286l-0.105,-0.288l-0.102,-0.288l-0.101,-0.289l-0.099,-0.29l-0.098,-0.29l-0.095,-0.292l-0.094,-0.292l-0.092,-0.293l-0.091,-0.294l-0.089,-0.294l-0.087,-0.295l-0.085,-0.296l-0.083,-0.297l-0.082,-0.298l-0.079,-0.298l-0.078,-0.299l-0.077,-0.3l-0.074,-0.3l-0.073,-0.301l-0.07,-0.302l-0.069,-0.302l-0.067,-0.304l-0.065,-0.304l-0.064,-0.304l-0.061,-0.305l-0.06,-0.306l-0.058,-0.307l-0.056,-0.307l-0.054,-0.308l-0.052,-0.308l-0.05,-0.31l-0.049,-0.309l-0.046,-0.311l-0.045,-0.311l-0.042,-0.311l-0.041,-0.313l-0.039,-0.312l-0.037,-0.314l-0.035,-0.314l-0.033,-0.314l-0.031,-0.315l-0.029,-0.316l-0.027,-0.316l-0.025,-0.317l-0.023,-0.318l-0.022,-0.318l-0.019,-0.318l-0.017,-0.319l-0.015,-0.32l-0.013,-0.32l-0.012,-0.32l-0.009,-0.321l-0.007,-0.322l-0.005,-0.322l-0.003,-0.322l-0.001,-0.323l0.001,-0.323l0.003,-0.323l0.005,-0.322l0.007,-0.321l0.009,-0.322l0.012,-0.32l0.013,-0.32l0.015,-0.32l0.017,-0.319l0.019,-0.318l0.022,-0.318l0.023,-0.317l0.025,-0.317l0.027,-0.316l0.029,-0.316l0.031,-0.315l0.033,-0.315l0.035,-0.314l0.037,-0.313l0.039,-0.313l0.041,-0.312l0.042,-0.312l0.045,-0.311l0.046,-0.31l0.049,-0.31l0.05,-0.309l0.052,-0.309l0.054,-0.308l0.056,-0.307l0.058,-0.306l0.06,-0.306l0.061,-0.306l0.064,-0.304l0.065,-0.304l0.067,-0.303l0.069,-0.303l0.07,-0.302l0.073,-0.301l0.074,-0.3l0.077,-0.3l0.078,-0.299l0.079,-0.298l0.082,-0.297l0.083,-0.297l0.085,-0.296l0.087,-0.295l0.089,-0.295l0.091,-0.294l0.092,-0.293l0.094,-0.292l0.095,-0.291l0.098,-0.291l0.099,-0.29l0.101,-0.289l0.102,-0.288l0.105,-0.287l0.106,-0.287l0.108,-0.286l0.109,-0.285l0.111,-0.284l0.113,-0.283l0.114,-0.282l0.116,-0.282l0.118,-0.281l0.12,-0.279l0.121,-0.279l0.122,-0.278l0.125,-0.278l0.126,-0.276l0.127,-0.275l0.13,-0.275l0.131,-0.273l0.132,-0.273l0.134,-0.272l0.136,-0.27l0.137,-0.27l0.139,-0.269l0.14,-0.268l0.142,-0.267l0.144,-0.266l0.145,-0.265l0.147,-0.264l0.148,-0.263l0.15,-0.263l0.151,-0.261l0.153,-0.26l0.154,-0.259l0.156,-0.258l0.157,-0.257l0.159,-0.256l0.16,-0.255l0.162,-0.254l0.164,-0.253l0.164,-0.252l0.167,-0.251l0.167,-0.25l0.17,-0.249l0.17,-0.247l0.172,-0.247l0.174,-0.246l0.175,-0.244l0.176,-0.243l0.178,-0.243l0.179,-0.241l0.181,-0.24l0.182,-0.239l0.184,-0.237l0.185,-0.237l0.186,-0.235l0.187,-0.235l0.189,-0.233l0.191,-0.232l0.191,-0.231l0.194,-0.23l0.194,-0.228l0.196,-0.227l0.197,-0.227l0.198,-0.224l0.2,-0.224l0.201,-0.223l0.202,-0.221l0.204,-0.22l0.205,-0.219l0.206,-0.218l0.208,-0.216l0.209,-0.215l0.21,-0.214l0.211,-0.213l0.213,-0.211l0.214,-0.21l0.215,-0.209l0.217,-0.208l0.217,-0.206l0.219,-0.205l0.22,-0.204l0.222,-0.202l0.222,-0.201l0.224,-0.2l0.225,-0.199l0.226,-0.197l0.227,-0.195l0.229,-0.195l0.23,-0.193l0.23,-0.192l0.232,-0.19l0.234,-0.189l0.234,-0.188l0.235,-0.186l0.237,-0.185l0.238,-0.183l0.239,-0.182l0.24,-0.181l0.241,-0.179l0.242,-0.178l0.243,-0.176l0.245,-0.175l0.245,-0.174l0.247,-0.172l0.248,-0.171l0.248,-0.169l0.25,-0.168l0.251,-0.166l0.252,-0.165l0.253,-0.163l0.254,-0.162l0.255,-0.16l0.256,-0.159l0.257,-0.157l0.258,-0.156l0.26,-0.155l0.26,-0.152l0.261,-0.152l0.262,-0.149l0.263,-0.149l0.264,-0.146l0.265,-0.145l0.266,-0.144l0.267,-0.142l0.268,-0.14l0.269,-0.139l0.27,-0.138l0.271,-0.135l0.271,-0.134l0.273,-0.133l0.274,-0.131l0.274,-0.129l0.275,-0.128l0.277,-0.126l0.277,-0.124l0.278,-0.123l0.279,-0.121l0.28,-0.119l0.28,-0.118l0.282,-0.116l0.282,-0.115l0.284,-0.112l0.284,-0.111l0.285,-0.11l0.285,-0.108l0.287,-0.106l0.287,-0.104l0.289,-0.103l0.289,-0.1l0.289,-0.1l0.291,-0.097l0.291,-0.096l0.293,-0.094l0.293,-0.092l0.293,-0.09l0.295,-0.089l0.295,-0.087l0.296,-0.085l0.297,-0.083l0.297,-0.082l0.299,-0.08l0.299,-0.078l0.299,-0.076l0.301,-0.074l0.301,-0.073l0.302,-0.071l0.302,-0.069l0.303,-0.067l0.304,-0.065l0.305,-0.063l0.305,-0.062l0.306,-0.059l0.306,-0.058l0.308,-0.056l0.308,-0.054l0.308,-0.052l0.309,-0.051l0.31,-0.048l0.31,-0.047l0.311,-0.044l0.312,-0.043l0.312,-0.041l0.313,-0.038l0.313,-0.037l0.314,-0.035l0.315,-0.033l0.315,-0.031l0.316,-0.029l0.316,-0.027l0.317,-0.026l0.317,-0.023l0.318,-0.021l0.319,-0.019l0.319,-0.017l0.319,-0.016l0.32,-0.013l0.321,-0.011l0.321,-0.009l0.321,-0.007l0.322,-0.005l0.323,-0.003l0.323,-0.001l0.323,0.001Zm-0.582,9.995l-0.259,0.003l-0.26,0.004l-0.257,0.006l-0.258,0.007l-0.258,0.009l-0.256,0.011l-0.256,0.012l-0.257,0.014l-0.255,0.015l-0.255,0.017l-0.253,0.018l-0.255,0.021l-0.252,0.021l-0.253,0.024l-0.254,0.025l-0.251,0.026l-0.251,0.028l-0.25,0.029l-0.25,0.031l-0.25,0.033l-0.249,0.034l-0.25,0.036l-0.247,0.037l-0.247,0.038l-0.249,0.041l-0.246,0.041l-0.246,0.044l-0.246,0.044l-0.244,0.046l-0.245,0.048l-0.244,0.049l-0.242,0.051l-0.243,0.052l-0.242,0.054l-0.243,0.055l-0.24,0.056l-0.239,0.058l-0.241,0.059l-0.24,0.061l-0.239,0.063l-0.236,0.063l-0.238,0.065l-0.238,0.067l-0.235,0.068l-0.237,0.069l-0.234,0.071l-0.235,0.072l-0.234,0.074l-0.232,0.074l-0.235,0.078l-0.233,0.078l-0.229,0.078l-0.231,0.081l-0.23,0.082l-0.229,0.083l-0.229,0.084l-0.228,0.086l-0.229,0.088l-0.226,0.089l-0.226,0.09l-0.228,0.092l-0.222,0.092l-0.224,0.094l-0.225,0.096l-0.222,0.096l-0.222,0.098l-0.223,0.1l-0.22,0.1l-0.219,0.102l-0.221,0.104l-0.219,0.105l-0.215,0.104l-0.217,0.108l-0.219,0.109l-0.215,0.11l-0.216,0.111l-0.214,0.112l-0.212,0.113l-0.212,0.114l-0.213,0.117l-0.212,0.118l-0.212,0.119l-0.208,0.119l-0.209,0.121l-0.207,0.121l-0.208,0.124l-0.208,0.126l-0.202,0.124l-0.206,0.127l-0.206,0.13l-0.202,0.129l-0.204,0.132l-0.202,0.132l-0.2,0.132l-0.199,0.134l-0.198,0.134l-0.199,0.138l-0.197,0.137l-0.199,0.141l-0.197,0.14l-0.191,0.139l-0.194,0.143l-0.195,0.144l-0.191,0.145l-0.192,0.146l-0.192,0.148l-0.19,0.148l-0.186,0.148l-0.187,0.149l-0.188,0.153l-0.186,0.152l-0.186,0.155l-0.184,0.154l-0.181,0.154l-0.184,0.159l-0.181,0.157l-0.179,0.158l-0.182,0.163l-0.177,0.16l-0.177,0.161l-0.178,0.165l-0.175,0.164l-0.173,0.164l-0.172,0.165l-0.176,0.17l-0.171,0.169l-0.17,0.169l-0.168,0.169l-0.169,0.172l-0.17,0.175l-0.164,0.171l-0.164,0.173l-0.165,0.176l-0.164,0.177l-0.163,0.179l-0.16,0.177l-0.161,0.18l-0.16,0.181l-0.155,0.178l-0.158,0.184l-0.157,0.184l-0.154,0.183l-0.153,0.185l-0.152,0.185l-0.153,0.189l-0.15,0.187l-0.149,0.188l-0.148,0.19l-0.147,0.19l-0.145,0.191l-0.145,0.192l-0.144,0.194l-0.142,0.194l-0.142,0.195l-0.14,0.196l-0.14,0.198l-0.136,0.194l-0.137,0.2l-0.137,0.2l-0.132,0.198l-0.134,0.202l-0.133,0.204l-0.13,0.2l-0.128,0.202l-0.129,0.205l-0.129,0.208l-0.123,0.201l-0.126,0.209l-0.125,0.21l-0.12,0.203l-0.12,0.208l-0.122,0.213l-0.118,0.21l-0.117,0.211l-0.119,0.216l-0.112,0.208l-0.114,0.214l-0.112,0.215l-0.111,0.215l-0.111,0.216l-0.106,0.213l-0.108,0.219l-0.106,0.219l-0.106,0.22l-0.104,0.22l-0.1,0.218l-0.1,0.218l-0.1,0.224l-0.099,0.224l-0.096,0.221l-0.095,0.222l-0.095,0.226l-0.092,0.224l-0.091,0.224l-0.091,0.23l-0.089,0.226l-0.087,0.226l-0.087,0.232l-0.085,0.229l-0.081,0.224l-0.082,0.23l-0.081,0.232l-0.079,0.231l-0.079,0.237l-0.076,0.229l-0.075,0.234l-0.074,0.235l-0.071,0.231l-0.071,0.236l-0.07,0.237l-0.068,0.239l-0.066,0.234l-0.065,0.235l-0.064,0.24l-0.063,0.241l-0.06,0.238l-0.059,0.238l-0.059,0.243l-0.056,0.239l-0.055,0.241l-0.054,0.246l-0.052,0.241l-0.051,0.243l-0.049,0.243l-0.047,0.244l-0.046,0.245l-0.045,0.245l-0.043,0.247l-0.042,0.247l-0.04,0.247l-0.039,0.248l-0.037,0.25l-0.036,0.245l-0.034,0.25l-0.033,0.252l-0.03,0.247l-0.03,0.252l-0.028,0.249l-0.026,0.254l-0.025,0.255l-0.023,0.25l-0.022,0.252l-0.02,0.252l-0.019,0.257l-0.017,0.259l-0.015,0.254l-0.014,0.249l-0.012,0.261l-0.011,0.256l-0.009,0.257l-0.007,0.262l-0.006,0.253l-0.004,0.259l-0.002,0.26l-0.001,0.26l0.001,0.26l0.002,0.259l0.004,0.259l0.006,0.253l0.007,0.263l0.009,0.256l0.011,0.257l0.012,0.26l0.014,0.25l0.015,0.254l0.017,0.258l0.019,0.258l0.02,0.252l0.022,0.251l0.023,0.251l0.025,0.254l0.026,0.255l0.028,0.248l0.03,0.253l0.03,0.247l0.033,0.251l0.034,0.251l0.036,0.245l0.037,0.249l0.039,0.248l0.04,0.248l0.042,0.247l0.043,0.246l0.045,0.245l0.046,0.245l0.047,0.244l0.05,0.244l0.05,0.242l0.052,0.241l0.054,0.246l0.055,0.241l0.056,0.239l0.059,0.244l0.059,0.238l0.06,0.237l0.063,0.241l0.064,0.24l0.065,0.235l0.066,0.235l0.068,0.238l0.07,0.237l0.071,0.237l0.071,0.231l0.074,0.234l0.075,0.235l0.076,0.228l0.079,0.237l0.079,0.232l0.081,0.23l0.082,0.231l0.081,0.225l0.085,0.228l0.087,0.232l0.087,0.227l0.089,0.226l0.091,0.229l0.091,0.224l0.092,0.224l0.095,0.227l0.095,0.221l0.096,0.222l0.099,0.224l0.1,0.223l0.1,0.218l0.1,0.218l0.104,0.22l0.106,0.22l0.106,0.22l0.108,0.218l0.106,0.213l0.11,0.216l0.112,0.216l0.112,0.215l0.113,0.212l0.113,0.209l0.119,0.216l0.117,0.211l0.118,0.21l0.121,0.213l0.121,0.209l0.12,0.203l0.125,0.209l0.126,0.21l0.123,0.201l0.128,0.206l0.13,0.207l0.128,0.201l0.13,0.201l0.133,0.203l0.134,0.202l0.133,0.198l0.136,0.2l0.137,0.199l0.136,0.196l0.14,0.197l0.14,0.196l0.142,0.196l0.143,0.194l0.143,0.193l0.145,0.192l0.146,0.192l0.147,0.19l0.147,0.189l0.149,0.188l0.15,0.187l0.153,0.189l0.152,0.186l0.153,0.184l0.153,0.182l0.158,0.186l0.158,0.184l0.155,0.177l0.16,0.181l0.161,0.181l0.16,0.177l0.163,0.178l0.164,0.177l0.165,0.177l0.164,0.173l0.164,0.17l0.171,0.176l0.169,0.172l0.166,0.168l0.171,0.17l0.171,0.168l0.175,0.17l0.174,0.166l0.172,0.163l0.174,0.164l0.179,0.165l0.177,0.162l0.178,0.16l0.181,0.162l0.179,0.158l0.181,0.158l0.183,0.157l0.182,0.155l0.184,0.154l0.185,0.154l0.188,0.154l0.187,0.153l0.186,0.148l0.187,0.148l0.19,0.149l0.192,0.147l0.192,0.147l0.192,0.145l0.194,0.144l0.193,0.142l0.193,0.14l0.196,0.14l0.199,0.14l0.197,0.138l0.198,0.136l0.199,0.136l0.199,0.133l0.201,0.133l0.201,0.132l0.204,0.132l0.202,0.129l0.205,0.128l0.207,0.128l0.202,0.125l0.208,0.125l0.208,0.124l0.207,0.121l0.21,0.122l0.208,0.119l0.211,0.119l0.211,0.117l0.213,0.116l0.213,0.115l0.213,0.113l0.214,0.113l0.214,0.11l0.216,0.11l0.219,0.11l0.216,0.107l0.217,0.105l0.218,0.104l0.22,0.104l0.22,0.102l0.221,0.101l0.222,0.099l0.221,0.098l0.224,0.097l0.224,0.096l0.222,0.093l0.225,0.093l0.228,0.092l0.224,0.089l0.227,0.089l0.229,0.088l0.228,0.086l0.229,0.085l0.227,0.082l0.232,0.083l0.231,0.08l0.23,0.079l0.232,0.078l0.234,0.076l0.234,0.076l0.233,0.073l0.235,0.072l0.235,0.071l0.235,0.069l0.236,0.068l0.238,0.067l0.237,0.065l0.238,0.064l0.238,0.062l0.24,0.061l0.241,0.06l0.239,0.057l0.24,0.057l0.241,0.054l0.244,0.054l0.243,0.053l0.242,0.05l0.244,0.049l0.245,0.048l0.244,0.046l0.247,0.045l0.246,0.043l0.245,0.042l0.248,0.04l0.247,0.038l0.248,0.038l0.251,0.035l0.248,0.034l0.248,0.033l0.252,0.031l0.25,0.03l0.251,0.027l0.252,0.027l0.253,0.025l0.251,0.023l0.254,0.022l0.255,0.02l0.255,0.019l0.253,0.016l0.255,0.016l0.257,0.014l0.255,0.012l0.258,0.01l0.257,0.009l0.257,0.008l0.259,0.005l0.259,0.005l0.258,0.002l0.26,0.001l0.26,-0.001l0.259,-0.002l0.258,-0.005l0.26,-0.005l0.256,-0.008l0.256,-0.009l0.259,-0.01l0.256,-0.012l0.256,-0.014l0.255,-0.016l0.253,-0.016l0.255,-0.019l0.255,-0.02l0.254,-0.022l0.251,-0.023l0.253,-0.025l0.252,-0.027l0.251,-0.027l0.25,-0.03l0.252,-0.031l0.248,-0.033l0.248,-0.034l0.251,-0.035l0.248,-0.038l0.247,-0.038l0.248,-0.04l0.245,-0.042l0.246,-0.043l0.247,-0.045l0.244,-0.046l0.245,-0.048l0.244,-0.049l0.242,-0.05l0.243,-0.053l0.244,-0.054l0.241,-0.054l0.24,-0.057l0.239,-0.057l0.241,-0.06l0.24,-0.061l0.238,-0.062l0.239,-0.064l0.236,-0.065l0.238,-0.067l0.237,-0.068l0.234,-0.069l0.235,-0.071l0.235,-0.072l0.233,-0.073l0.234,-0.076l0.234,-0.076l0.232,-0.078l0.23,-0.079l0.231,-0.08l0.232,-0.083l0.227,-0.082l0.229,-0.085l0.228,-0.086l0.229,-0.088l0.227,-0.089l0.224,-0.089l0.228,-0.092l0.225,-0.093l0.222,-0.093l0.224,-0.096l0.224,-0.097l0.221,-0.098l0.222,-0.099l0.221,-0.101l0.22,-0.102l0.22,-0.104l0.218,-0.104l0.217,-0.105l0.216,-0.107l0.219,-0.11l0.216,-0.11l0.214,-0.11l0.214,-0.113l0.213,-0.113l0.213,-0.115l0.213,-0.116l0.211,-0.117l0.211,-0.119l0.208,-0.119l0.21,-0.122l0.207,-0.121l0.208,-0.124l0.208,-0.125l0.202,-0.125l0.207,-0.128l0.205,-0.128l0.202,-0.129l0.204,-0.132l0.201,-0.132l0.201,-0.133l0.199,-0.133l0.199,-0.136l0.198,-0.136l0.197,-0.138l0.199,-0.14l0.196,-0.14l0.193,-0.14l0.193,-0.142l0.194,-0.144l0.193,-0.145l0.191,-0.147l0.192,-0.147l0.19,-0.149l0.187,-0.148l0.186,-0.148l0.188,-0.153l0.187,-0.154l0.186,-0.154l0.183,-0.154l0.182,-0.155l0.183,-0.157l0.181,-0.158l0.179,-0.158l0.181,-0.162l0.178,-0.16l0.177,-0.162l0.179,-0.165l0.174,-0.164l0.172,-0.163l0.174,-0.166l0.175,-0.17l0.171,-0.168l0.171,-0.17l0.166,-0.168l0.169,-0.172l0.169,-0.173l0.166,-0.173l0.166,-0.176l0.163,-0.174l0.164,-0.177l0.163,-0.178l0.16,-0.177l0.161,-0.181l0.16,-0.181l0.155,-0.177l0.158,-0.184l0.158,-0.186l0.153,-0.182l0.153,-0.184l0.152,-0.186l0.153,-0.189l0.15,-0.187l0.149,-0.188l0.148,-0.189l0.146,-0.19l0.146,-0.192l0.145,-0.192l0.143,-0.193l0.143,-0.194l0.142,-0.196l0.14,-0.196l0.14,-0.197l0.136,-0.196l0.137,-0.199l0.136,-0.2l0.133,-0.198l0.134,-0.202l0.133,-0.203l0.13,-0.201l0.128,-0.201l0.13,-0.207l0.126,-0.203l0.125,-0.204l0.126,-0.21l0.125,-0.209l0.122,-0.207l0.119,-0.205l0.121,-0.213l0.118,-0.21l0.117,-0.211l0.119,-0.216l0.113,-0.209l0.113,-0.212l0.112,-0.215l0.11,-0.212l0.111,-0.22l0.109,-0.217l0.106,-0.214l0.106,-0.22l0.106,-0.22l0.104,-0.22l0.1,-0.218l0.1,-0.218l0.1,-0.223l0.099,-0.224l0.096,-0.222l0.095,-0.221l0.095,-0.227l0.092,-0.224l0.091,-0.224l0.091,-0.229l0.089,-0.226l0.087,-0.227l0.087,-0.232l0.085,-0.228l0.081,-0.225l0.082,-0.231l0.081,-0.23l0.079,-0.232l0.08,-0.237l0.075,-0.228l0.075,-0.235l0.074,-0.234l0.071,-0.231l0.071,-0.237l0.07,-0.237l0.069,-0.238l0.065,-0.235l0.065,-0.235l0.064,-0.24l0.063,-0.241l0.06,-0.237l0.059,-0.238l0.059,-0.244l0.056,-0.239l0.055,-0.241l0.054,-0.246l0.052,-0.241l0.051,-0.242l0.049,-0.244l0.047,-0.244l0.046,-0.245l0.045,-0.245l0.043,-0.246l0.042,-0.247l0.04,-0.248l0.039,-0.248l0.037,-0.249l0.036,-0.245l0.034,-0.251l0.033,-0.251l0.03,-0.247l0.03,-0.253l0.028,-0.248l0.026,-0.255l0.025,-0.254l0.024,-0.251l0.021,-0.251l0.02,-0.252l0.019,-0.258l0.017,-0.258l0.015,-0.254l0.014,-0.25l0.012,-0.26l0.011,-0.257l0.009,-0.256l0.007,-0.263l0.006,-0.253l0.004,-0.259l0.002,-0.259l0.001,-0.26l-0.001,-0.26l-0.002,-0.26l-0.004,-0.259l-0.006,-0.253l-0.007,-0.262l-0.009,-0.257l-0.011,-0.256l-0.012,-0.261l-0.014,-0.249l-0.015,-0.254l-0.017,-0.259l-0.019,-0.257l-0.02,-0.252l-0.021,-0.252l-0.024,-0.25l-0.025,-0.255l-0.026,-0.254l-0.028,-0.249l-0.03,-0.252l-0.03,-0.247l-0.033,-0.252l-0.034,-0.25l-0.036,-0.245l-0.037,-0.25l-0.039,-0.248l-0.04,-0.247l-0.042,-0.247l-0.043,-0.247l-0.045,-0.245l-0.046,-0.245l-0.047,-0.244l-0.049,-0.243l-0.051,-0.243l-0.052,-0.241l-0.054,-0.246l-0.055,-0.241l-0.056,-0.239l-0.059,-0.243l-0.059,-0.238l-0.06,-0.238l-0.063,-0.241l-0.064,-0.24l-0.065,-0.235l-0.065,-0.234l-0.069,-0.239l-0.07,-0.237l-0.071,-0.236l-0.071,-0.231l-0.074,-0.235l-0.075,-0.234l-0.075,-0.229l-0.08,-0.237l-0.079,-0.231l-0.081,-0.232l-0.082,-0.23l-0.081,-0.224l-0.085,-0.229l-0.087,-0.232l-0.087,-0.226l-0.089,-0.226l-0.091,-0.23l-0.091,-0.224l-0.092,-0.224l-0.095,-0.226l-0.095,-0.222l-0.096,-0.221l-0.099,-0.224l-0.1,-0.224l-0.1,-0.218l-0.1,-0.218l-0.104,-0.22l-0.106,-0.22l-0.106,-0.219l-0.106,-0.214l-0.109,-0.218l-0.112,-0.22l-0.108,-0.211l-0.113,-0.215l-0.114,-0.214l-0.112,-0.208l-0.119,-0.216l-0.117,-0.211l-0.118,-0.21l-0.122,-0.213l-0.118,-0.204l-0.122,-0.207l-0.125,-0.21l-0.126,-0.209l-0.125,-0.205l-0.126,-0.204l-0.13,-0.205l-0.128,-0.202l-0.129,-0.2l-0.134,-0.204l-0.134,-0.202l-0.132,-0.198l-0.137,-0.2l-0.137,-0.2l-0.136,-0.194l-0.14,-0.198l-0.14,-0.196l-0.142,-0.195l-0.142,-0.194l-0.144,-0.194l-0.145,-0.192l-0.145,-0.191l-0.147,-0.19l-0.148,-0.19l-0.149,-0.188l-0.15,-0.187l-0.153,-0.189l-0.152,-0.185l-0.153,-0.185l-0.154,-0.183l-0.157,-0.184l-0.158,-0.184l-0.155,-0.178l-0.16,-0.181l-0.161,-0.18l-0.16,-0.177l-0.163,-0.179l-0.164,-0.177l-0.163,-0.174l-0.166,-0.175l-0.167,-0.174l-0.167,-0.172l-0.169,-0.172l-0.168,-0.169l-0.17,-0.169l-0.171,-0.169l-0.176,-0.17l-0.172,-0.165l-0.173,-0.164l-0.175,-0.164l-0.178,-0.165l-0.177,-0.161l-0.177,-0.16l-0.182,-0.163l-0.179,-0.158l-0.181,-0.157l-0.184,-0.159l-0.181,-0.154l-0.183,-0.154l-0.186,-0.155l-0.187,-0.152l-0.188,-0.153l-0.187,-0.149l-0.186,-0.148l-0.19,-0.148l-0.192,-0.148l-0.191,-0.146l-0.192,-0.145l-0.195,-0.144l-0.194,-0.143l-0.191,-0.139l-0.197,-0.14l-0.199,-0.141l-0.197,-0.137l-0.199,-0.138l-0.198,-0.134l-0.199,-0.134l-0.2,-0.132l-0.202,-0.132l-0.204,-0.132l-0.202,-0.129l-0.206,-0.13l-0.206,-0.127l-0.202,-0.124l-0.208,-0.126l-0.208,-0.124l-0.207,-0.121l-0.209,-0.121l-0.208,-0.119l-0.212,-0.119l-0.212,-0.118l-0.213,-0.117l-0.212,-0.114l-0.211,-0.113l-0.215,-0.112l-0.216,-0.111l-0.215,-0.11l-0.219,-0.109l-0.217,-0.108l-0.215,-0.104l-0.219,-0.105l-0.221,-0.104l-0.219,-0.102l-0.22,-0.1l-0.223,-0.1l-0.222,-0.098l-0.222,-0.096l-0.225,-0.096l-0.223,-0.094l-0.223,-0.092l-0.228,-0.092l-0.226,-0.09l-0.226,-0.089l-0.229,-0.088l-0.228,-0.086l-0.229,-0.084l-0.229,-0.083l-0.23,-0.082l-0.231,-0.081l-0.229,-0.078l-0.233,-0.078l-0.235,-0.078l-0.231,-0.074l-0.235,-0.074l-0.235,-0.072l-0.234,-0.071l-0.237,-0.069l-0.235,-0.068l-0.238,-0.067l-0.238,-0.065l-0.236,-0.063l-0.239,-0.063l-0.24,-0.061l-0.241,-0.059l-0.239,-0.058l-0.24,-0.056l-0.243,-0.055l-0.242,-0.054l-0.243,-0.052l-0.242,-0.051l-0.244,-0.049l-0.245,-0.048l-0.244,-0.046l-0.246,-0.044l-0.246,-0.044l-0.246,-0.041l-0.249,-0.041l-0.247,-0.038l-0.247,-0.037l-0.249,-0.036l-0.25,-0.034l-0.25,-0.033l-0.25,-0.031l-0.25,-0.029l-0.251,-0.028l-0.251,-0.026l-0.254,-0.025l-0.253,-0.024l-0.252,-0.021l-0.255,-0.021l-0.253,-0.018l-0.255,-0.017l-0.255,-0.015l-0.256,-0.014l-0.257,-0.012l-0.256,-0.011l-0.258,-0.009l-0.258,-0.007l-0.256,-0.006l-0.26,-0.004l-0.26,-0.003l-0.259,-0.001l-0.259,0.001Z" style="fill:#fcfcfc;"/><text x="224.875px" y="314.915px" style="font-family:'HelveticaNeue', 'Helvetica Neue';font-size:142.893px;fill:#fcfcfc;">1</text></g></svg>