<?xml version="1.0" encoding="UTF-8" standalone="no"?><!DOCTYPE svg PUBLIC "-//W3C//DTD SVG 1.1//EN" "http://www.w3.org/Graphics/SVG/1.1/DTD/svg11.dtd"><svg width="100%" height="100%" viewBox="0 0 500 554" version="1.1" xmlns="http://www.w3.org/2000/svg" xmlns:xlink="http://www.w3.org/1999/xlink" xml:space="preserve" xmlns:serif="http://www.serif.com/" style="fill-rule:evenodd;clip-rule:evenodd;stroke-linecap:square;stroke-linejoin:round;stroke-miterlimit:1.5;"><g id="Restart"><path id="O" d="M91.917,156.467l-0.308,0.398l-0.308,0.399l-0.307,0.399l-0.305,0.4l-0.305,0.401l-0.304,0.401l-0.302,0.403l-0.302,0.403l-0.3,0.404l-0.3,0.405l-0.299,0.405l-0.298,0.407l-0.296,0.407l-0.296,0.408l-0.295,0.409l-0.293,0.409l-0.293,0.41l-0.292,0.411l-0.29,0.412l-0.29,0.412l-0.289,0.414l-0.287,0.414l-0.287,0.414l-0.286,0.416l-0.284,0.416l-0.284,0.417l-0.282,0.418l-0.282,0.418l-0.28,0.42l-0.28,0.42l-0.278,0.42l-0.277,0.422l-0.277,0.422l-0.275,0.423l-0.274,0.424l-0.274,0.424l-0.272,0.425l-0.271,0.426l-0.27,0.427l-0.269,0.427l-0.268,0.428l-0.267,0.429l-0.266,0.43l-0.265,0.43l-0.264,0.431l-0.263,0.431l-0.261,0.433l-0.261,0.433l-0.26,0.434l-0.258,0.434l-0.258,0.435l-0.256,0.436l-0.255,0.437l-0.254,0.437l-0.254,0.438l-0.252,0.439l-0.251,0.439l-0.25,0.44l-0.249,0.441l-0.247,0.442l-0.247,0.442l-0.246,0.443l-0.244,0.443l-0.244,0.444l-0.242,0.445l-0.241,0.446l-0.24,0.446l-0.239,0.447l-0.238,0.448l-0.237,0.448l-0.236,0.449l-0.234,0.449l-0.234,0.451l-0.232,0.45l-0.232,0.452l-0.23,0.452l-0.229,0.453l-0.228,0.454l-0.227,0.454l-0.226,0.455l-0.224,0.455l-0.224,0.457l-0.222,0.456l-0.221,0.458l-0.22,0.458l-0.219,0.459l-0.218,0.459l-0.217,0.46l-0.216,0.461l-0.214,0.461l-0.213,0.462l-0.213,0.463l-0.211,0.463l-0.209,0.464l-0.209,0.464l-0.208,0.465l-0.206,0.466l-0.206,0.466l-0.204,0.467l-0.203,0.468l-0.201,0.468l-0.201,0.469l-0.2,0.469l-0.198,0.47l-0.197,0.471l-0.196,0.471l-0.195,0.472l-0.194,0.472l-0.192,0.473l-0.192,0.474l-0.19,0.474l-0.189,0.475l-0.188,0.475l-0.186,0.476l-0.186,0.477l-0.184,0.477l-0.183,0.478l-0.182,0.478l-0.181,0.479l-0.179,0.48l-0.178,0.48l-0.178,0.48l-0.175,0.482l-0.175,0.481l-0.174,0.483l-0.172,0.483l-0.171,0.483l-0.17,0.484l-0.169,0.485l-0.167,0.485l-0.167,0.486l-0.165,0.486l-0.164,0.487l-0.162,0.488l-0.162,0.488l-0.16,0.488l-0.159,0.489l-0.158,0.49l-0.156,0.49l-0.155,0.491l-0.155,0.491l-0.152,0.492l-0.152,0.493l-0.15,0.493l-0.15,0.493l-0.148,0.494l-0.146,0.494l-0.146,0.495l-0.144,0.496l-0.143,0.496l-0.141,0.497l-0.141,0.497l-0.139,0.498l-0.138,0.498l-0.137,0.499l-0.135,0.499l-0.134,0.499l-0.133,0.501l-0.132,0.5l-0.13,0.502l-0.129,0.502l-0.128,0.502l-0.127,0.503l-0.125,0.503l-0.124,0.504l-0.123,0.504l-0.122,0.505l-0.12,0.505l-0.119,0.506l-0.117,0.506l-0.117,0.507l-0.115,0.507l-0.114,0.508l-0.112,0.508l-0.111,0.509l-0.11,0.509l-0.109,0.509l-0.107,0.51l-0.106,0.511l-0.105,0.511l-0.104,0.512l-0.102,0.512l-0.101,0.512l-0.099,0.513l-0.098,0.513l-0.097,0.514l-0.096,0.515l-0.094,0.514l-0.093,0.516l-0.092,0.515l-0.09,0.516l-0.089,0.517l-0.088,0.517l-0.086,0.517l-0.085,0.518l-0.084,0.519l-0.082,0.519l-0.081,0.519l-0.08,0.52l-0.079,0.52l-0.077,0.52l-0.075,0.521l-0.075,0.522l-0.073,0.522l-0.071,0.522l-0.071,0.522l-0.069,0.524l-0.067,0.523l-0.067,0.524l-0.065,0.525l-0.063,0.524l-0.062,0.526l-0.061,0.525l-0.06,0.526l-0.058,0.527l-0.057,0.527l-0.055,0.527l-0.054,0.528l-0.053,0.528l-0.051,0.528l-0.05,0.529l-0.049,0.529l-0.047,0.53l-0.046,0.53l-0.044,0.53l-0.043,0.531l-0.042,0.531l-0.04,0.532l-0.039,0.532l-0.037,0.532l-0.036,0.533l-0.035,0.533l-0.033,0.534l-0.032,0.534l-0.031,0.534l-0.029,0.535l-0.028,0.535l-0.026,0.535l-0.025,0.536l-0.023,0.536l-0.022,0.536l-0.021,0.537l-0.019,0.537l-0.018,0.538l-0.017,0.538l-0.015,0.538l-0.013,0.538l-0.012,0.539l-0.011,0.54l-0.009,0.539l-0.008,0.54l-0.007,0.541l-0.005,0.54l-0.003,0.541l-0.002,0.542l-0.001,0.541l0.001,0.647l0.003,0.647l0.005,0.646l0.007,0.646l0.009,0.645l0.012,0.645l0.013,0.644l0.015,0.643l0.018,0.644l0.019,0.642l0.021,0.642l0.024,0.642l0.025,0.641l0.028,0.641l0.029,0.64l0.032,0.639l0.033,0.639l0.035,0.639l0.038,0.638l0.039,0.637l0.042,0.637l0.043,0.637l0.046,0.635l0.047,0.636l0.049,0.634l0.052,0.635l0.053,0.633l0.055,0.633l0.058,0.633l0.059,0.632l0.061,0.631l0.063,0.631l0.065,0.63l0.067,0.63l0.069,0.629l0.071,0.628l0.073,0.628l0.075,0.628l0.077,0.626l0.078,0.626l0.081,0.626l0.082,0.625l0.085,0.624l0.086,0.624l0.089,0.623l0.09,0.622l0.092,0.622l0.094,0.621l0.096,0.621l0.098,0.62l0.1,0.619l0.101,0.619l0.104,0.618l0.105,0.618l0.107,0.616l0.11,0.617l0.111,0.615l0.113,0.615l0.114,0.614l0.117,0.614l0.119,0.613l0.12,0.612l0.122,0.611l0.125,0.611l0.126,0.611l0.127,0.609l0.13,0.609l0.132,0.608l0.133,0.608l0.135,0.606l0.137,0.607l0.139,0.605l0.141,0.605l0.143,0.604l0.144,0.603l0.146,0.603l0.148,0.602l0.15,0.601l0.152,0.6l0.153,0.6l0.155,0.599l0.158,0.598l0.158,0.598l0.161,0.597l0.163,0.596l0.164,0.595l0.166,0.595l0.168,0.594l0.169,0.593l0.172,0.592l0.173,0.592l0.175,0.591l0.177,0.59l0.178,0.589l0.18,0.589l0.182,0.588l0.184,0.587l0.186,0.586l0.187,0.586l0.189,0.584l0.191,0.584l0.192,0.584l0.194,0.582l0.196,0.582l0.198,0.58l0.199,0.58l0.202,0.579l0.202,0.579l0.205,0.577l0.206,0.577l0.208,0.576l0.21,0.575l0.212,0.575l0.213,0.573l0.215,0.573l0.216,0.571l0.218,0.571l0.22,0.571l0.222,0.569l0.223,0.568l0.225,0.568l0.227,0.567l0.228,0.566l0.23,0.565l0.232,0.564l0.234,0.563l0.235,0.563l0.236,0.561l0.239,0.561l0.24,0.56l0.241,0.559l0.244,0.558l0.245,0.557l0.246,0.557l0.248,0.555l0.25,0.555l0.252,0.554l0.253,0.552l0.255,0.552l0.256,0.551l0.258,0.55l0.26,0.549l0.261,0.549l0.263,0.547l0.264,0.546l0.267,0.546l0.267,0.544l0.269,0.544l0.271,0.543l0.273,0.542l0.274,0.54l0.276,0.54l0.277,0.539l0.279,0.538l0.28,0.537l0.282,0.536l0.284,0.536l0.285,0.534l0.286,0.533l0.289,0.532l0.289,0.531l0.292,0.531l0.293,0.529l0.294,0.528l0.296,0.528l0.298,0.526l0.299,0.526l0.301,0.524l0.302,0.523l0.303,0.523l0.306,0.521l0.306,0.521l0.309,0.519l0.31,0.519l0.311,0.517l0.313,0.516l0.314,0.516l0.316,0.514l0.317,0.513l0.319,0.513l0.32,0.511l0.322,0.51l0.324,0.509l0.325,0.509l0.326,0.507l0.328,0.506l0.329,0.505l0.331,0.504l0.332,0.503l0.334,0.502l0.335,0.5l0.336,0.5l0.339,0.499l0.339,0.497l0.341,0.497l0.343,0.495l0.344,0.495l0.345,0.493l0.347,0.492l0.348,0.491l0.35,0.49l0.351,0.489l0.352,0.488l0.354,0.487l0.356,0.485l0.356,0.485l0.359,0.483l0.359,0.483l0.361,0.481l0.363,0.48l0.364,0.479l0.365,0.478l0.367,0.476l0.368,0.476l0.369,0.474l0.371,0.473l0.372,0.473l0.374,0.471l0.375,0.469l0.376,0.469l0.378,0.468l0.379,0.466l0.381,0.465l0.382,0.464l0.383,0.463l0.385,0.462l0.386,0.46l0.387,0.46l0.389,0.458l0.39,0.457l0.391,0.456l0.393,0.454l0.394,0.454l0.395,0.452l0.397,0.451l0.398,0.45l0.399,0.449l0.401,0.447l0.402,0.446l0.403,0.446l0.405,0.443l0.406,0.443l0.407,0.441l0.408,0.44l0.41,0.439l0.411,0.438l0.413,0.437l0.414,0.435l0.415,0.434l0.416,0.433l0.418,0.431l0.418,0.43l0.421,0.429l0.421,0.428l0.423,0.427l0.424,0.425l0.425,0.424l0.426,0.422l0.428,0.422l0.429,0.42l0.43,0.419l0.432,0.417l0.433,0.417l0.434,0.415l0.435,0.413l0.436,0.413l0.438,0.411l0.439,0.41l0.44,0.408l0.441,0.408l0.443,0.406l0.444,0.404l0.445,0.404l0.446,0.402l0.448,0.4l0.448,0.4l0.45,0.398l0.451,0.396l0.452,0.396l0.454,0.394l0.455,0.392l0.455,0.392l0.457,0.39l0.459,0.388l0.459,0.388l0.461,0.386l0.461,0.384l0.463,0.384l0.464,0.381l0.465,0.381l0.467,0.379l0.467,0.378l0.469,0.376l0.47,0.375l0.471,0.374l0.472,0.372l0.473,0.371l0.475,0.37l0.475,0.368l0.477,0.366l0.478,0.366l0.479,0.363l0.48,0.363l0.481,0.361l0.482,0.36l0.484,0.358l0.484,0.357l0.486,0.355l0.486,0.354l0.488,0.353l0.489,0.351l0.49,0.349l0.491,0.349l0.492,0.346l0.494,0.346l0.494,0.344l0.496,0.342l0.496,0.341l0.498,0.34l0.498,0.338l0.5,0.337l0.501,0.335l0.502,0.333l0.503,0.333l0.504,0.33l0.505,0.33l0.506,0.328l0.507,0.326l0.508,0.325l0.509,0.323l0.51,0.322l0.512,0.32l0.512,0.319l0.513,0.317l0.515,0.316l0.515,0.315l0.516,0.313l0.518,0.311l0.518,0.31l0.52,0.308l0.52,0.307l0.521,0.305l0.523,0.304l0.523,0.302l0.525,0.3l0.525,0.3l0.527,0.297l0.527,0.296l0.528,0.295l0.53,0.293l0.53,0.291l0.531,0.29l0.532,0.288l0.534,0.287l0.534,0.285l0.535,0.283l0.536,0.282l0.537,0.281l0.538,0.279l0.539,0.277l0.54,0.275l0.541,0.275l0.542,0.272l0.542,0.271l0.544,0.269l0.544,0.268l0.546,0.266l0.546,0.264l0.548,0.263l0.548,0.262l0.549,0.259l0.55,0.258l0.551,0.257l0.552,0.254l0.553,0.254l0.554,0.251l0.554,0.25l0.556,0.248l0.556,0.247l0.557,0.245l0.558,0.243l0.559,0.242l0.56,0.24l0.561,0.238l0.562,0.237l0.562,0.235l0.563,0.233l0.565,0.232l0.565,0.23l0.566,0.228l0.566,0.227l0.568,0.225l0.568,0.223l0.57,0.222l0.57,0.22l0.571,0.218l0.572,0.217l0.572,0.215l0.574,0.213l0.574,0.211l0.575,0.21l0.576,0.208l0.577,0.206l0.578,0.205l0.578,0.203l0.579,0.201l0.58,0.199l0.581,0.198l0.581,0.196l0.583,0.194l0.583,0.193l0.584,0.191l0.585,0.189l0.585,0.187l0.586,0.185l0.587,0.184l0.588,0.182l0.589,0.18l0.589,0.179l0.59,0.177l0.591,0.174l0.592,0.174l0.592,0.171l0.594,0.17l0.593,0.168l0.595,0.166l0.595,0.164l0.597,0.162l0.596,0.161l0.598,0.159l0.598,0.157l0.599,0.155l0.6,0.154l0.601,0.151l0.601,0.15l0.602,0.148l0.602,0.146l0.604,0.145l0.604,0.142l0.604,0.141l0.606,0.139l0.606,0.137l0.607,0.135l0.607,0.134l0.608,0.131l0.609,0.13l0.61,0.128l0.61,0.126l0.611,0.124l0.611,0.122l0.613,0.121l0.613,0.118l0.613,0.117l0.614,0.115l0.615,0.113l0.616,0.111l0.616,0.109l0.617,0.107l0.617,0.106l0.618,0.103l0.619,0.102l0.619,0.1l0.62,0.097l0.621,0.096l0.621,0.094l0.622,0.093l0.622,0.09l0.624,0.088l0.623,0.086l0.625,0.085l0.625,0.082l0.625,0.081l0.626,0.079l0.627,0.076l0.627,0.075l0.628,0.073l0.629,0.071l0.629,0.069l0.629,0.067l0.63,0.065l0.631,0.063l0.632,0.062l0.632,0.059l0.632,0.057l0.633,0.055l0.634,0.054l0.634,0.051l0.635,0.049l0.635,0.048l0.636,0.045l0.636,0.044l0.637,0.041l0.638,0.039l0.637,0.038l0.639,0.035l0.639,0.034l0.64,0.031l0.64,0.03l0.64,0.027l0.641,0.026l0.642,0.023l0.642,0.021l0.643,0.02l0.643,0.017l0.644,0.015l0.644,0.014l0.644,0.011l0.646,0.009l0.645,0.007l0.646,0.005l0.647,0.003l0.647,0.001l0.542,0l0.542,-0.002l0.542,-0.004l0.541,-0.005l0.541,-0.006l0.541,-0.008l0.54,-0.01l0.54,-0.011l0.54,-0.012l0.539,-0.013l0.539,-0.015l0.539,-0.017l0.538,-0.018l0.538,-0.019l0.537,-0.021l0.538,-0.022l0.536,-0.023l0.537,-0.025l0.536,-0.027l0.536,-0.028l0.535,-0.029l0.535,-0.03l0.534,-0.032l0.535,-0.034l0.533,-0.034l0.534,-0.037l0.533,-0.037l0.533,-0.039l0.532,-0.041l0.532,-0.041l0.531,-0.043l0.531,-0.045l0.531,-0.046l0.53,-0.047l0.53,-0.049l0.53,-0.05l0.529,-0.051l0.529,-0.053l0.528,-0.054l0.528,-0.056l0.527,-0.057l0.528,-0.058l0.526,-0.06l0.527,-0.061l0.525,-0.062l0.526,-0.064l0.525,-0.065l0.525,-0.066l0.524,-0.068l0.524,-0.069l0.523,-0.071l0.523,-0.072l0.522,-0.073l0.522,-0.075l0.522,-0.075l0.521,-0.078l0.521,-0.078l0.52,-0.08l0.52,-0.081l0.52,-0.083l0.519,-0.084l0.518,-0.085l0.518,-0.087l0.518,-0.088l0.517,-0.089l0.517,-0.091l0.516,-0.091l0.516,-0.094l0.516,-0.094l0.514,-0.096l0.515,-0.097l0.514,-0.099l0.513,-0.099l0.514,-0.102l0.512,-0.102l0.512,-0.104l0.512,-0.105l0.511,-0.106l0.511,-0.108l0.51,-0.109l0.51,-0.11l0.509,-0.111l0.509,-0.113l0.508,-0.114l0.508,-0.116l0.507,-0.116l0.507,-0.118l0.507,-0.119l0.506,-0.121l0.505,-0.122l0.505,-0.123l0.504,-0.124l0.504,-0.126l0.503,-0.127l0.503,-0.128l0.503,-0.129l0.501,-0.131l0.502,-0.132l0.501,-0.133l0.5,-0.135l0.5,-0.136l0.499,-0.137l0.499,-0.138l0.498,-0.139l0.498,-0.141l0.497,-0.142l0.497,-0.144l0.496,-0.144l0.495,-0.146l0.495,-0.147l0.495,-0.148l0.494,-0.15l0.493,-0.151l0.493,-0.152l0.493,-0.153l0.492,-0.154l0.491,-0.156l0.491,-0.157l0.49,-0.158l0.49,-0.159l0.489,-0.161l0.488,-0.162l0.488,-0.163l0.488,-0.164l0.487,-0.166l0.486,-0.166l0.486,-0.168l0.485,-0.169l0.484,-0.171l0.484,-0.171l0.484,-0.173l0.483,-0.174l0.482,-0.175l0.482,-0.177l0.481,-0.177l0.481,-0.179l0.48,-0.18l0.479,-0.181l0.479,-0.182l0.478,-0.184l0.478,-0.185l0.477,-0.185l0.477,-0.188l0.476,-0.188l0.475,-0.189l0.475,-0.191l0.474,-0.192l0.473,-0.193l0.473,-0.194l0.473,-0.195l0.471,-0.197l0.471,-0.197l0.471,-0.199l0.47,-0.2l0.469,-0.201l0.469,-0.203l0.468,-0.203l0.467,-0.205l0.467,-0.206l0.466,-0.207l0.466,-0.208l0.464,-0.209l0.465,-0.21l0.463,-0.212l0.463,-0.213l0.463,-0.213l0.462,-0.215l0.461,-0.216l0.46,-0.218l0.46,-0.218l0.459,-0.22l0.459,-0.22l0.458,-0.222l0.457,-0.223l0.457,-0.224l0.456,-0.225l0.455,-0.226l0.455,-0.228l0.454,-0.228l0.453,-0.23l0.453,-0.231l0.452,-0.232l0.451,-0.233l0.451,-0.234l0.45,-0.235l0.449,-0.236l0.449,-0.238l0.448,-0.238l0.447,-0.24l0.447,-0.24l0.446,-0.242l0.445,-0.243l0.444,-0.244l0.444,-0.245l0.444,-0.246l0.442,-0.248l0.442,-0.248l0.441,-0.25l0.441,-0.25l0.439,-0.252l0.44,-0.252l0.438,-0.254l0.438,-0.255l0.437,-0.256l0.436,-0.257l0.435,-0.258l0.435,-0.259l0.434,-0.26l0.434,-0.262l0.433,-0.262l0.432,-0.263l0.431,-0.265l0.431,-0.265l0.429,-0.267l0.43,-0.267l0.428,-0.269l0.428,-0.27l0.427,-0.271l0.426,-0.271l0.425,-0.273l0.425,-0.274l0.424,-0.275l0.423,-0.276l0.423,-0.277l0.422,-0.278l0.421,-0.279l0.42,-0.28l0.42,-0.281l0.419,-0.283l0.418,-0.283l0.417,-0.284l0.417,-0.285l0.415,-0.287l0.415,-0.287l0.415,-0.288l0.413,-0.289l0.413,-0.291l0.412,-0.291l0.411,-0.293l0.411,-0.293l0.41,-0.294l0.409,-0.296l0.408,-0.296l0.407,-0.297l0.407,-0.299l0.406,-0.299l0.405,-0.301l0.404,-0.301l0.403,-0.302l0.403,-0.304l0.402,-0.304l0.401,-0.305l0.401,-0.307l0.399,-0.307l0.399,-0.308l0.398,-0.31l35.465,35.437l-0.506,0.413l-0.507,0.413l-0.508,0.411l-0.509,0.41l-0.51,0.408l-0.512,0.407l-0.512,0.406l-0.514,0.405l-0.514,0.403l-0.516,0.402l-0.517,0.4l-0.518,0.4l-0.519,0.398l-0.52,0.396l-0.521,0.395l-0.522,0.394l-0.523,0.393l-0.524,0.391l-0.526,0.39l-0.526,0.389l-0.528,0.387l-0.528,0.386l-0.53,0.385l-0.53,0.383l-0.532,0.382l-0.532,0.38l-0.534,0.38l-0.535,0.377l-0.535,0.377l-0.537,0.375l-0.538,0.373l-0.539,0.373l-0.539,0.371l-0.541,0.369l-0.542,0.368l-0.543,0.367l-0.544,0.366l-0.545,0.364l-0.546,0.362l-0.546,0.362l-0.548,0.359l-0.549,0.359l-0.55,0.357l-0.551,0.356l-0.552,0.354l-0.553,0.353l-0.553,0.351l-0.555,0.35l-0.556,0.349l-0.557,0.347l-0.557,0.346l-0.559,0.344l-0.56,0.343l-0.56,0.341l-0.562,0.341l-0.562,0.338l-0.564,0.337l-0.564,0.336l-0.566,0.334l-0.566,0.333l-0.567,0.332l-0.569,0.33l-0.569,0.328l-0.57,0.327l-0.571,0.326l-0.572,0.324l-0.573,0.323l-0.574,0.321l-0.575,0.32l-0.575,0.318l-0.577,0.317l-0.578,0.315l-0.578,0.314l-0.58,0.312l-0.58,0.311l-0.581,0.31l-0.582,0.308l-0.583,0.306l-0.584,0.305l-0.585,0.304l-0.586,0.302l-0.586,0.3l-0.588,0.299l-0.588,0.298l-0.59,0.295l-0.59,0.295l-0.591,0.293l-0.592,0.291l-0.593,0.29l-0.593,0.289l-0.595,0.286l-0.595,0.286l-0.597,0.284l-0.597,0.282l-0.598,0.281l-0.599,0.279l-0.6,0.278l-0.6,0.276l-0.602,0.274l-0.602,0.273l-0.603,0.272l-0.604,0.27l-0.605,0.268l-0.606,0.267l-0.606,0.265l-0.607,0.264l-0.609,0.262l-0.609,0.261l-0.609,0.259l-0.611,0.257l-0.611,0.256l-0.613,0.255l-0.613,0.252l-0.614,0.251l-0.615,0.25l-0.615,0.248l-0.616,0.246l-0.618,0.245l-0.617,0.243l-0.619,0.242l-0.62,0.24l-0.62,0.239l-0.621,0.236l-0.622,0.236l-0.623,0.233l-0.623,0.232l-0.625,0.231l-0.625,0.228l-0.625,0.227l-0.627,0.226l-0.627,0.224l-0.628,0.222l-0.629,0.221l-0.63,0.219l-0.63,0.217l-0.632,0.216l-0.632,0.214l-0.632,0.213l-0.634,0.21l-0.634,0.21l-0.635,0.207l-0.635,0.206l-0.637,0.204l-0.637,0.203l-0.638,0.201l-0.638,0.199l-0.64,0.197l-0.64,0.196l-0.641,0.195l-0.641,0.192l-0.642,0.191l-0.643,0.189l-0.644,0.188l-0.644,0.186l-0.645,0.184l-0.646,0.182l-0.647,0.181l-0.647,0.179l-0.648,0.178l-0.648,0.175l-0.65,0.175l-0.65,0.172l-0.65,0.17l-0.652,0.169l-0.652,0.168l-0.652,0.165l-0.654,0.164l-0.654,0.162l-0.655,0.16l-0.655,0.159l-0.656,0.157l-0.657,0.155l-0.657,0.153l-0.658,0.152l-0.659,0.15l-0.659,0.148l-0.66,0.147l-0.661,0.144l-0.661,0.143l-0.662,0.142l-0.663,0.139l-0.663,0.138l-0.664,0.136l-0.665,0.134l-0.665,0.132l-0.666,0.131l-0.666,0.129l-0.667,0.127l-0.668,0.126l-0.668,0.123l-0.669,0.122l-0.67,0.12l-0.67,0.118l-0.671,0.117l-0.671,0.115l-0.672,0.113l-0.673,0.111l-0.673,0.109l-0.674,0.108l-0.674,0.105l-0.675,0.104l-0.675,0.103l-0.677,0.1l-0.676,0.098l-0.678,0.097l-0.678,0.095l-0.678,0.093l-0.679,0.091l-0.68,0.09l-0.68,0.087l-0.681,0.086l-0.681,0.084l-0.682,0.082l-0.682,0.081l-0.683,0.078l-0.684,0.077l-0.684,0.075l-0.684,0.072l-0.686,0.072l-0.685,0.069l-0.687,0.067l-0.686,0.066l-0.688,0.063l-0.688,0.062l-0.688,0.06l-0.689,0.058l-0.69,0.056l-0.69,0.055l-0.69,0.052l-0.691,0.051l-0.692,0.049l-0.692,0.047l-0.692,0.044l-0.693,0.044l-0.694,0.041l-0.694,0.039l-0.695,0.037l-0.695,0.036l-0.695,0.034l-0.697,0.031l-0.696,0.03l-0.697,0.028l-0.698,0.026l-0.698,0.024l-0.698,0.022l-0.699,0.021l-0.7,0.018l-0.7,0.016l-0.7,0.015l-0.701,0.012l-0.701,0.011l-0.702,0.009l-0.702,0.007l-0.703,0.004l-0.703,0.003l-0.704,0.001l-0.808,-0.001l-0.808,-0.004l-0.807,-0.006l-0.806,-0.009l-0.806,-0.012l-0.805,-0.014l-0.805,-0.016l-0.803,-0.019l-0.804,-0.022l-0.802,-0.024l-0.802,-0.027l-0.802,-0.029l-0.8,-0.032l-0.801,-0.034l-0.799,-0.037l-0.799,-0.039l-0.798,-0.042l-0.797,-0.044l-0.797,-0.047l-0.796,-0.049l-0.796,-0.052l-0.795,-0.054l-0.794,-0.057l-0.793,-0.059l-0.793,-0.062l-0.792,-0.064l-0.791,-0.067l-0.791,-0.069l-0.79,-0.071l-0.789,-0.074l-0.789,-0.077l-0.788,-0.078l-0.787,-0.082l-0.786,-0.083l-0.786,-0.087l-0.785,-0.088l-0.784,-0.091l-0.784,-0.094l-0.782,-0.095l-0.782,-0.099l-0.782,-0.1l-0.78,-0.104l-0.78,-0.105l-0.779,-0.108l-0.778,-0.11l-0.778,-0.113l-0.776,-0.115l-0.776,-0.117l-0.775,-0.12l-0.775,-0.122l-0.773,-0.125l-0.773,-0.127l-0.772,-0.129l-0.771,-0.132l-0.771,-0.134l-0.769,-0.136l-0.769,-0.139l-0.768,-0.141l-0.767,-0.144l-0.766,-0.145l-0.766,-0.148l-0.764,-0.151l-0.764,-0.152l-0.763,-0.156l-0.762,-0.157l-0.762,-0.16l-0.76,-0.162l-0.76,-0.164l-0.758,-0.166l-0.758,-0.169l-0.757,-0.172l-0.756,-0.173l-0.756,-0.176l-0.754,-0.178l-0.754,-0.18l-0.752,-0.183l-0.752,-0.185l-0.751,-0.187l-0.75,-0.189l-0.749,-0.192l-0.748,-0.194l-0.747,-0.196l-0.747,-0.199l-0.745,-0.2l-0.745,-0.203l-0.743,-0.205l-0.743,-0.208l-0.742,-0.209l-0.741,-0.212l-0.74,-0.214l-0.739,-0.217l-0.738,-0.218l-0.737,-0.221l-0.736,-0.223l-0.735,-0.225l-0.734,-0.227l-0.733,-0.23l-0.733,-0.231l-0.731,-0.234l-0.73,-0.236l-0.729,-0.238l-0.729,-0.241l-0.727,-0.242l-0.727,-0.245l-0.725,-0.247l-0.724,-0.249l-0.724,-0.252l-0.722,-0.253l-0.721,-0.255l-0.721,-0.258l-0.719,-0.26l-0.718,-0.262l-0.718,-0.264l-0.716,-0.266l-0.715,-0.269l-0.714,-0.27l-0.713,-0.273l-0.713,-0.274l-0.711,-0.277l-0.71,-0.279l-0.709,-0.281l-0.707,-0.283l-0.707,-0.285l-0.706,-0.288l-0.705,-0.289l-0.703,-0.292l-0.703,-0.293l-0.701,-0.296l-0.701,-0.298l-0.699,-0.299l-0.698,-0.302l-0.697,-0.304l-0.696,-0.306l-0.695,-0.308l-0.694,-0.31l-0.692,-0.312l-0.692,-0.314l-0.69,-0.317l-0.69,-0.318l-0.688,-0.32l-0.687,-0.322l-0.686,-0.324l-0.684,-0.327l-0.684,-0.328l-0.683,-0.33l-0.681,-0.333l-0.68,-0.334l-0.679,-0.336l-0.678,-0.339l-0.676,-0.34l-0.676,-0.342l-0.674,-0.345l-0.673,-0.346l-0.672,-0.348l-0.671,-0.35l-0.67,-0.353l-0.668,-0.354l-0.667,-0.356l-0.666,-0.358l-0.665,-0.36l-0.663,-0.362l-0.663,-0.364l-0.661,-0.366l-0.66,-0.367l-0.659,-0.37l-0.657,-0.372l-0.656,-0.373l-0.655,-0.376l-0.654,-0.377l-0.652,-0.38l-0.652,-0.381l-0.65,-0.383l-0.648,-0.385l-0.648,-0.387l-0.646,-0.389l-0.645,-0.39l-0.644,-0.393l-0.642,-0.395l-0.641,-0.396l-0.64,-0.398l-0.639,-0.4l-0.637,-0.402l-0.636,-0.404l-0.635,-0.406l-0.633,-0.407l-0.632,-0.41l-0.631,-0.411l-0.629,-0.413l-0.628,-0.415l-0.627,-0.417l-0.626,-0.419l-0.624,-0.42l-0.623,-0.422l-0.621,-0.424l-0.62,-0.426l-0.619,-0.428l-0.617,-0.43l-0.617,-0.431l-0.614,-0.433l-0.614,-0.435l-0.612,-0.437l-0.61,-0.438l-0.61,-0.441l-0.607,-0.442l-0.607,-0.444l-0.605,-0.445l-0.604,-0.448l-0.602,-0.449l-0.601,-0.451l-0.6,-0.453l-0.598,-0.454l-0.597,-0.456l-0.595,-0.458l-0.594,-0.46l-0.593,-0.461l-0.591,-0.464l-0.589,-0.465l-0.589,-0.466l-0.586,-0.469l-0.586,-0.47l-0.584,-0.472l-0.582,-0.473l-0.581,-0.475l-0.58,-0.477l-0.578,-0.479l-0.577,-0.48l-0.575,-0.482l-0.574,-0.484l-0.572,-0.486l-0.571,-0.487l-0.569,-0.488l-0.568,-0.491l-0.566,-0.492l-0.565,-0.494l-0.563,-0.495l-0.562,-0.497l-0.561,-0.499l-0.558,-0.501l-0.558,-0.502l-0.556,-0.503l-0.554,-0.506l-0.553,-0.507l-0.551,-0.508l-0.55,-0.511l-0.548,-0.512l-0.547,-0.513l-0.545,-0.515l-0.543,-0.517l-0.542,-0.518l-0.541,-0.52l-0.539,-0.522l-0.537,-0.523l-0.536,-0.525l-0.534,-0.526l-0.533,-0.528l-0.531,-0.53l-0.53,-0.531l-0.527,-0.532l-0.527,-0.535l-0.525,-0.535l-0.523,-0.538l-0.521,-0.539l-0.52,-0.54l-0.519,-0.542l-0.516,-0.544l-0.515,-0.545l-0.514,-0.547l-0.512,-0.548l-0.51,-0.55l-0.509,-0.551l-0.507,-0.553l-0.505,-0.554l-0.504,-0.556l-0.502,-0.557l-0.5,-0.559l-0.499,-0.56l-0.497,-0.562l-0.496,-0.564l-0.494,-0.564l-0.492,-0.567l-0.49,-0.568l-0.489,-0.569l-0.487,-0.571l-0.486,-0.572l-0.483,-0.574l-0.482,-0.575l-0.481,-0.577l-0.478,-0.578l-0.477,-0.579l-0.475,-0.581l-0.474,-0.583l-0.472,-0.584l-0.47,-0.585l-0.468,-0.587l-0.467,-0.588l-0.465,-0.59l-0.463,-0.591l-0.462,-0.593l-0.459,-0.594l-0.458,-0.595l-0.457,-0.597l-0.454,-0.598l-0.453,-0.599l-0.451,-0.601l-0.449,-0.603l-0.447,-0.603l-0.446,-0.606l-0.444,-0.606l-0.442,-0.608l-0.44,-0.609l-0.439,-0.611l-0.437,-0.612l-0.434,-0.613l-0.434,-0.615l-0.431,-0.616l-0.43,-0.618l-0.427,-0.618l-0.426,-0.621l-0.424,-0.621l-0.423,-0.623l-0.42,-0.624l-0.419,-0.626l-0.416,-0.626l-0.415,-0.628l-0.413,-0.63l-0.412,-0.631l-0.409,-0.632l-0.408,-0.633l-0.405,-0.635l-0.404,-0.636l-0.402,-0.637l-0.4,-0.639l-0.399,-0.639l-0.396,-0.642l-0.395,-0.642l-0.392,-0.644l-0.391,-0.645l-0.389,-0.646l-0.387,-0.647l-0.385,-0.649l-0.383,-0.65l-0.381,-0.651l-0.379,-0.653l-0.378,-0.653l-0.375,-0.655l-0.374,-0.657l-0.372,-0.657l-0.369,-0.659l-0.368,-0.66l-0.366,-0.661l-0.364,-0.662l-0.362,-0.664l-0.36,-0.665l-0.358,-0.665l-0.356,-0.668l-0.354,-0.668l-0.352,-0.67l-0.35,-0.67l-0.349,-0.672l-0.346,-0.673l-0.344,-0.675l-0.343,-0.675l-0.34,-0.677l-0.338,-0.678l-0.337,-0.679l-0.334,-0.68l-0.332,-0.681l-0.331,-0.683l-0.328,-0.683l-0.326,-0.685l-0.324,-0.686l-0.323,-0.687l-0.32,-0.688l-0.318,-0.689l-0.316,-0.691l-0.314,-0.691l-0.313,-0.693l-0.31,-0.694l-0.308,-0.694l-0.306,-0.696l-0.303,-0.698l-0.302,-0.698l-0.3,-0.699l-0.298,-0.7l-0.295,-0.702l-0.294,-0.702l-0.291,-0.704l-0.29,-0.705l-0.287,-0.705l-0.285,-0.707l-0.283,-0.708l-0.282,-0.709l-0.278,-0.71l-0.277,-0.711l-0.275,-0.712l-0.273,-0.713l-0.27,-0.715l-0.268,-0.715l-0.267,-0.716l-0.264,-0.717l-0.262,-0.719l-0.259,-0.719l-0.258,-0.72l-0.256,-0.722l-0.253,-0.722l-0.251,-0.723l-0.249,-0.725l-0.247,-0.725l-0.245,-0.726l-0.243,-0.728l-0.24,-0.728l-0.238,-0.73l-0.236,-0.73l-0.234,-0.731l-0.232,-0.732l-0.23,-0.734l-0.227,-0.734l-0.225,-0.735l-0.223,-0.736l-0.221,-0.737l-0.218,-0.738l-0.216,-0.739l-0.214,-0.74l-0.212,-0.741l-0.21,-0.742l-0.207,-0.742l-0.205,-0.744l-0.203,-0.744l-0.201,-0.746l-0.199,-0.746l-0.196,-0.747l-0.194,-0.749l-0.191,-0.749l-0.19,-0.75l-0.187,-0.751l-0.185,-0.751l-0.182,-0.753l-0.181,-0.753l-0.178,-0.755l-0.176,-0.755l-0.173,-0.756l-0.171,-0.757l-0.169,-0.758l-0.167,-0.759l-0.164,-0.76l-0.162,-0.76l-0.16,-0.761l-0.157,-0.762l-0.155,-0.763l-0.153,-0.764l-0.15,-0.765l-0.148,-0.765l-0.146,-0.767l-0.144,-0.767l-0.141,-0.768l-0.138,-0.769l-0.137,-0.769l-0.134,-0.77l-0.131,-0.772l-0.13,-0.772l-0.127,-0.772l-0.124,-0.774l-0.122,-0.774l-0.12,-0.775l-0.118,-0.776l-0.115,-0.777l-0.112,-0.777l-0.111,-0.779l-0.108,-0.779l-0.105,-0.779l-0.103,-0.781l-0.101,-0.781l-0.098,-0.782l-0.096,-0.783l-0.093,-0.783l-0.091,-0.785l-0.089,-0.785l-0.086,-0.785l-0.084,-0.787l-0.081,-0.787l-0.079,-0.788l-0.077,-0.788l-0.073,-0.789l-0.072,-0.79l-0.069,-0.791l-0.067,-0.792l-0.064,-0.792l-0.061,-0.792l-0.06,-0.794l-0.056,-0.794l-0.055,-0.795l-0.051,-0.795l-0.05,-0.796l-0.046,-0.797l-0.045,-0.798l-0.041,-0.798l-0.04,-0.799l-0.036,-0.799l-0.035,-0.8l-0.032,-0.801l-0.029,-0.801l-0.026,-0.802l-0.025,-0.803l-0.021,-0.803l-0.019,-0.804l-0.017,-0.805l-0.014,-0.805l-0.012,-0.806l-0.008,-0.806l-0.007,-0.807l-0.004,-0.807l-0.001,-0.809l0.001,-0.702l0.003,-0.703l0.005,-0.702l0.006,-0.701l0.009,-0.701l0.011,-0.7l0.012,-0.7l0.015,-0.7l0.016,-0.699l0.019,-0.699l0.02,-0.698l0.022,-0.698l0.024,-0.697l0.026,-0.696l0.028,-0.697l0.029,-0.695l0.032,-0.696l0.034,-0.694l0.035,-0.695l0.037,-0.693l0.04,-0.694l0.041,-0.692l0.043,-0.693l0.044,-0.691l0.047,-0.692l0.049,-0.69l0.05,-0.69l0.053,-0.69l0.054,-0.689l0.056,-0.689l0.058,-0.688l0.06,-0.688l0.061,-0.687l0.064,-0.686l0.065,-0.686l0.068,-0.686l0.069,-0.685l0.071,-0.684l0.072,-0.684l0.075,-0.683l0.076,-0.683l0.079,-0.682l0.08,-0.682l0.082,-0.681l0.083,-0.68l0.086,-0.68l0.087,-0.68l0.09,-0.678l0.091,-0.679l0.093,-0.677l0.094,-0.677l0.097,-0.677l0.098,-0.676l0.1,-0.675l0.102,-0.675l0.104,-0.674l0.105,-0.674l0.107,-0.673l0.11,-0.672l0.11,-0.672l0.113,-0.671l0.115,-0.671l0.116,-0.669l0.118,-0.67l0.12,-0.669l0.121,-0.668l0.123,-0.667l0.126,-0.667l0.126,-0.666l0.129,-0.666l0.13,-0.665l0.133,-0.665l0.133,-0.663l0.136,-0.664l0.137,-0.662l0.14,-0.662l0.141,-0.661l0.142,-0.661l0.145,-0.66l0.146,-0.659l0.148,-0.659l0.149,-0.658l0.151,-0.657l0.154,-0.657l0.154,-0.656l0.157,-0.655l0.158,-0.655l0.16,-0.654l0.162,-0.653l0.163,-0.653l0.165,-0.652l0.167,-0.651l0.168,-0.651l0.171,-0.649l0.172,-0.65l0.173,-0.648l0.175,-0.648l0.177,-0.647l0.179,-0.647l0.18,-0.646l0.183,-0.645l0.183,-0.644l0.186,-0.644l0.187,-0.643l0.189,-0.642l0.19,-0.641l0.192,-0.641l0.194,-0.64l0.195,-0.64l0.197,-0.638l0.199,-0.638l0.201,-0.637l0.202,-0.637l0.204,-0.636l0.205,-0.635l0.207,-0.634l0.209,-0.633l0.21,-0.633l0.212,-0.632l0.214,-0.631l0.215,-0.631l0.217,-0.63l0.218,-0.629l0.22,-0.628l0.222,-0.627l0.223,-0.627l0.225,-0.626l0.227,-0.625l0.228,-0.624l0.23,-0.624l0.232,-0.623l0.233,-0.622l0.234,-0.621l0.237,-0.621l0.237,-0.619l0.24,-0.619l0.241,-0.618l0.243,-0.618l0.244,-0.616l0.246,-0.616l0.247,-0.615l0.249,-0.614l0.251,-0.613l0.252,-0.613l0.253,-0.611l0.256,-0.611l0.257,-0.61l0.258,-0.61l0.26,-0.608l0.262,-0.607l0.263,-0.607l0.264,-0.606l0.267,-0.605l0.267,-0.604l0.27,-0.604l0.271,-0.602l0.272,-0.602l0.274,-0.601l0.275,-0.6l0.277,-0.599l0.279,-0.599l0.28,-0.597l0.282,-0.597l0.283,-0.595l0.285,-0.595l0.286,-0.594l0.288,-0.593l0.289,-0.593l0.29,-0.591l0.293,-0.591l0.294,-0.589l0.295,-0.589l0.297,-0.588l0.298,-0.587l0.3,-0.586l0.301,-0.585l0.303,-0.584l0.304,-0.584l0.306,-0.582l0.307,-0.582l0.309,-0.581l0.31,-0.579l0.311,-0.579l0.314,-0.578l0.314,-0.577l0.316,-0.577l0.318,-0.575l0.319,-0.574l0.32,-0.573l0.322,-0.573l0.324,-0.571l0.325,-0.571l0.326,-0.57l0.328,-0.568l0.329,-0.568l0.331,-0.567l0.332,-0.566l0.333,-0.565l0.335,-0.564l0.337,-0.563l0.338,-0.562l0.339,-0.561l0.341,-0.56l0.342,-0.559l0.343,-0.559l0.345,-0.557l0.347,-0.556l0.347,-0.556l0.35,-0.554l0.35,-0.553l0.352,-0.553l0.354,-0.551l0.355,-0.551l0.356,-0.549l0.357,-0.548l0.359,-0.548l0.361,-0.546l0.362,-0.546l0.363,-0.544l0.365,-0.544l0.366,-0.542l0.367,-0.542l0.369,-0.54l0.37,-0.539l0.371,-0.539l0.373,-0.537l0.374,-0.537l0.376,-0.535l0.377,-0.534l0.378,-0.534l0.38,-0.532l0.381,-0.531l0.382,-0.53l0.384,-0.529l0.385,-0.528l0.386,-0.528l0.388,-0.526l0.389,-0.525l0.39,-0.523l0.392,-0.523l0.393,-0.522l0.395,-0.521l0.395,-0.52l0.398,-0.518l0.398,-0.518l0.4,-0.516l0.401,-0.516l0.402,-0.514l0.404,-0.513l0.405,-0.512l0.406,-0.512l0.407,-0.51l0.409,-0.508l0.41,-0.508l0.412,-0.507l0.413,-0.506l35.465,35.436Zm158.891,-127.26l0.808,0.003l0.807,0.007l0.806,0.009l0.806,0.011l0.805,0.014l0.805,0.017l0.803,0.019l0.804,0.022l0.802,0.024l0.802,0.027l0.802,0.029l0.8,0.032l0.801,0.034l0.799,0.037l0.799,0.039l0.798,0.042l0.797,0.044l0.797,0.047l0.796,0.049l0.796,0.052l0.795,0.054l0.794,0.057l0.793,0.059l0.793,0.062l0.792,0.064l0.791,0.066l0.791,0.069l0.79,0.072l0.789,0.074l0.789,0.076l0.788,0.079l0.787,0.081l0.786,0.084l0.786,0.086l0.785,0.089l0.784,0.091l0.784,0.093l0.782,0.096l0.782,0.098l0.782,0.101l0.78,0.103l0.78,0.106l0.779,0.108l0.778,0.11l0.778,0.113l0.776,0.115l0.776,0.117l0.775,0.12l0.775,0.122l0.773,0.125l0.773,0.127l0.772,0.129l0.771,0.132l0.771,0.134l0.769,0.136l0.769,0.139l0.768,0.141l0.767,0.143l0.766,0.146l0.766,0.148l0.764,0.15l0.764,0.153l0.763,0.155l0.762,0.158l0.762,0.159l0.76,0.162l0.76,0.165l0.758,0.166l0.758,0.169l0.757,0.171l0.756,0.174l0.756,0.176l0.754,0.178l0.754,0.18l0.752,0.183l0.752,0.184l0.751,0.188l0.75,0.189l0.749,0.192l0.748,0.194l0.747,0.196l0.747,0.198l0.745,0.201l0.745,0.203l0.743,0.205l0.743,0.207l0.742,0.21l0.741,0.212l0.74,0.214l0.739,0.216l0.738,0.219l0.737,0.22l0.736,0.223l0.735,0.225l0.734,0.228l0.733,0.229l0.733,0.232l0.731,0.234l0.73,0.236l0.729,0.238l0.729,0.241l0.727,0.242l0.727,0.245l0.725,0.247l0.724,0.249l0.724,0.251l0.722,0.254l0.721,0.255l0.721,0.258l0.719,0.26l0.718,0.262l0.718,0.264l0.716,0.266l0.715,0.268l0.714,0.271l0.713,0.272l0.713,0.275l0.711,0.277l0.71,0.279l0.709,0.281l0.707,0.283l0.707,0.285l0.706,0.288l0.705,0.289l0.703,0.291l0.703,0.294l0.701,0.296l0.701,0.297l0.699,0.3l0.698,0.302l0.697,0.304l0.696,0.306l0.695,0.308l0.694,0.31l0.692,0.312l0.692,0.314l0.69,0.316l0.69,0.318l0.688,0.321l0.687,0.322l0.686,0.324l0.684,0.327l0.684,0.328l0.683,0.33l0.681,0.333l0.68,0.334l0.679,0.336l0.678,0.338l0.676,0.341l0.676,0.342l0.674,0.344l0.673,0.347l0.672,0.348l0.671,0.35l0.67,0.352l0.668,0.354l0.667,0.357l0.666,0.358l0.665,0.36l0.663,0.362l0.663,0.364l0.661,0.365l0.66,0.368l0.659,0.37l0.657,0.371l0.656,0.374l0.655,0.376l0.654,0.377l0.652,0.379l0.652,0.382l0.65,0.383l0.648,0.385l0.648,0.387l0.646,0.388l0.645,0.391l0.644,0.393l0.642,0.394l0.641,0.397l0.64,0.398l0.639,0.4l0.637,0.402l0.636,0.404l0.635,0.406l0.633,0.407l0.632,0.41l0.631,0.411l0.629,0.413l0.628,0.415l0.627,0.417l0.626,0.418l0.624,0.421l0.623,0.422l0.621,0.424l0.62,0.426l0.619,0.428l0.617,0.429l0.617,0.432l0.614,0.433l0.614,0.435l0.612,0.437l0.61,0.438l0.61,0.44l0.607,0.443l0.607,0.443l0.605,0.446l0.604,0.447l0.602,0.45l0.601,0.451l0.6,0.452l0.598,0.455l0.597,0.456l0.595,0.458l0.594,0.46l0.593,0.461l0.591,0.463l0.589,0.465l0.589,0.467l0.586,0.468l0.586,0.471l0.584,0.471l0.582,0.474l0.581,0.475l0.58,0.477l0.578,0.479l0.577,0.48l0.575,0.482l0.574,0.484l0.572,0.485l0.571,0.487l0.569,0.489l0.568,0.491l0.566,0.492l0.565,0.494l0.563,0.495l0.562,0.497l0.561,0.499l0.558,0.5l0.558,0.502l0.556,0.504l0.554,0.506l0.553,0.507l0.551,0.508l0.55,0.51l0.548,0.512l0.547,0.514l0.545,0.515l0.543,0.517l0.542,0.518l0.541,0.52l0.539,0.522l0.537,0.523l0.536,0.525l0.534,0.526l0.533,0.528l0.531,0.529l0.53,0.531l0.527,0.533l0.527,0.534l0.525,0.536l0.523,0.538l0.521,0.538l0.52,0.541l0.519,0.542l0.516,0.544l0.515,0.545l0.514,0.546l0.512,0.549l0.51,0.549l0.509,0.552l0.507,0.552l0.505,0.555l0.504,0.556l0.502,0.557l0.5,0.559l0.499,0.56l0.497,0.562l0.496,0.563l0.494,0.565l0.492,0.567l0.49,0.567l0.489,0.57l0.487,0.57l0.486,0.573l0.483,0.574l0.482,0.575l0.481,0.576l0.478,0.579l0.477,0.579l0.475,0.581l0.474,0.583l0.472,0.584l0.47,0.585l0.468,0.587l0.467,0.588l0.465,0.59l0.463,0.591l0.462,0.592l0.459,0.594l0.458,0.596l0.457,0.596l0.454,0.599l0.453,0.599l0.451,0.601l0.449,0.602l0.447,0.604l0.446,0.605l0.444,0.607l0.442,0.608l0.44,0.609l0.439,0.611l0.437,0.612l0.434,0.613l0.434,0.615l0.431,0.616l0.43,0.617l0.427,0.619l0.426,0.62l0.424,0.622l0.423,0.623l0.42,0.624l0.419,0.625l0.416,0.627l0.415,0.628l0.413,0.63l0.412,0.63l0.409,0.632l0.408,0.634l0.405,0.634l0.404,0.636l0.402,0.638l0.4,0.638l0.399,0.64l0.396,0.641l0.395,0.643l0.392,0.643l0.391,0.645l0.389,0.646l0.387,0.648l0.385,0.649l0.383,0.65l0.381,0.651l0.379,0.652l0.378,0.654l0.375,0.655l0.374,0.656l0.372,0.658l0.369,0.659l0.368,0.659l0.366,0.662l0.364,0.662l0.362,0.663l0.36,0.665l0.358,0.666l0.356,0.667l0.354,0.669l0.352,0.669l0.35,0.671l0.349,0.672l0.346,0.673l0.344,0.674l0.343,0.676l0.34,0.677l0.338,0.677l0.337,0.679l0.334,0.681l0.332,0.681l0.331,0.682l0.328,0.684l0.326,0.685l0.324,0.686l0.323,0.687l0.32,0.688l0.318,0.689l0.316,0.69l0.314,0.692l0.313,0.693l0.31,0.693l0.308,0.695l0.306,0.696l0.303,0.697l0.302,0.698l0.3,0.7l0.298,0.7l0.295,0.702l0.294,0.702l0.291,0.704l0.29,0.704l0.287,0.706l0.285,0.707l0.283,0.708l0.282,0.709l0.278,0.71l0.277,0.711l0.275,0.712l0.273,0.713l0.27,0.714l0.268,0.715l0.267,0.717l0.264,0.717l0.262,0.718l0.259,0.72l0.258,0.72l0.256,0.721l0.253,0.723l0.251,0.723l0.249,0.724l0.247,0.726l0.245,0.726l0.243,0.728l0.24,0.728l0.238,0.729l0.236,0.731l0.234,0.731l0.232,0.732l0.23,0.733l0.227,0.735l0.225,0.735l0.223,0.736l0.221,0.737l0.218,0.738l0.216,0.739l0.214,0.74l0.212,0.74l0.21,0.742l0.207,0.743l0.205,0.744l0.203,0.744l0.201,0.746l0.199,0.746l0.196,0.747l0.194,0.748l0.191,0.749l0.19,0.75l0.187,0.751l0.185,0.752l0.182,0.753l0.181,0.753l0.178,0.755l0.176,0.755l0.173,0.756l0.171,0.757l0.169,0.758l0.167,0.759l0.164,0.759l0.162,0.761l0.16,0.761l0.157,0.762l0.155,0.763l0.153,0.764l0.15,0.765l0.148,0.765l0.146,0.766l0.144,0.768l0.141,0.768l0.138,0.768l0.137,0.77l0.134,0.77l0.131,0.771l0.13,0.772l0.127,0.773l0.124,0.774l0.122,0.774l0.12,0.775l0.118,0.776l0.115,0.777l0.112,0.777l0.111,0.778l0.108,0.779l0.105,0.78l0.103,0.781l0.101,0.781l0.098,0.782l0.096,0.783l0.093,0.783l0.091,0.784l0.089,0.785l0.086,0.786l0.084,0.786l0.081,0.788l0.079,0.787l0.077,0.789l0.073,0.789l0.072,0.79l0.069,0.791l0.067,0.791l0.064,0.792l0.061,0.793l0.06,0.794l0.056,0.794l0.055,0.794l0.051,0.796l0.05,0.796l0.046,0.797l0.045,0.797l0.041,0.799l0.04,0.798l0.036,0.8l0.035,0.8l0.032,0.801l0.029,0.801l0.026,0.802l0.025,0.803l0.021,0.803l0.019,0.804l0.017,0.804l0.014,0.806l0.012,0.805l0.008,0.807l0.007,0.807l0.004,0.807l0.001,0.808l-0.001,0.703l-0.003,0.702l-0.005,0.702l-0.006,0.702l-0.009,0.701l-0.011,0.7l-0.012,0.7l-0.015,0.7l-0.016,0.699l-0.019,0.698l-0.02,0.699l-0.022,0.697l-0.024,0.697l-0.026,0.697l-0.028,0.696l-0.029,0.696l-0.032,0.695l-0.034,0.695l-0.035,0.694l-0.037,0.694l-0.04,0.693l-0.041,0.693l-0.043,0.692l-0.044,0.692l-0.047,0.691l-0.049,0.691l-0.05,0.69l-0.053,0.69l-0.054,0.689l-0.056,0.689l-0.058,0.688l-0.06,0.687l-0.061,0.687l-0.064,0.687l-0.065,0.686l-0.068,0.685l-0.069,0.685l-0.071,0.685l-0.072,0.684l-0.075,0.683l-0.076,0.683l-0.079,0.682l-0.08,0.681l-0.082,0.681l-0.083,0.681l-0.086,0.68l-0.087,0.679l-0.09,0.679l-0.091,0.678l-0.093,0.678l-0.094,0.677l-0.097,0.677l-0.098,0.675l-0.1,0.676l-0.102,0.675l-0.104,0.674l-0.105,0.673l-0.107,0.673l-0.11,0.673l-0.11,0.671l-0.113,0.672l-0.115,0.67l-0.116,0.67l-0.118,0.67l-0.12,0.668l-0.121,0.668l-0.123,0.668l-0.126,0.667l-0.126,0.666l-0.129,0.666l-0.13,0.665l-0.133,0.664l-0.133,0.664l-0.136,0.663l-0.137,0.663l-0.14,0.662l-0.141,0.661l-0.142,0.66l-0.145,0.66l-0.146,0.66l-0.148,0.658l-0.149,0.658l-0.151,0.658l-0.154,0.656l-0.154,0.656l-0.157,0.656l-0.158,0.654l-0.16,0.654l-0.162,0.654l-0.163,0.652l-0.165,0.652l-0.167,0.652l-0.168,0.65l-0.171,0.65l-0.172,0.649l-0.173,0.649l-0.175,0.648l-0.177,0.647l-0.179,0.647l-0.18,0.645l-0.183,0.645l-0.183,0.645l-0.186,0.643l-0.187,0.643l-0.189,0.643l-0.19,0.641l-0.192,0.641l-0.194,0.64l-0.195,0.639l-0.197,0.639l-0.199,0.638l-0.201,0.637l-0.202,0.637l-0.204,0.635l-0.205,0.635l-0.207,0.635l-0.209,0.633l-0.21,0.633l-0.212,0.632l-0.214,0.631l-0.215,0.631l-0.217,0.629l-0.218,0.629l-0.22,0.628l-0.222,0.628l-0.223,0.627l-0.225,0.626l-0.227,0.625l-0.228,0.624l-0.23,0.624l-0.232,0.623l-0.233,0.622l-0.234,0.621l-0.237,0.62l-0.237,0.62l-0.24,0.619l-0.241,0.618l-0.243,0.617l-0.244,0.617l-0.246,0.616l-0.247,0.615l-0.249,0.614l-0.251,0.613l-0.252,0.612l-0.253,0.612l-0.256,0.611l-0.257,0.61l-0.258,0.609l-0.26,0.609l-0.262,0.607l-0.263,0.607l-0.264,0.606l-0.267,0.605l-0.267,0.604l-0.27,0.604l-0.271,0.602l-0.272,0.602l-0.274,0.601l-0.275,0.6l-0.277,0.599l-0.279,0.598l-0.28,0.598l-0.282,0.596l-0.283,0.596l-0.285,0.595l-0.286,0.594l-0.288,0.593l-0.289,0.592l-0.29,0.592l-0.293,0.59l-0.294,0.59l-0.295,0.589l-0.297,0.588l-0.298,0.587l-0.3,0.586l-0.301,0.585l-0.303,0.584l-0.304,0.584l-0.306,0.582l-0.307,0.582l-0.309,0.58l-0.31,0.58l-0.311,0.579l-0.314,0.578l-0.314,0.577l-0.316,0.576l-0.318,0.575l-0.319,0.575l-0.32,0.573l-0.322,0.573l-0.324,0.571l-0.325,0.571l-0.326,0.569l-0.328,0.569l-0.329,0.568l-0.331,0.567l-0.332,0.566l-0.333,0.565l-0.335,0.564l-0.337,0.563l-0.338,0.562l-0.339,0.561l-0.341,0.56l-0.342,0.559l-0.343,0.558l-0.345,0.558l-0.347,0.556l-0.347,0.555l-0.35,0.555l-0.35,0.553l-0.352,0.552l-0.354,0.552l-0.355,0.55l-0.356,0.55l-0.357,0.548l-0.359,0.548l-0.361,0.546l-0.362,0.546l-0.363,0.544l-0.365,0.543l-0.366,0.543l-0.367,0.541l-0.369,0.541l-0.37,0.539l-0.371,0.539l-0.373,0.537l-0.374,0.536l-0.376,0.536l-0.377,0.534l-0.378,0.533l-0.38,0.533l-0.381,0.531l-0.382,0.53l-0.384,0.529l-0.385,0.528l-0.386,0.527l-0.388,0.526l-0.389,0.525l-0.39,0.524l-0.392,0.523l-0.393,0.522l-0.395,0.521l-0.395,0.519l-0.398,0.519l-0.398,0.517l-0.4,0.517l-0.401,0.515l-0.402,0.515l-0.404,0.513l-0.405,0.512l-0.406,0.511l-0.407,0.51l-0.409,0.509l-0.41,0.508l-0.412,0.507l-0.413,0.505l-35.465,-35.436l0.308,-0.397l0.308,-0.399l0.307,-0.399l0.305,-0.4l0.305,-0.401l0.304,-0.402l0.302,-0.402l0.302,-0.403l0.3,-0.404l0.3,-0.405l0.299,-0.406l0.298,-0.406l0.296,-0.407l0.296,-0.408l0.295,-0.409l0.293,-0.409l0.293,-0.41l0.292,-0.411l0.29,-0.412l0.29,-0.413l0.289,-0.413l0.287,-0.414l0.287,-0.415l0.286,-0.415l0.284,-0.416l0.284,-0.417l0.282,-0.418l0.282,-0.419l0.28,-0.419l0.28,-0.42l0.278,-0.421l0.277,-0.421l0.277,-0.422l0.275,-0.423l0.274,-0.424l0.274,-0.425l0.272,-0.425l0.271,-0.426l0.27,-0.426l0.269,-0.428l0.268,-0.428l0.267,-0.428l0.266,-0.43l0.265,-0.43l0.264,-0.431l0.263,-0.432l0.261,-0.432l0.261,-0.433l0.26,-0.434l0.258,-0.434l0.258,-0.436l0.256,-0.436l0.255,-0.436l0.254,-0.437l0.254,-0.438l0.252,-0.439l0.251,-0.44l0.25,-0.44l0.249,-0.44l0.247,-0.442l0.247,-0.442l0.246,-0.443l0.244,-0.443l0.244,-0.445l0.242,-0.444l0.241,-0.446l0.24,-0.446l0.239,-0.447l0.238,-0.448l0.237,-0.448l0.236,-0.449l0.234,-0.45l0.234,-0.45l0.232,-0.451l0.232,-0.451l0.23,-0.453l0.229,-0.453l0.228,-0.453l0.227,-0.454l0.226,-0.455l0.224,-0.456l0.224,-0.456l0.222,-0.457l0.221,-0.457l0.22,-0.458l0.219,-0.459l0.218,-0.459l0.217,-0.46l0.216,-0.461l0.214,-0.461l0.213,-0.462l0.213,-0.463l0.211,-0.463l0.209,-0.464l0.209,-0.464l0.208,-0.465l0.206,-0.466l0.206,-0.466l0.204,-0.467l0.203,-0.468l0.201,-0.468l0.201,-0.469l0.2,-0.469l0.198,-0.47l0.197,-0.471l0.196,-0.471l0.195,-0.472l0.194,-0.472l0.192,-0.473l0.192,-0.474l0.19,-0.474l0.189,-0.475l0.188,-0.476l0.186,-0.476l0.186,-0.476l0.184,-0.477l0.183,-0.478l0.182,-0.478l0.181,-0.479l0.179,-0.48l0.178,-0.48l0.178,-0.481l0.175,-0.481l0.175,-0.482l0.174,-0.482l0.172,-0.483l0.171,-0.484l0.17,-0.484l0.169,-0.484l0.167,-0.486l0.167,-0.485l0.165,-0.487l0.164,-0.487l0.162,-0.487l0.162,-0.488l0.16,-0.489l0.159,-0.489l0.158,-0.489l0.156,-0.491l0.155,-0.49l0.155,-0.492l0.152,-0.491l0.152,-0.493l0.15,-0.493l0.15,-0.493l0.148,-0.494l0.146,-0.495l0.146,-0.495l0.144,-0.495l0.143,-0.496l0.141,-0.497l0.141,-0.497l0.139,-0.498l0.138,-0.498l0.137,-0.499l0.135,-0.499l0.134,-0.5l0.133,-0.5l0.132,-0.501l0.13,-0.501l0.129,-0.502l0.128,-0.502l0.127,-0.503l0.125,-0.503l0.124,-0.504l0.123,-0.504l0.122,-0.505l0.12,-0.505l0.119,-0.506l0.117,-0.506l0.117,-0.507l0.115,-0.507l0.114,-0.508l0.112,-0.508l0.111,-0.509l0.11,-0.509l0.109,-0.51l0.107,-0.51l0.106,-0.51l0.105,-0.511l0.104,-0.512l0.102,-0.512l0.101,-0.512l0.099,-0.513l0.098,-0.514l0.097,-0.514l0.096,-0.514l0.094,-0.515l0.093,-0.515l0.092,-0.516l0.09,-0.516l0.089,-0.516l0.088,-0.517l0.086,-0.518l0.085,-0.518l0.084,-0.518l0.082,-0.519l0.081,-0.519l0.08,-0.52l0.079,-0.52l0.077,-0.52l0.075,-0.521l0.075,-0.522l0.073,-0.522l0.071,-0.522l0.071,-0.523l0.069,-0.523l0.067,-0.523l0.067,-0.524l0.065,-0.525l0.063,-0.525l0.062,-0.525l0.061,-0.525l0.06,-0.527l0.058,-0.526l0.057,-0.527l0.055,-0.527l0.054,-0.528l0.053,-0.528l0.051,-0.528l0.05,-0.529l0.049,-0.529l0.047,-0.53l0.046,-0.53l0.044,-0.531l0.043,-0.53l0.042,-0.532l0.04,-0.531l0.039,-0.532l0.037,-0.533l0.036,-0.532l0.035,-0.534l0.033,-0.533l0.032,-0.534l0.031,-0.534l0.029,-0.535l0.028,-0.535l0.026,-0.535l0.025,-0.536l0.023,-0.536l0.022,-0.537l0.021,-0.536l0.019,-0.538l0.018,-0.537l0.017,-0.538l0.015,-0.538l0.013,-0.539l0.012,-0.539l0.011,-0.539l0.009,-0.54l0.008,-0.54l0.007,-0.54l0.005,-0.541l0.003,-0.541l0.002,-0.541l0.001,-0.542l-0.001,-0.647l-0.003,-0.646l-0.005,-0.646l-0.007,-0.646l-0.009,-0.645l-0.012,-0.645l-0.013,-0.644l-0.015,-0.644l-0.018,-0.643l-0.019,-0.642l-0.021,-0.643l-0.024,-0.641l-0.025,-0.641l-0.028,-0.641l-0.029,-0.64l-0.032,-0.64l-0.033,-0.639l-0.035,-0.638l-0.038,-0.638l-0.039,-0.638l-0.042,-0.636l-0.043,-0.637l-0.046,-0.636l-0.047,-0.635l-0.049,-0.635l-0.052,-0.634l-0.053,-0.633l-0.055,-0.634l-0.058,-0.632l-0.059,-0.632l-0.061,-0.631l-0.063,-0.631l-0.065,-0.63l-0.067,-0.63l-0.069,-0.629l-0.071,-0.629l-0.073,-0.627l-0.075,-0.628l-0.077,-0.626l-0.078,-0.627l-0.081,-0.625l-0.082,-0.625l-0.085,-0.624l-0.086,-0.624l-0.089,-0.623l-0.09,-0.623l-0.092,-0.621l-0.094,-0.622l-0.096,-0.62l-0.098,-0.62l-0.1,-0.62l-0.101,-0.618l-0.104,-0.618l-0.105,-0.618l-0.107,-0.617l-0.11,-0.616l-0.111,-0.615l-0.113,-0.615l-0.114,-0.615l-0.117,-0.613l-0.119,-0.613l-0.12,-0.612l-0.122,-0.612l-0.125,-0.611l-0.126,-0.61l-0.127,-0.609l-0.13,-0.609l-0.132,-0.608l-0.133,-0.608l-0.135,-0.607l-0.137,-0.606l-0.139,-0.605l-0.141,-0.605l-0.143,-0.604l-0.144,-0.603l-0.146,-0.603l-0.148,-0.602l-0.15,-0.601l-0.152,-0.601l-0.153,-0.599l-0.155,-0.599l-0.158,-0.599l-0.158,-0.597l-0.161,-0.597l-0.163,-0.596l-0.164,-0.596l-0.166,-0.594l-0.168,-0.594l-0.169,-0.593l-0.172,-0.593l-0.173,-0.591l-0.175,-0.591l-0.177,-0.59l-0.178,-0.59l-0.18,-0.588l-0.182,-0.588l-0.184,-0.587l-0.186,-0.586l-0.187,-0.586l-0.189,-0.585l-0.191,-0.584l-0.192,-0.583l-0.194,-0.582l-0.196,-0.582l-0.198,-0.581l-0.199,-0.58l-0.202,-0.579l-0.202,-0.578l-0.205,-0.578l-0.206,-0.576l-0.208,-0.576l-0.21,-0.575l-0.212,-0.575l-0.213,-0.573l-0.215,-0.573l-0.216,-0.572l-0.218,-0.571l-0.22,-0.57l-0.222,-0.569l-0.223,-0.569l-0.225,-0.567l-0.227,-0.567l-0.228,-0.566l-0.23,-0.565l-0.232,-0.564l-0.234,-0.564l-0.235,-0.562l-0.236,-0.562l-0.239,-0.56l-0.24,-0.56l-0.241,-0.559l-0.244,-0.558l-0.245,-0.558l-0.246,-0.556l-0.248,-0.556l-0.25,-0.554l-0.252,-0.554l-0.253,-0.553l-0.255,-0.551l-0.256,-0.551l-0.258,-0.55l-0.26,-0.55l-0.261,-0.548l-0.263,-0.547l-0.264,-0.547l-0.267,-0.545l-0.267,-0.545l-0.269,-0.543l-0.271,-0.543l-0.273,-0.542l-0.274,-0.541l-0.276,-0.54l-0.277,-0.538l-0.279,-0.538l-0.28,-0.538l-0.282,-0.536l-0.284,-0.535l-0.285,-0.534l-0.286,-0.533l-0.289,-0.532l-0.289,-0.532l-0.292,-0.53l-0.293,-0.529l-0.294,-0.529l-0.296,-0.527l-0.298,-0.526l-0.299,-0.526l-0.301,-0.524l-0.302,-0.524l-0.303,-0.522l-0.306,-0.522l-0.306,-0.52l-0.309,-0.519l-0.31,-0.519l-0.311,-0.517l-0.313,-0.517l-0.314,-0.515l-0.316,-0.514l-0.317,-0.514l-0.319,-0.512l-0.32,-0.511l-0.322,-0.511l-0.324,-0.509l-0.325,-0.508l-0.326,-0.507l-0.328,-0.506l-0.329,-0.505l-0.331,-0.504l-0.332,-0.503l-0.334,-0.502l-0.335,-0.501l-0.336,-0.499l-0.339,-0.499l-0.339,-0.498l-0.341,-0.496l-0.343,-0.496l-0.344,-0.494l-0.345,-0.493l-0.347,-0.492l-0.348,-0.492l-0.35,-0.49l-0.351,-0.488l-0.352,-0.488l-0.354,-0.487l-0.356,-0.486l-0.356,-0.484l-0.359,-0.484l-0.359,-0.482l-0.361,-0.481l-0.363,-0.48l-0.364,-0.479l-0.365,-0.478l-0.367,-0.476l-0.368,-0.476l-0.369,-0.474l-0.371,-0.474l-0.372,-0.472l-0.374,-0.471l-0.375,-0.47l-0.376,-0.468l-0.378,-0.468l-0.379,-0.466l-0.381,-0.465l-0.382,-0.465l-0.383,-0.462l-0.385,-0.462l-0.386,-0.461l-0.387,-0.459l-0.389,-0.458l-0.39,-0.457l-0.391,-0.456l-0.393,-0.455l-0.394,-0.453l-0.395,-0.452l-0.397,-0.452l-0.398,-0.449l-0.399,-0.449l-0.401,-0.447l-0.402,-0.447l-0.403,-0.445l-0.405,-0.444l-0.406,-0.442l-0.407,-0.442l-0.408,-0.44l-0.41,-0.439l-0.411,-0.437l-0.413,-0.437l-0.414,-0.435l-0.415,-0.434l-0.416,-0.433l-0.418,-0.431l-0.418,-0.431l-0.421,-0.429l-0.421,-0.427l-0.423,-0.427l-0.424,-0.425l-0.425,-0.424l-0.426,-0.423l-0.428,-0.421l-0.429,-0.42l-0.43,-0.419l-0.432,-0.418l-0.433,-0.416l-0.434,-0.415l-0.435,-0.414l-0.436,-0.412l-0.438,-0.411l-0.439,-0.41l-0.44,-0.409l-0.441,-0.407l-0.443,-0.406l-0.444,-0.405l-0.445,-0.403l-0.446,-0.402l-0.448,-0.401l-0.448,-0.399l-0.45,-0.398l-0.451,-0.397l-0.452,-0.395l-0.454,-0.394l-0.455,-0.393l-0.455,-0.391l-0.457,-0.39l-0.459,-0.389l-0.459,-0.387l-0.461,-0.386l-0.461,-0.385l-0.463,-0.383l-0.464,-0.382l-0.465,-0.38l-0.467,-0.379l-0.467,-0.378l-0.469,-0.377l-0.47,-0.375l-0.471,-0.373l-0.472,-0.372l-0.473,-0.371l-0.475,-0.37l-0.475,-0.368l-0.477,-0.367l-0.478,-0.365l-0.479,-0.364l-0.48,-0.362l-0.481,-0.361l-0.482,-0.36l-0.484,-0.358l-0.484,-0.357l-0.486,-0.355l-0.486,-0.354l-0.488,-0.353l-0.489,-0.351l-0.49,-0.35l-0.491,-0.348l-0.492,-0.347l-0.494,-0.345l-0.494,-0.344l-0.496,-0.343l-0.496,-0.341l-0.498,-0.339l-0.498,-0.338l-0.5,-0.337l-0.501,-0.335l-0.502,-0.334l-0.503,-0.332l-0.504,-0.331l-0.505,-0.329l-0.506,-0.328l-0.507,-0.326l-0.508,-0.325l-0.509,-0.323l-0.51,-0.322l-0.512,-0.321l-0.512,-0.318l-0.513,-0.318l-0.515,-0.316l-0.515,-0.314l-0.516,-0.313l-0.518,-0.311l-0.518,-0.31l-0.52,-0.308l-0.52,-0.307l-0.521,-0.305l-0.523,-0.304l-0.523,-0.302l-0.525,-0.301l-0.525,-0.299l-0.527,-0.297l-0.527,-0.296l-0.528,-0.295l-0.53,-0.293l-0.53,-0.291l-0.531,-0.29l-0.532,-0.288l-0.534,-0.287l-0.534,-0.285l-0.535,-0.284l-0.536,-0.282l-0.537,-0.28l-0.538,-0.279l-0.539,-0.277l-0.54,-0.276l-0.541,-0.274l-0.542,-0.272l-0.542,-0.271l-0.544,-0.269l-0.544,-0.268l-0.546,-0.266l-0.546,-0.265l-0.548,-0.263l-0.548,-0.261l-0.549,-0.259l-0.55,-0.258l-0.551,-0.257l-0.552,-0.255l-0.553,-0.253l-0.554,-0.251l-0.554,-0.25l-0.556,-0.248l-0.556,-0.247l-0.557,-0.245l-0.558,-0.243l-0.559,-0.242l-0.56,-0.24l-0.561,-0.238l-0.562,-0.237l-0.562,-0.235l-0.563,-0.234l-0.565,-0.231l-0.565,-0.23l-0.566,-0.229l-0.566,-0.226l-0.568,-0.225l-0.568,-0.224l-0.57,-0.221l-0.57,-0.22l-0.571,-0.218l-0.572,-0.217l-0.572,-0.215l-0.574,-0.213l-0.574,-0.211l-0.575,-0.21l-0.576,-0.208l-0.577,-0.207l-0.578,-0.204l-0.578,-0.203l-0.579,-0.201l-0.58,-0.2l-0.581,-0.197l-0.581,-0.196l-0.583,-0.195l-0.583,-0.192l-0.584,-0.191l-0.585,-0.189l-0.585,-0.187l-0.586,-0.186l-0.587,-0.183l-0.588,-0.182l-0.589,-0.181l-0.589,-0.178l-0.59,-0.177l-0.591,-0.175l-0.592,-0.173l-0.592,-0.171l-0.594,-0.17l-0.593,-0.168l-0.595,-0.166l-0.595,-0.164l-0.597,-0.163l-0.596,-0.16l-0.598,-0.159l-0.598,-0.157l-0.599,-0.155l-0.6,-0.154l-0.601,-0.152l-0.601,-0.149l-0.602,-0.148l-0.602,-0.147l-0.604,-0.144l-0.604,-0.143l-0.604,-0.14l-0.606,-0.139l-0.606,-0.137l-0.607,-0.136l-0.607,-0.133l-0.608,-0.132l-0.609,-0.129l-0.61,-0.128l-0.61,-0.126l-0.611,-0.124l-0.611,-0.123l-0.613,-0.12l-0.613,-0.119l-0.613,-0.116l-0.614,-0.115l-0.615,-0.113l-0.616,-0.111l-0.616,-0.109l-0.617,-0.108l-0.617,-0.105l-0.618,-0.103l-0.619,-0.102l-0.619,-0.1l-0.62,-0.098l-0.621,-0.096l-0.621,-0.094l-0.622,-0.092l-0.622,-0.09l-0.624,-0.088l-0.623,-0.087l-0.625,-0.084l-0.625,-0.083l-0.625,-0.08l-0.626,-0.079l-0.627,-0.077l-0.627,-0.075l-0.628,-0.072l-0.629,-0.071l-0.629,-0.069l-0.629,-0.067l-0.63,-0.066l-0.631,-0.063l-0.632,-0.061l-0.632,-0.059l-0.632,-0.057l-0.633,-0.056l-0.634,-0.053l-0.634,-0.051l-0.635,-0.05l-0.635,-0.047l-0.636,-0.045l-0.636,-0.044l-0.637,-0.041l-0.638,-0.04l-0.637,-0.037l-0.639,-0.036l-0.639,-0.033l-0.64,-0.032l-0.64,-0.029l-0.64,-0.027l-0.641,-0.026l-0.642,-0.023l-0.642,-0.022l-0.643,-0.019l-0.643,-0.017l-0.644,-0.016l-0.644,-0.013l-0.644,-0.011l-0.646,-0.009l-0.645,-0.008l-0.646,-0.005l-0.647,-0.003l-0.647,-0.001l-0.542,0.001l-0.542,0.002l-0.542,0.004l-0.541,0.005l-0.541,0.006l-0.541,0.008l-0.54,0.009l-0.54,0.011l-0.54,0.012l-0.539,0.014l-0.539,0.015l-0.539,0.017l-0.538,0.017l-0.538,0.02l-0.537,0.02l-0.538,0.023l-0.536,0.023l-0.537,0.025l-0.536,0.026l-0.536,0.028l-0.535,0.029l-0.535,0.031l-0.534,0.032l-0.535,0.033l-0.533,0.035l-0.534,0.036l-0.533,0.038l-0.533,0.039l-0.532,0.04l-0.532,0.042l-0.531,0.043l-0.531,0.045l-0.531,0.046l-0.53,0.047l-0.53,0.049l-0.53,0.05l-0.529,0.051l-0.529,0.053l-0.528,0.054l-0.528,0.056l-0.527,0.057l-0.528,0.058l-0.526,0.059l-0.527,0.061l-0.525,0.063l-0.526,0.064l-0.525,0.065l-0.525,0.066l-0.524,0.068l-0.524,0.069l-0.523,0.071l-0.523,0.071l-0.522,0.074l-0.522,0.074l-0.522,0.076l-0.521,0.077l-0.521,0.079l-0.52,0.08l-0.52,0.081l-0.52,0.083l-0.519,0.084l-0.518,0.085l-0.518,0.087l-0.518,0.087l-0.517,0.09l-0.517,0.09l-0.516,0.092l-0.516,0.093l-0.516,0.095l-0.514,0.096l-0.515,0.097l-0.514,0.098l-0.513,0.1l-0.514,0.101l-0.512,0.103l-0.512,0.103l-0.512,0.105l-0.511,0.107l-0.511,0.107l-0.51,0.109l-0.51,0.11l-0.509,0.112l-0.509,0.113l-0.508,0.114l-0.508,0.115l-0.507,0.117l-0.507,0.118l-0.507,0.119l-0.506,0.121l-0.505,0.121l-0.505,0.124l-0.504,0.124l-0.504,0.126l-0.503,0.126l-0.503,0.129l-0.503,0.129l-0.501,0.131l-0.502,0.132l-0.501,0.133l-0.5,0.135l-0.5,0.135l-0.499,0.137l-0.499,0.139l-0.498,0.139l-0.498,0.141l-0.497,0.142l-0.497,0.143l-0.496,0.145l-0.495,0.146l-0.495,0.147l-0.495,0.148l-0.494,0.15l-0.493,0.15l-0.493,0.152l-0.493,0.154l-0.492,0.154l-0.491,0.156l-0.491,0.157l-0.49,0.158l-0.49,0.159l-0.489,0.161l-0.488,0.162l-0.488,0.163l-0.488,0.164l-0.487,0.165l-0.486,0.167l-0.486,0.168l-0.485,0.169l-0.484,0.171l-0.484,0.171l-0.484,0.173l-0.483,0.174l-0.482,0.175l-0.482,0.176l-0.481,0.178l-0.481,0.179l-0.48,0.18l-0.479,0.181l-0.479,0.182l-0.478,0.184l-0.478,0.184l-0.477,0.186l-0.477,0.187l-0.476,0.189l-0.475,0.189l-0.475,0.191l-0.474,0.191l-0.473,0.193l-0.473,0.195l-0.473,0.195l-0.471,0.196l-0.471,0.198l-0.471,0.199l-0.47,0.2l-0.469,0.201l-0.469,0.202l-0.468,0.204l-0.467,0.205l-0.467,0.205l-0.466,0.207l-0.466,0.208l-0.464,0.21l-0.465,0.21l-0.463,0.212l-0.463,0.212l-0.463,0.214l-0.462,0.215l-0.461,0.216l-0.46,0.217l-0.46,0.219l-0.459,0.219l-0.459,0.221l-0.458,0.222l-0.457,0.223l-0.457,0.224l-0.456,0.225l-0.455,0.226l-0.455,0.228l-0.454,0.228l-0.453,0.23l-0.453,0.23l-0.452,0.232l-0.451,0.233l-0.451,0.234l-0.45,0.236l-0.449,0.236l-0.449,0.237l-0.448,0.239l-0.447,0.239l-0.447,0.241l-0.446,0.242l-0.445,0.243l-0.444,0.244l-0.444,0.245l-0.444,0.246l-0.442,0.247l-0.442,0.249l-0.441,0.249l-0.441,0.251l-0.439,0.251l-0.44,0.253l-0.438,0.254l-0.438,0.255l-0.437,0.256l-0.436,0.257l-0.435,0.258l-0.435,0.259l-0.434,0.26l-0.434,0.261l-0.433,0.263l-0.432,0.263l-0.431,0.264l-0.431,0.266l-0.429,0.266l-0.43,0.268l-0.428,0.269l-0.428,0.269l-0.427,0.271l-0.426,0.272l-0.425,0.273l-0.425,0.274l-0.424,0.275l-0.423,0.276l-0.423,0.277l-0.422,0.278l-0.421,0.279l-0.42,0.28l-0.42,0.281l-0.419,0.282l-0.418,0.284l-0.417,0.284l-0.417,0.285l-0.415,0.286l-0.415,0.288l-0.415,0.288l-0.413,0.289l-0.413,0.291l-0.412,0.291l-0.411,0.292l-0.411,0.294l-0.41,0.294l-0.409,0.295l-0.408,0.297l-0.407,0.297l-0.407,0.299l-0.406,0.299l-0.405,0.3l-0.404,0.302l-0.403,0.302l-0.403,0.303l-0.402,0.305l-0.401,0.305l-0.401,0.306l-0.399,0.308l-0.399,0.308l-0.398,0.309l-35.465,-35.436l0.506,-0.414l0.507,-0.412l0.508,-0.411l0.509,-0.41l0.51,-0.408l0.512,-0.407l0.512,-0.406l0.514,-0.405l0.514,-0.403l0.516,-0.402l0.517,-0.401l0.518,-0.399l0.519,-0.398l0.52,-0.396l0.521,-0.396l0.522,-0.394l0.523,-0.392l0.524,-0.392l0.526,-0.39l0.526,-0.388l0.528,-0.388l0.528,-0.385l0.53,-0.385l0.53,-0.383l0.532,-0.382l0.532,-0.381l0.534,-0.379l0.535,-0.378l0.535,-0.376l0.537,-0.375l0.538,-0.374l0.539,-0.372l0.539,-0.371l0.541,-0.37l0.542,-0.368l0.543,-0.367l0.544,-0.365l0.545,-0.364l0.546,-0.363l0.546,-0.361l0.548,-0.36l0.549,-0.358l0.55,-0.357l0.551,-0.356l0.552,-0.354l0.553,-0.353l0.553,-0.351l0.555,-0.35l0.556,-0.349l0.557,-0.347l0.557,-0.346l0.559,-0.344l0.56,-0.343l0.56,-0.342l0.562,-0.34l0.562,-0.338l0.564,-0.338l0.564,-0.335l0.566,-0.335l0.566,-0.333l0.567,-0.331l0.569,-0.33l0.569,-0.328l0.57,-0.328l0.571,-0.325l0.572,-0.324l0.573,-0.323l0.574,-0.321l0.575,-0.32l0.575,-0.318l0.577,-0.317l0.578,-0.315l0.578,-0.314l0.58,-0.313l0.58,-0.311l0.581,-0.309l0.582,-0.308l0.583,-0.306l0.584,-0.305l0.585,-0.304l0.586,-0.302l0.586,-0.3l0.588,-0.299l0.588,-0.298l0.59,-0.296l0.59,-0.294l0.591,-0.293l0.592,-0.292l0.593,-0.289l0.593,-0.289l0.595,-0.287l0.595,-0.285l0.597,-0.284l0.597,-0.282l0.598,-0.281l0.599,-0.279l0.6,-0.278l0.6,-0.276l0.602,-0.275l0.602,-0.273l0.603,-0.271l0.604,-0.27l0.605,-0.268l0.606,-0.267l0.606,-0.266l0.607,-0.263l0.609,-0.262l0.609,-0.261l0.609,-0.259l0.611,-0.258l0.611,-0.255l0.613,-0.255l0.613,-0.253l0.614,-0.251l0.615,-0.249l0.615,-0.248l0.616,-0.247l0.618,-0.244l0.617,-0.244l0.619,-0.241l0.62,-0.24l0.62,-0.239l0.621,-0.237l0.622,-0.235l0.623,-0.233l0.623,-0.232l0.625,-0.231l0.625,-0.229l0.625,-0.227l0.627,-0.225l0.627,-0.224l0.628,-0.222l0.629,-0.221l0.63,-0.219l0.63,-0.217l0.632,-0.216l0.632,-0.214l0.632,-0.213l0.634,-0.211l0.634,-0.209l0.635,-0.207l0.635,-0.206l0.637,-0.204l0.637,-0.203l0.638,-0.201l0.638,-0.199l0.64,-0.198l0.64,-0.196l0.641,-0.194l0.641,-0.193l0.642,-0.19l0.643,-0.19l0.644,-0.187l0.644,-0.186l0.645,-0.184l0.646,-0.183l0.647,-0.181l0.647,-0.179l0.648,-0.177l0.648,-0.176l0.65,-0.174l0.65,-0.172l0.65,-0.171l0.652,-0.169l0.652,-0.167l0.652,-0.165l0.654,-0.164l0.654,-0.162l0.655,-0.16l0.655,-0.159l0.656,-0.157l0.657,-0.155l0.657,-0.153l0.658,-0.152l0.659,-0.15l0.659,-0.148l0.66,-0.147l0.661,-0.145l0.661,-0.143l0.662,-0.141l0.663,-0.139l0.663,-0.138l0.664,-0.136l0.665,-0.134l0.665,-0.133l0.666,-0.13l0.666,-0.129l0.667,-0.128l0.668,-0.125l0.668,-0.124l0.669,-0.121l0.67,-0.12l0.67,-0.119l0.671,-0.116l0.671,-0.115l0.672,-0.113l0.673,-0.111l0.673,-0.109l0.674,-0.108l0.674,-0.106l0.675,-0.104l0.675,-0.102l0.677,-0.1l0.676,-0.099l0.678,-0.096l0.678,-0.095l0.678,-0.093l0.679,-0.092l0.68,-0.089l0.68,-0.088l0.681,-0.085l0.681,-0.084l0.682,-0.083l0.682,-0.08l0.683,-0.078l0.684,-0.077l0.684,-0.075l0.684,-0.073l0.686,-0.071l0.685,-0.069l0.687,-0.067l0.686,-0.066l0.688,-0.064l0.688,-0.061l0.688,-0.06l0.689,-0.059l0.69,-0.056l0.69,-0.054l0.69,-0.053l0.691,-0.05l0.692,-0.049l0.692,-0.047l0.692,-0.045l0.693,-0.043l0.694,-0.041l0.694,-0.039l0.695,-0.038l0.695,-0.035l0.695,-0.034l0.697,-0.032l0.696,-0.029l0.697,-0.028l0.698,-0.026l0.698,-0.024l0.698,-0.023l0.699,-0.02l0.7,-0.018l0.7,-0.017l0.7,-0.014l0.701,-0.013l0.701,-0.01l0.702,-0.009l0.702,-0.007l0.703,-0.005l0.703,-0.003l0.704,-0.001l0.808,0.002Z" style="fill:#fcfcfc;"/><g><path d="M106.857,97.936l62.58,26.821" style="fill:none;stroke:#fcfcfc;stroke-width:50px;"/><path d="M106.868,97.941l26.81,-62.586" style="fill:none;stroke:#fcfcfc;stroke-width:50px;"/></g><g><path d="M394.781,456.037l-62.463,-27.095" style="fill:none;stroke:#fcfcfc;stroke-width:50px;"/><path d="M394.769,456.032l-27.083,62.468" style="fill:none;stroke:#fcfcfc;stroke-width:50px;"/></g></g></svg>